<svg width="20" height="20" viewBox="0 0 20 20" fill="none" xmlns="http://www.w3.org/2000/svg">
<path d="M18.3307 6.29427C18.3307 6.84427 17.8807 7.29427 17.3307 7.29427H2.66406C2.11406 7.29427 1.66406 6.84427 1.66406 6.29427V6.28594C1.66406 4.3776 3.20573 2.83594 5.11406 2.83594H14.8724C16.7807 2.83594 18.3307 4.38594 18.3307 6.29427Z" fill="#B3B3B3"/>
<path d="M1.66406 9.53906V13.7141C1.66406 15.6224 3.20573 17.1641 5.11406 17.1641H14.8724C16.7807 17.1641 18.3307 15.6141 18.3307 13.7057V9.53906C18.3307 8.98906 17.8807 8.53906 17.3307 8.53906H2.66406C2.11406 8.53906 1.66406 8.98906 1.66406 9.53906ZM6.66406 14.3724H4.9974C4.65573 14.3724 4.3724 14.0891 4.3724 13.7474C4.3724 13.4057 4.65573 13.1224 4.9974 13.1224H6.66406C7.00573 13.1224 7.28906 13.4057 7.28906 13.7474C7.28906 14.0891 7.00573 14.3724 6.66406 14.3724ZM12.0807 14.3724H8.7474C8.40573 14.3724 8.1224 14.0891 8.1224 13.7474C8.1224 13.4057 8.40573 13.1224 8.7474 13.1224H12.0807C12.4224 13.1224 12.7057 13.4057 12.7057 13.7474C12.7057 14.0891 12.4224 14.3724 12.0807 14.3724Z" fill="#B3B3B3"/>
</svg>
