<svg width="50" height="50" viewBox="0 0 50 50" fill="none" xmlns="http://www.w3.org/2000/svg">
<path d="M33.9542 17.2667L36.8792 20.2354L24.8104 32.125C24.0042 32.9312 22.9437 33.3333 21.8792 33.3333C20.8146 33.3333 19.7437 32.9271 18.9292 32.1146L13.1333 26.4979L16.0354 23.5042L21.8542 29.1437L33.9542 17.2667ZM50 25C50 38.7854 38.7854 50 25 50C11.2146 50 0 38.7854 0 25C0 11.2146 11.2146 0 25 0C38.7854 0 50 11.2146 50 25ZM45.8333 25C45.8333 13.5125 36.4875 4.16667 25 4.16667C13.5125 4.16667 4.16667 13.5125 4.16667 25C4.16667 36.4875 13.5125 45.8333 25 45.8333C36.4875 45.8333 45.8333 36.4875 45.8333 25Z" fill="#888888"/>
</svg>
