<svg width="20" height="20" viewBox="0 0 20 20" fill="none" xmlns="http://www.w3.org/2000/svg">
<g clip-path="url(#clip0_1234_19209)">
<path d="M18.7765 7.04719L12.944 1.21302C12.1565 0.426354 11.1106 -0.0078125 9.99729 -0.0078125C8.88396 -0.0078125 7.83729 0.426354 7.05063 1.21302L1.21813 7.04719C-0.406042 8.67135 -0.406042 11.3139 1.21813 12.938L7.05063 18.7722C7.83729 19.5589 8.88396 19.993 9.99729 19.993C11.1106 19.993 12.1565 19.5589 12.944 18.7722L18.7765 12.938C19.5631 12.1514 19.9965 11.1055 19.9965 9.99302C19.9965 8.88052 19.5631 7.83385 18.7765 7.04719ZM17.5981 11.7597L11.7656 17.5939C10.8206 18.538 9.17396 18.538 8.22896 17.5939L2.39646 11.7597C1.42229 10.7855 1.42229 9.19969 2.39646 8.22552L8.22896 2.39135C8.70146 1.91969 9.32896 1.65885 9.99729 1.65885C10.6656 1.65885 11.2931 1.91885 11.7656 2.39135L17.5981 8.22552C18.0698 8.69719 18.3298 9.32469 18.3298 9.99302C18.3298 10.6614 18.0698 11.288 17.5981 11.7597ZM11.2465 13.7472C11.2465 14.4372 10.6865 14.9972 9.99646 14.9972C9.30646 14.9972 8.74646 14.4372 8.74646 13.7472C8.74646 13.0572 9.30646 12.4972 9.99646 12.4972C10.6865 12.4972 11.2465 13.0572 11.2465 13.7472ZM9.16313 10.4139V5.83052C9.16313 5.36969 9.53646 4.99719 9.99646 4.99719C10.4565 4.99719 10.8298 5.36969 10.8298 5.83052V10.4139C10.8298 10.8747 10.4565 11.2472 9.99646 11.2472C9.53646 11.2472 9.16313 10.8747 9.16313 10.4139Z" fill="#7954C6"/>
</g>
<defs>
<clipPath id="clip0_1234_19209">
<rect width="20" height="20" fill="white"/>
</clipPath>
</defs>
</svg>
