<svg width="50" height="50" viewBox="0 0 50 50" fill="none" xmlns="http://www.w3.org/2000/svg">
<g clip-path="url(#clip0_1234_19230)">
<path d="M46.949 17.6219L32.3677 3.03646C30.399 1.06979 27.7844 -0.015625 25.001 -0.015625C22.2177 -0.015625 19.601 1.06979 17.6344 3.03646L3.05313 17.6219C-1.00729 21.6823 -1.00729 28.2885 3.05313 32.349L17.6344 46.9344C19.601 48.901 22.2177 49.9865 25.001 49.9865C27.7844 49.9865 30.399 48.901 32.3677 46.9344L46.949 32.349C48.9156 30.3823 49.999 27.7677 49.999 24.9865C49.999 22.2052 48.9156 19.5885 46.949 17.6219ZM44.0031 29.4031L29.4219 43.9885C27.0594 46.349 22.9427 46.349 20.5802 43.9885L5.99896 29.4031C3.56354 26.9677 3.56354 23.0031 5.99896 20.5677L20.5802 5.98229C21.7615 4.80313 23.3302 4.15104 25.001 4.15104C26.6719 4.15104 28.2406 4.80104 29.4219 5.98229L44.0031 20.5677C45.1823 21.7469 45.8323 23.3156 45.8323 24.9865C45.8323 26.6573 45.1823 28.224 44.0031 29.4031ZM28.124 34.3719C28.124 36.0969 26.724 37.4969 24.999 37.4969C23.274 37.4969 21.874 36.0969 21.874 34.3719C21.874 32.6469 23.274 31.2469 24.999 31.2469C26.724 31.2469 28.124 32.6469 28.124 34.3719ZM22.9156 26.0385V14.5802C22.9156 13.4281 23.849 12.4969 24.999 12.4969C26.149 12.4969 27.0823 13.4281 27.0823 14.5802V26.0385C27.0823 27.1906 26.149 28.1219 24.999 28.1219C23.849 28.1219 22.9156 27.1906 22.9156 26.0385Z" fill="#888888"/>
</g>
<defs>
<clipPath id="clip0_1234_19230">
<rect width="50" height="50" fill="white"/>
</clipPath>
</defs>
</svg>
