<svg width="10" height="9" viewBox="0 0 10 9" fill="none" xmlns="http://www.w3.org/2000/svg">
<path d="M9.28571 3.7533H2.14286L4.49286 1.28402C4.55981 1.21425 4.61294 1.13124 4.64921 1.03978C4.68547 0.948316 4.70414 0.850216 4.70414 0.751135C4.70414 0.652055 4.68547 0.553955 4.64921 0.462495C4.61294 0.371035 4.55981 0.288024 4.49286 0.218252C4.35903 0.0784627 4.17799 0 3.98929 0C3.80058 0 3.61954 0.0784627 3.48571 0.218252L0.421429 3.44558C0.153152 3.72579 0.00159485 4.10637 0 4.50384C0.00347613 4.8987 0.154889 5.27622 0.421429 5.5546L3.48571 8.78192C3.55231 8.85141 3.63129 8.90643 3.71812 8.94385C3.80496 8.98126 3.89796 9.00034 3.99181 9C4.08566 8.99965 4.17853 8.97988 4.26512 8.94182C4.3517 8.90376 4.4303 8.84815 4.49643 8.77817C4.56256 8.70819 4.61492 8.62521 4.65053 8.53396C4.68614 8.44272 4.7043 8.345 4.70397 8.24638C4.70364 8.14777 4.68482 8.05018 4.6486 7.95921C4.61238 7.86823 4.55946 7.78564 4.49286 7.71615L2.14286 5.25438H9.28571C9.47515 5.25438 9.65684 5.1753 9.79079 5.03455C9.92475 4.8938 10 4.70289 10 4.50384C10 4.30478 9.92475 4.11388 9.79079 3.97313C9.65684 3.83237 9.47515 3.7533 9.28571 3.7533Z" fill="#7954C6"/>
</svg>
