<svg width="15" height="18" viewBox="0 0 15 18" fill="none" xmlns="http://www.w3.org/2000/svg">
<path d="M9.46147 17.4259L7.46935 15.4895L5.54277 17.4191L4.32031 16.9135V10.852L4.85037 10.1606L6.02784 9.84375L6.7711 10.0853L7.4987 10.985L8.22631 10.0853L8.96956 9.84375L10.147 10.1606L10.6771 10.852V16.9135L9.46147 17.4269V17.4259ZM7.96225 13.9698L9.24534 15.2167V11.3997L9.04779 11.3469L8.05613 12.5742H6.94224L5.95058 11.3469L5.75303 11.3997V15.1815L6.95592 13.9766L7.96225 13.9688V13.9698Z" fill="#555555"/>
<path d="M6.93927 12.5719L5.94761 11.3445L4.42394 11.7543L3.52323 11.1L3.44207 9.52454L1.96925 8.96025L1.625 7.90111L2.48561 6.57891L1.625 5.2567L1.96925 4.19756L3.44207 3.63327L3.52323 2.05777L4.42394 1.40351L5.94761 1.81328L6.93927 0.585938H8.05316L9.04482 1.81328L10.5685 1.40351L11.4692 2.05777L11.5504 3.63327L13.0232 4.19756L13.3674 5.2567L12.5068 6.57891L13.3674 7.90111L13.0232 8.96025L11.5504 9.52454L11.4692 11.1L10.5685 11.7543L9.04482 11.3445L8.05316 12.5719H6.93927ZM6.02486 9.8414L6.76813 10.083L7.49573 10.9837L8.22334 10.083L8.96659 9.8414L10.0844 10.1416L10.1441 8.98568L10.6027 8.35391L11.6834 7.94023L11.0516 6.97009V6.1887L11.6824 5.21856L10.6017 4.80488L10.1421 4.17311L10.0824 3.01716L8.96463 3.31739L8.22138 3.07584L7.49377 2.17513L6.76617 3.07584L6.02292 3.31739L4.9051 3.01716L4.84544 4.17311L4.38677 4.80488L3.30613 5.21856L3.93691 6.1887V6.97009L3.30613 7.94023L4.38677 8.35391L4.84544 8.98568L4.9051 10.1416L6.02292 9.8414H6.02486Z" fill="#555555"/>
</svg>
