<svg width="15" height="15" viewBox="0 0 15 15" fill="none" xmlns="http://www.w3.org/2000/svg">
<g clip-path="url(#clip0_1234_19470)">
<path d="M2.37719 5.09401C3.35122 3.80531 4.7667 2.92153 6.35219 2.61213C6.14683 2.38874 6.01096 2.11038 5.96117 1.81105C5.91139 1.51172 5.94984 1.20438 6.07183 0.926535C6.19381 0.648695 6.39406 0.412387 6.64812 0.246465C6.90218 0.0805428 7.19906 -0.0078125 7.5025 -0.0078125C7.80594 -0.0078125 8.10282 0.0805428 8.35688 0.246465C8.61094 0.412387 8.81119 0.648695 8.93318 0.926535C9.05516 1.20438 9.09361 1.51172 9.04382 1.81105C8.99404 2.11038 8.85817 2.38874 8.65281 2.61213C10.2389 2.91839 11.655 3.80204 12.6272 5.09213C11.7304 5.55256 10.9974 6.2785 10.5284 7.17088C10.182 6.69198 9.72685 6.30208 9.20046 6.0332C8.67406 5.76432 8.0914 5.62413 7.50031 5.62413C6.90922 5.62413 6.32656 5.76432 5.80017 6.0332C5.27377 6.30208 4.81866 6.69198 4.47219 7.17088C4.00391 6.27973 3.27238 5.55453 2.37719 5.09401ZM13.4078 12.499L15.0128 5.66276C12.7691 5.90338 11.2522 7.35963 11.2522 9.37401H10.0022C10.0022 8.71097 9.7388 8.07508 9.26995 7.60624C8.80111 7.1374 8.16523 6.87401 7.50219 6.87401C6.83915 6.87401 6.20326 7.1374 5.73442 7.60624C5.26558 8.07508 5.00219 8.71097 5.00219 9.37401H3.75219C3.75219 7.35963 2.23531 5.90338 -0.0078125 5.66276L1.59656 12.499H13.4078ZM1.25219 14.999H13.7522V13.749H1.25219V14.999Z" fill="#7954C6"/>
</g>
<defs>
<clipPath id="clip0_1234_19470">
<rect width="15" height="15" fill="white"/>
</clipPath>
</defs>
</svg>
