<svg width="15" height="15" viewBox="0 0 15 15" fill="none" xmlns="http://www.w3.org/2000/svg">
<g clip-path="url(#clip0_1283_4062)">
<path d="M11.1538 8.88562L8.40812 7.70312C7.8225 7.45125 7.15063 7.45125 6.56563 7.70437L3.8375 8.88562C3.38562 9.08125 3.105 9.50875 3.10437 10.0006C3.10375 10.4925 3.38375 10.9206 3.83438 11.1175L5 11.6262V13.2463C5 13.855 5.35625 14.4125 5.90875 14.6669C6.38938 14.8881 6.92438 15 7.5 15C8.07563 15 8.61063 14.8875 9.0925 14.6669C9.64375 14.4125 10 13.8544 10 13.2463V11.6213L10.625 11.35V13.1256C10.625 13.4712 10.9044 13.7506 11.25 13.7506C11.5956 13.7506 11.875 13.4712 11.875 13.1256C11.875 13.1256 11.875 10.0337 11.875 10.0006C11.875 9.515 11.5994 9.07688 11.1538 8.88625V8.88562ZM7.0625 8.85188C7.3325 8.73438 7.64375 8.73438 7.91375 8.85063L10.6325 9.96125C10.6325 9.97 10.6281 9.97688 10.6275 9.98563L7.91812 11.1625C7.64562 11.2806 7.33313 11.2806 7.06063 11.1613L4.33375 10.0331L7.06187 8.85188H7.0625ZM8.75 13.2456C8.75 13.37 8.68062 13.48 8.56938 13.5312C7.93813 13.8206 7.06125 13.8206 6.43125 13.5312C6.31938 13.48 6.25 13.37 6.25 13.2456V12.1713L6.56125 12.3069C6.85687 12.4356 7.17375 12.5 7.49125 12.5C7.80688 12.5 8.1225 12.4363 8.41687 12.3081L8.75 12.1631V13.2456ZM4.375 2.8125C4.375 3.33 3.955 3.75 3.4375 3.75C2.92 3.75 2.5 3.33 2.5 2.8125C2.5 2.295 2.92 1.875 3.4375 1.875C3.955 1.875 4.375 2.295 4.375 2.8125ZM6.875 2.8125C6.875 3.33 6.455 3.75 5.9375 3.75C5.42 3.75 5 3.33 5 2.8125C5 2.295 5.42 1.875 5.9375 1.875C6.455 1.875 6.875 2.295 6.875 2.8125ZM11.875 0H3.125C1.40188 0 0 1.40188 0 3.125V10.625C0 12.3481 1.40188 13.75 3.125 13.75C3.47 13.75 3.75 13.4706 3.75 13.125C3.75 12.7794 3.47 12.5 3.125 12.5C2.09125 12.5 1.25 11.6587 1.25 10.625V5.625H13.75V10.625C13.75 11.0819 13.5837 11.5225 13.2819 11.8644C13.0538 12.1231 13.0781 12.5181 13.3375 12.7462C13.595 12.9744 13.9906 12.9506 14.2194 12.6906C14.7231 12.1206 15 11.3863 15 10.6244V3.125C15 1.40188 13.5981 0 11.875 0ZM1.25 4.375V3.125C1.25 2.09125 2.09125 1.25 3.125 1.25H11.875C12.9087 1.25 13.75 2.09125 13.75 3.125V4.375H1.25Z" fill="#888888"/>
</g>
<defs>
<clipPath id="clip0_1283_4062">
<rect width="15" height="15" fill="white"/>
</clipPath>
</defs>
</svg>
