<svg width="15" height="15" viewBox="0 0 15 15" fill="none" xmlns="http://www.w3.org/2000/svg">
<g clip-path="url(#clip0_1234_19556)">
<path d="M1.875 3.75C1.875 1.68187 3.55687 0 5.625 0C7.69312 0 9.375 1.68187 9.375 3.75C9.375 5.81812 7.69312 7.5 5.625 7.5C3.55687 7.5 1.875 5.81812 1.875 3.75ZM13.5775 11.6044L14.7281 12.2669L14.1044 13.35L12.9544 12.6875C12.5131 13.185 11.9256 13.5488 11.2506 13.6863V14.9994H10.0006V13.6863C9.32562 13.5488 8.7375 13.185 8.29688 12.6875L7.14688 13.35L6.52313 12.2669L7.67375 11.6044C7.57062 11.2944 7.50125 10.9694 7.50125 10.625C7.50125 10.2806 7.57062 9.95562 7.67375 9.64563L6.52313 8.98312L7.14688 7.9L8.29688 8.5625C8.73812 8.065 9.32562 7.70125 10.0006 7.56375V6.25063H11.2506V7.56375C11.9256 7.70125 12.5137 8.065 12.9544 8.5625L14.1044 7.9L14.7281 8.98312L13.5775 9.64563C13.6806 9.95562 13.75 10.2806 13.75 10.625C13.75 10.9694 13.6806 11.2944 13.5775 11.6044ZM11.5625 10.625C11.5625 10.1081 11.1419 9.6875 10.625 9.6875C10.1081 9.6875 9.6875 10.1081 9.6875 10.625C9.6875 11.1419 10.1081 11.5625 10.625 11.5625C11.1419 11.5625 11.5625 11.1419 11.5625 10.625ZM5 10.625C5 9.96625 5.11875 9.3375 5.32687 8.75H3.125C1.40188 8.75 0 10.1519 0 11.875V15H7.09312C5.8175 13.9688 5 12.3931 5 10.625Z" fill="#555555"/>
</g>
<defs>
<clipPath id="clip0_1234_19556">
<rect width="15" height="15" fill="white"/>
</clipPath>
</defs>
</svg>
