<svg width="20" height="16" viewBox="0 0 20 16" fill="none" xmlns="http://www.w3.org/2000/svg">
<path d="M15.8333 0H4.16667C3.062 0.00137222 2.00296 0.457058 1.22185 1.2671C0.440735 2.07715 0.00132321 3.17541 0 4.32099L0 11.2346C0.00132321 12.3801 0.440735 13.4784 1.22185 14.2885C2.00296 15.0985 3.062 15.5542 4.16667 15.5556H15.8333C16.938 15.5542 17.997 15.0985 18.7782 14.2885C19.5593 13.4784 19.9987 12.3801 20 11.2346V4.32099C19.9987 3.17541 19.5593 2.07715 18.7782 1.2671C17.997 0.457058 16.938 0.00137222 15.8333 0ZM4.16667 1.7284H15.8333C16.4964 1.7284 17.1323 2.00154 17.6011 2.48775C18.0699 2.97395 18.3333 3.63339 18.3333 4.32099H1.66667C1.66667 3.63339 1.93006 2.97395 2.3989 2.48775C2.86774 2.00154 3.50363 1.7284 4.16667 1.7284ZM15.8333 13.8272H4.16667C3.50363 13.8272 2.86774 13.554 2.3989 13.0678C1.93006 12.5816 1.66667 11.9222 1.66667 11.2346V6.04938H18.3333V11.2346C18.3333 11.9222 18.0699 12.5816 17.6011 13.0678C17.1323 13.554 16.4964 13.8272 15.8333 13.8272Z" fill="white"/>
</svg>
