<svg width="20" height="20" viewBox="0 0 20 20" fill="none" xmlns="http://www.w3.org/2000/svg">
<path d="M3 8H17M3 8V15.3335C3 16.2669 3 16.7334 3.17743 17.0899C3.3335 17.4035 3.58236 17.6587 3.88867 17.8185C4.23656 18 4.6922 18 5.60214 18H14.3979C15.3078 18 15.7628 18 16.1107 17.8185C16.417 17.6587 16.6667 17.4035 16.8227 17.0899C17 16.7337 17 16.2679 17 15.3363V8M3 8V7.3335C3 6.40008 3 5.93302 3.17743 5.5765C3.3335 5.26289 3.58236 5.00811 3.88867 4.84832C4.2369 4.66667 4.6931 4.66667 5.60481 4.66667H6.25581M17 8V7.33076C17 6.39916 17 5.93267 16.8227 5.5765C16.6667 5.26289 16.417 5.00811 16.1107 4.84832C15.7624 4.66667 15.3072 4.66667 14.3955 4.66667H13.7442M13.7442 3V4.66667M13.7442 4.66667H6.25581M6.25581 3V4.66667" stroke="#333333" stroke-width="1.6" stroke-linecap="round" stroke-linejoin="round"/>
<path d="M12.818 10.7766C12.818 10.5171 12.818 10.3873 12.8685 10.2882C12.9129 10.201 12.9838 10.1301 13.071 10.0857C13.1701 10.0352 13.2999 10.0352 13.5594 10.0352H13.9301C14.1897 10.0352 14.3195 10.0352 14.4186 10.0857C14.5058 10.1301 14.5767 10.201 14.6211 10.2882C14.6716 10.3873 14.6716 10.5171 14.6716 10.7766V11.1474C14.6716 11.4069 14.6716 11.5367 14.6211 11.6358C14.5767 11.723 14.5058 11.7939 14.4186 11.8383C14.3195 11.8888 14.1897 11.8888 13.9301 11.8888H13.5594C13.2999 11.8888 13.1701 11.8888 13.071 11.8383C12.9838 11.7939 12.9129 11.723 12.8685 11.6358C12.818 11.5367 12.818 11.4069 12.818 11.1474V10.7766Z" fill="#333333"/>
<path d="M9.11064 14.4839C9.11064 14.2244 9.11064 14.0946 9.16115 13.9955C9.20558 13.9083 9.27647 13.8374 9.36367 13.793C9.4628 13.7425 9.59256 13.7425 9.8521 13.7425H10.2228C10.4824 13.7425 10.6121 13.7425 10.7113 13.793C10.7985 13.8374 10.8694 13.9083 10.9138 13.9955C10.9643 14.0946 10.9643 14.2244 10.9643 14.4839V14.8547C10.9643 15.1142 10.9643 15.244 10.9138 15.3431C10.8694 15.4303 10.7985 15.5012 10.7113 15.5456C10.6121 15.5961 10.4824 15.5961 10.2228 15.5961H9.8521C9.59256 15.5961 9.4628 15.5961 9.36367 15.5456C9.27647 15.5012 9.20558 15.4303 9.16115 15.3431C9.11064 15.244 9.11064 15.1142 9.11064 14.8547V14.4839Z" fill="#333333"/>
<path d="M9.11064 10.7766C9.11064 10.5171 9.11064 10.3873 9.16115 10.2882C9.20558 10.201 9.27647 10.1301 9.36367 10.0857C9.4628 10.0352 9.59256 10.0352 9.8521 10.0352H10.2228C10.4824 10.0352 10.6121 10.0352 10.7113 10.0857C10.7985 10.1301 10.8694 10.201 10.9138 10.2882C10.9643 10.3873 10.9643 10.5171 10.9643 10.7766V11.1474C10.9643 11.4069 10.9643 11.5367 10.9138 11.6358C10.8694 11.723 10.7985 11.7939 10.7113 11.8383C10.6121 11.8888 10.4824 11.8888 10.2228 11.8888H9.8521C9.59256 11.8888 9.4628 11.8888 9.36367 11.8383C9.27647 11.7939 9.20558 11.723 9.16115 11.6358C9.11064 11.5367 9.11064 11.4069 9.11064 11.1474V10.7766Z" fill="#333333"/>
<path d="M5.40332 14.4839C5.40332 14.2244 5.40332 14.0946 5.45383 13.9955C5.49826 13.9083 5.56915 13.8374 5.65635 13.793C5.75548 13.7425 5.88525 13.7425 6.14478 13.7425H6.51552C6.77505 13.7425 6.90482 13.7425 7.00395 13.793C7.09115 13.8374 7.16204 13.9083 7.20647 13.9955C7.25698 14.0946 7.25698 14.2244 7.25698 14.4839V14.8547C7.25698 15.1142 7.25698 15.244 7.20647 15.3431C7.16204 15.4303 7.09115 15.5012 7.00395 15.5456C6.90482 15.5961 6.77505 15.5961 6.51552 15.5961H6.14478C5.88525 15.5961 5.75548 15.5961 5.65635 15.5456C5.56915 15.5012 5.49826 15.4303 5.45383 15.3431C5.40332 15.244 5.40332 15.1142 5.40332 14.8547V14.4839Z" fill="#333333"/>
<path d="M5.40332 10.7766C5.40332 10.5171 5.40332 10.3873 5.45383 10.2882C5.49826 10.201 5.56915 10.1301 5.65635 10.0857C5.75548 10.0352 5.88525 10.0352 6.14478 10.0352H6.51552C6.77505 10.0352 6.90482 10.0352 7.00395 10.0857C7.09115 10.1301 7.16204 10.201 7.20647 10.2882C7.25698 10.3873 7.25698 10.5171 7.25698 10.7766V11.1474C7.25698 11.4069 7.25698 11.5367 7.20647 11.6358C7.16204 11.723 7.09115 11.7939 7.00395 11.8383C6.90482 11.8888 6.77505 11.8888 6.51552 11.8888H6.14478C5.88525 11.8888 5.75548 11.8888 5.65635 11.8383C5.56915 11.7939 5.49826 11.723 5.45383 11.6358C5.40332 11.5367 5.40332 11.4069 5.40332 11.1474V10.7766Z" fill="#333333"/>
</svg>
