<svg width="15" height="15" viewBox="0 0 15 15" fill="none" xmlns="http://www.w3.org/2000/svg">
<g clip-path="url(#clip0_1234_19390)">
<path d="M13.125 3.75H11.25C11.25 2.75544 10.8549 1.80161 10.1517 1.09835C9.44839 0.395088 8.49456 0 7.5 0C6.50544 0 5.55161 0.395088 4.84835 1.09835C4.14509 1.80161 3.75 2.75544 3.75 3.75H1.875C1.37772 3.75 0.900805 3.94754 0.549175 4.29917C0.197544 4.65081 0 5.12772 0 5.625L0 11.875C0.000992411 12.7035 0.330551 13.4978 0.916387 14.0836C1.50222 14.6694 2.2965 14.999 3.125 15H11.875C12.7035 14.999 13.4978 14.6694 14.0836 14.0836C14.6694 13.4978 14.999 12.7035 15 11.875V5.625C15 5.12772 14.8025 4.65081 14.4508 4.29917C14.0992 3.94754 13.6223 3.75 13.125 3.75ZM7.5 1.25C8.16304 1.25 8.79893 1.51339 9.26777 1.98223C9.73661 2.45107 10 3.08696 10 3.75H5C5 3.08696 5.26339 2.45107 5.73223 1.98223C6.20107 1.51339 6.83696 1.25 7.5 1.25ZM13.75 11.875C13.75 12.3723 13.5525 12.8492 13.2008 13.2008C12.8492 13.5525 12.3723 13.75 11.875 13.75H3.125C2.62772 13.75 2.15081 13.5525 1.79917 13.2008C1.44754 12.8492 1.25 12.3723 1.25 11.875V5.625C1.25 5.45924 1.31585 5.30027 1.43306 5.18306C1.55027 5.06585 1.70924 5 1.875 5H3.75V6.25C3.75 6.41576 3.81585 6.57473 3.93306 6.69194C4.05027 6.80915 4.20924 6.875 4.375 6.875C4.54076 6.875 4.69973 6.80915 4.81694 6.69194C4.93415 6.57473 5 6.41576 5 6.25V5H10V6.25C10 6.41576 10.0658 6.57473 10.1831 6.69194C10.3003 6.80915 10.4592 6.875 10.625 6.875C10.7908 6.875 10.9497 6.80915 11.0669 6.69194C11.1842 6.57473 11.25 6.41576 11.25 6.25V5H13.125C13.2908 5 13.4497 5.06585 13.5669 5.18306C13.6842 5.30027 13.75 5.45924 13.75 5.625V11.875Z" fill="#888888"/>
</g>
<defs>
<clipPath id="clip0_1234_19390">
<rect width="15" height="15" fill="white"/>
</clipPath>
</defs>
</svg>
