<svg width="15" height="14" viewBox="0 0 15 14" fill="none" xmlns="http://www.w3.org/2000/svg">
<mask id="mask0_1349_8907" style="mask-type:luminance" maskUnits="userSpaceOnUse" x="0" y="0" width="15" height="14">
<path d="M14.9342 0H0V13.5768H14.9342V0Z" fill="white"/>
</mask>
<g mask="url(#mask0_1349_8907)">
<path d="M8.44531 6.78879L9.90147 8.62773L11.8597 10.0101L12.2016 6.80129L11.8597 3.66406L9.86399 4.87829L8.44531 6.78992V6.78879Z" fill="#00832D"/>
<path d="M0 9.7141V12.4481C0 13.0728 0.457747 13.5794 1.02454 13.5794H3.49956L4.01183 11.5133L3.49956 9.7141L1.80146 9.14844L0.00113523 9.7141H0Z" fill="#0066DA"/>
<path d="M3.49843 0L0 3.8653L1.80033 4.43096L3.49843 3.8653L4.00161 2.0911L3.49843 0Z" fill="#E94235"/>
<path d="M3.49843 3.85938H0V9.70448H3.49843V3.85938Z" fill="#2684FC"/>
<path d="M14.092 1.63638L11.8566 3.6616V10.0087L14.1022 12.0431C14.4384 12.3338 14.9302 12.068 14.9302 11.5967V2.07481C14.9302 1.59662 14.427 1.33424 14.092 1.63751V1.63638ZM8.44223 6.78747V9.71002H3.49219V13.5753H10.8309C11.3966 13.5753 11.8555 13.0687 11.8555 12.444V10.0076L8.44223 6.78747Z" fill="#00AC47"/>
<path d="M10.8309 0.00113696H3.49219V3.86644H8.44223V6.78899L11.8555 3.66426V1.1313C11.8555 0.506586 11.3977 0 10.8309 0V0.00113696Z" fill="#FFBA00"/>
</g>
</svg>
