<svg width="15" height="15" viewBox="0 0 15 15" fill="none" xmlns="http://www.w3.org/2000/svg">
<mask id="mask0_1234_19374" style="mask-type:luminance" maskUnits="userSpaceOnUse" x="0" y="0" width="15" height="15">
<path d="M15 0H0V15H15V0Z" fill="white"/>
</mask>
<g mask="url(#mask0_1234_19374)">
<path d="M7.5 6.125V9.03026H11.5381C11.3605 9.96578 10.8276 10.7553 10.0303 11.2882L12.4658 13.175C13.8829 11.8645 14.7039 9.94211 14.7039 7.66053C14.7039 7.12764 14.6566 6.61842 14.5658 6.125H7.50395H7.5Z" fill="#4285F4"/>
<path d="M3.2955 8.92188L2.74681 9.3403L0.804688 10.8521C2.04021 13.2995 4.56654 14.989 7.49943 14.989C9.52443 14.989 11.2218 14.3219 12.4613 13.1771L10.0258 11.2903C9.35865 11.7403 8.50601 12.0126 7.49548 12.0126C5.54548 12.0126 3.88761 10.6982 3.2955 8.92583V8.92188Z" fill="#34A853"/>
<path d="M0.805254 4.13281C0.292097 5.14334 0 6.28019 0 7.49598C0 8.71177 0.292097 9.84859 0.805254 10.8591C0.805254 10.867 3.29999 8.92097 3.29999 8.92097C3.14999 8.47097 3.06316 7.99335 3.06316 7.49598C3.06316 6.99861 3.14999 6.52096 3.29999 6.07096L0.805254 4.13281Z" fill="#FBBC05"/>
<path d="M7.49943 2.98035C8.6047 2.98035 9.5876 3.36323 10.3692 4.09744L12.5165 1.95007C11.2139 0.738225 9.52443 -0.0078125 7.49943 -0.0078125C4.56654 -0.0078125 2.03627 1.67771 0.804688 4.12902L3.29943 6.06719C3.89153 4.29483 5.54943 2.98035 7.49943 2.98035Z" fill="#EA4335"/>
</g>
</svg>
