<svg width="15" height="15" viewBox="0 0 15 15" fill="none" xmlns="http://www.w3.org/2000/svg">
<g clip-path="url(#clip0_1234_19536)">
<path d="M10.625 6.25C8.2125 6.25 6.25 8.2125 6.25 10.625C6.25 13.0375 8.2125 15 10.625 15C13.0375 15 15 13.0375 15 10.625C15 8.2125 13.0375 6.25 10.625 6.25ZM10.625 13.75C8.9 13.75 7.5 12.35 7.5 10.625C7.5 8.9 8.9 7.5 10.625 7.5C12.35 7.5 13.75 8.9 13.75 10.625C13.75 12.35 12.35 13.75 10.625 13.75ZM11.5625 9.0625C11.5625 9.58125 11.1438 10 10.625 10C10.1062 10 9.6875 9.58125 9.6875 9.0625C9.6875 8.54375 10.1062 8.125 10.625 8.125C11.1438 8.125 11.5625 8.54375 11.5625 9.0625ZM11.25 11.25V12.5C11.25 12.8438 10.9688 13.125 10.625 13.125C10.2812 13.125 10 12.8438 10 12.5V11.25C10 10.9062 10.2812 10.625 10.625 10.625C10.9688 10.625 11.25 10.9062 11.25 11.25ZM5.625 13.125C5.625 13.4688 5.34375 13.75 5 13.75H3.125C1.4 13.75 0 12.35 0 10.625V3.125C0 1.4 1.4 0 3.125 0H6.725C7.38125 0 8.025 0.26875 8.49375 0.73125L10.5188 2.75625C10.9375 3.175 11.1937 3.73125 11.2437 4.31875C11.2688 4.6625 11.0125 4.9625 10.6687 4.99375C10.65 4.99375 10.6375 4.99375 10.6187 4.99375C10.2937 4.99375 10.025 4.74375 9.99375 4.41875C9.99375 4.4 9.99375 4.3875 9.99375 4.36875H8.13125C7.44375 4.36875 6.88125 3.80625 6.88125 3.11875V1.2625C6.83125 1.2625 6.78125 1.25 6.73125 1.25H3.125C2.09375 1.25 1.25 2.09375 1.25 3.125V10.625C1.25 11.6562 2.09375 12.5 3.125 12.5H5C5.34375 12.5 5.625 12.7812 5.625 13.125Z" fill="#555555"/>
</g>
<defs>
<clipPath id="clip0_1234_19536">
<rect width="15" height="15" fill="white"/>
</clipPath>
</defs>
</svg>
