<svg width="15" height="15" viewBox="0 0 15 15" fill="none" xmlns="http://www.w3.org/2000/svg">
<path d="M14.3672 3.40997C14.3497 3.29935 14.1722 2.3056 13.4522 1.57997C12.7291 0.872473 11.7316 0.697473 11.6203 0.679973C11.4722 0.655598 11.3209 0.686848 11.1941 0.765598C11.1497 0.793098 10.4978 1.20122 9.21094 2.28935C9.87281 2.5231 10.7284 2.92872 11.4222 3.60747C12.1184 4.28872 12.5347 5.12685 12.7734 5.77685C13.8484 4.5206 14.2528 3.88435 14.2797 3.8406C14.3597 3.71247 14.3909 3.55935 14.3672 3.40997Z" fill="#555555"/>
<path d="M8.0943 3.26562C7.42367 3.87062 6.64305 4.60562 5.7493 5.49312C1.95992 9.25562 0.966172 10.76 0.925547 10.8219C0.868672 10.9094 0.834297 11.01 0.826172 11.1137L0.626797 13.6581C0.613047 13.8406 0.678672 14.0194 0.808047 14.1487C0.925547 14.2662 1.08492 14.3319 1.25055 14.3319C1.26617 14.3319 1.28242 14.3319 1.29867 14.33L3.8618 14.1325C3.96492 14.1244 4.0643 14.0912 4.15117 14.0356C4.21367 13.9956 5.72805 13.0087 9.5168 9.24687C10.4305 8.33937 11.1843 7.54937 11.8012 6.87375C11.7068 6.46812 11.3774 5.31062 10.548 4.5C9.7068 3.67687 8.4968 3.35437 8.0943 3.26562Z" fill="#555555"/>
</svg>
