<svg width="15" height="15" viewBox="0 0 15 15" fill="none" xmlns="http://www.w3.org/2000/svg">
<g clip-path="url(#clip0_1234_19462)">
<path d="M14.2241 6.39844L11.1303 3.30469L10.2472 4.19094L12.9347 6.87844H4.13281V8.12844H12.9347L10.2472 10.8159L11.1309 11.6997L14.2247 8.60594C14.3698 8.46084 14.485 8.28857 14.5635 8.09898C14.6421 7.90938 14.6825 7.70616 14.6825 7.50094C14.6825 7.29571 14.6421 7.0925 14.5635 6.9029C14.485 6.7133 14.3698 6.54103 14.2247 6.39594L14.2241 6.39844Z" fill="#888888"/>
<path d="M6.5475 13.125C6.5475 13.2908 6.48165 13.4497 6.36444 13.5669C6.24723 13.6842 6.08826 13.75 5.9225 13.75H1.875C1.70924 13.75 1.55027 13.6842 1.43306 13.5669C1.31585 13.4497 1.25 13.2908 1.25 13.125V1.875C1.25 1.70924 1.31585 1.55027 1.43306 1.43306C1.55027 1.31585 1.70924 1.25 1.875 1.25H5.9225C6.08826 1.25 6.24723 1.31585 6.36444 1.43306C6.48165 1.55027 6.5475 1.70924 6.5475 1.875V5.20813H7.7975V1.875C7.7975 1.37772 7.59996 0.900805 7.24833 0.549175C6.89669 0.197544 6.41978 0 5.9225 0L1.875 0C1.37772 0 0.900805 0.197544 0.549175 0.549175C0.197544 0.900805 0 1.37772 0 1.875L0 13.125C0 13.6223 0.197544 14.0992 0.549175 14.4508C0.900805 14.8025 1.37772 15 1.875 15H5.9225C6.41978 15 6.89669 14.8025 7.24833 14.4508C7.59996 14.0992 7.7975 13.6223 7.7975 13.125V9.79187H6.5475V13.125Z" fill="#888888"/>
</g>
<defs>
<clipPath id="clip0_1234_19462">
<rect width="15" height="15" fill="white"/>
</clipPath>
</defs>
</svg>
