<svg width="15" height="15" viewBox="0 0 15 15" fill="none" xmlns="http://www.w3.org/2000/svg">
<path d="M13.0856 2.575C12.9831 1.76312 12.3525 1.10188 11.5519 0.96625C8.85999 0.51125 6.13186 0.51125 3.43999 0.96625C2.63936 1.10125 2.00874 1.76313 1.90624 2.57563C1.50561 5.77938 1.48999 9.0275 1.86061 12.23C1.90874 12.6475 2.13374 13.0319 2.47561 13.2825C2.72624 13.4669 2.97499 13.6519 3.22124 13.8356C3.70686 14.1988 4.35874 14.2406 4.87999 13.9431C5.09624 13.82 5.31561 13.6919 5.53749 13.5594C5.63624 13.4994 5.76186 13.5031 5.85749 13.5688L6.63624 14.1075C6.89624 14.2869 7.19436 14.3763 7.49124 14.3763C7.78811 14.3763 8.08624 14.2869 8.34499 14.1081L9.12561 13.5688C9.21936 13.5038 9.34374 13.5 9.44436 13.5594C9.66811 13.6925 9.88936 13.8212 10.1069 13.945C10.6287 14.2419 11.2787 14.1994 11.7637 13.8381C12.0119 13.6531 12.2625 13.4675 12.5137 13.2825C12.8575 13.0313 13.0825 12.6469 13.1306 12.2281C13.5012 9.02625 13.485 5.77875 13.085 2.575H13.0856ZM11.89 12.085C11.8812 12.1575 11.8394 12.2281 11.7756 12.2744C11.5206 12.4619 11.2681 12.6494 11.0169 12.8356C10.9294 12.9013 10.8156 12.9094 10.725 12.8588C10.5144 12.7388 10.3006 12.6144 10.085 12.4856C9.56436 12.1756 8.90811 12.1975 8.41249 12.5425L7.63624 13.0794C7.54624 13.1412 7.43561 13.1412 7.34561 13.0794L6.57061 12.5431C6.07499 12.1988 5.41749 12.1763 4.89624 12.4869C4.68249 12.615 4.46999 12.7387 4.26124 12.8581C4.17061 12.9094 4.05624 12.9 3.96811 12.8344C3.71936 12.6488 3.46811 12.4619 3.21499 12.275C3.15186 12.2294 3.10999 12.1588 3.10124 12.0863C2.74311 8.98313 2.75749 5.83562 3.14561 2.73125C3.17999 2.46187 3.38624 2.24312 3.64811 2.19875C6.20061 1.76812 8.78999 1.76812 11.3425 2.19875C11.6044 2.24312 11.8106 2.46187 11.845 2.73062C12.2331 5.835 12.2481 8.9825 11.8894 12.085H11.89Z" fill="#555555"/>
<path d="M9.6875 3.63281H5.3125C4.96688 3.63281 4.6875 3.91281 4.6875 4.25781C4.6875 4.60281 4.96688 4.88281 5.3125 4.88281H9.6875C10.0331 4.88281 10.3125 4.60281 10.3125 4.25781C10.3125 3.91281 10.0331 3.63281 9.6875 3.63281Z" fill="#555555"/>
<path d="M9.6875 6.25H5.3125C4.96688 6.25 4.6875 6.53 4.6875 6.875C4.6875 7.22 4.96688 7.5 5.3125 7.5H9.6875C10.0331 7.5 10.3125 7.22 10.3125 6.875C10.3125 6.53 10.0331 6.25 9.6875 6.25Z" fill="#555555"/>
<path d="M7.59938 8.85938H5.3125C4.96688 8.85938 4.6875 9.13938 4.6875 9.48438C4.6875 9.82937 4.96688 10.1094 5.3125 10.1094H7.59938C7.945 10.1094 8.22438 9.82937 8.22438 9.48438C8.22438 9.13938 7.945 8.85938 7.59938 8.85938Z" fill="#555555"/>
</svg>
