<svg width="20" height="20" viewBox="0 0 20 20" fill="none" xmlns="http://www.w3.org/2000/svg">
<g clip-path="url(#clip0_1283_14250)">
<path d="M19.3851 13.5034L17.2184 5.69423C16.7558 4.02375 15.7477 2.55602 14.3545 1.52464C12.9614 0.493259 11.2633 -0.042498 9.53051 0.00263503C7.79772 0.0477681 6.12983 0.671198 4.79227 1.7737C3.45471 2.87621 2.52436 4.39443 2.14928 6.08673L0.473448 13.6284C0.392359 13.9938 0.394337 14.3727 0.479236 14.7372C0.564136 15.1017 0.72979 15.4425 0.963977 15.7344C1.19816 16.0263 1.49491 16.262 1.83232 16.4239C2.16973 16.5859 2.53919 16.67 2.91345 16.6701H5.91928C6.11054 17.612 6.62156 18.4588 7.36573 19.067C8.10991 19.6753 9.04148 20.0076 10.0026 20.0076C10.9637 20.0076 11.8953 19.6753 12.6395 19.067C13.3837 18.4588 13.8947 17.612 14.0859 16.6701H16.9776C17.3627 16.6699 17.7425 16.5808 18.0875 16.4096C18.4325 16.2385 18.7333 15.99 18.9664 15.6834C19.1995 15.3769 19.3586 15.0207 19.4314 14.6425C19.5042 14.2644 19.4878 13.8745 19.3851 13.5034ZM10.0026 18.3367C9.4874 18.3346 8.98542 18.1733 8.56537 17.875C8.14531 17.5767 7.82768 17.1558 7.65595 16.6701H12.3493C12.1775 17.1558 11.8599 17.5767 11.4399 17.875C11.0198 18.1733 10.5178 18.3346 10.0026 18.3367ZM17.6401 14.6742C17.5624 14.7773 17.4616 14.8608 17.3458 14.9179C17.2301 14.9751 17.1025 15.0043 16.9734 15.0034H2.91345C2.78867 15.0034 2.66548 14.9753 2.55299 14.9213C2.44049 14.8673 2.34156 14.7888 2.26349 14.6914C2.18543 14.5941 2.13022 14.4804 2.10194 14.3589C2.07366 14.2374 2.07304 14.111 2.10011 13.9892L3.77595 6.44757C4.07124 5.1194 4.80204 3.92807 5.85216 3.06294C6.90229 2.19781 8.21147 1.70854 9.57159 1.67291C10.9317 1.63728 12.2647 2.05733 13.3587 2.86629C14.4527 3.67525 15.2449 4.82669 15.6093 6.13757L17.7759 13.9467C17.8113 14.0702 17.8175 14.2002 17.7939 14.3265C17.7703 14.4528 17.7177 14.5718 17.6401 14.6742Z" fill="#888888"/>
</g>
<defs>
<clipPath id="clip0_1283_14250">
<rect width="20" height="20" fill="white"/>
</clipPath>
</defs>
</svg>
