<svg width="15" height="15" viewBox="0 0 15 15" fill="none" xmlns="http://www.w3.org/2000/svg">
<path d="M13.8816 2.28008L13.7605 2.15533C13.0372 1.41056 12.0752 1 11.0518 1C10.0283 1 9.06636 1.41056 8.34308 2.15533L7.50136 3.02206L6.65964 2.15533C5.93635 1.41056 4.97439 1 3.95094 1C2.9275 1 1.96553 1.41056 1.24225 2.15533L1.12019 2.28008C-0.373395 3.81803 -0.373395 6.32047 1.12019 7.85842L6.78983 13.6965C6.98602 13.8985 7.24279 14 7.50046 14C7.75813 14 8.01399 13.8995 8.21018 13.6965L13.8798 7.85842C15.3734 6.32047 15.3734 3.81803 13.8798 2.28008H13.8816Z" fill="#FC5758"/>
</svg>
