<svg width="18" height="18" viewBox="0 0 18 18" fill="none" xmlns="http://www.w3.org/2000/svg">
<path d="M18 9C18 13.9627 13.9627 18 9 18C4.03734 18 0 13.9627 0 9C0 4.03734 4.03734 0 9 0C13.9627 0 18 4.03734 18 9ZM16.4999 9C16.4999 4.86457 13.1354 1.50012 9 1.50012C4.86457 1.50012 1.50012 4.86457 1.50012 9C1.50012 13.1354 4.86457 16.4999 9 16.4999C13.1354 16.4999 16.4999 13.1354 16.4999 9ZM11.4884 7.86832L8.89102 5.96391C8.28422 5.51953 7.43238 5.65137 6.98801 6.25816C6.8175 6.49125 6.72504 6.7725 6.72504 7.06148V10.8724C6.72398 11.6234 7.33184 12.2333 8.08277 12.2344C8.37352 12.2347 8.65687 12.1419 8.89102 11.9696L11.4884 10.0652C12.0945 9.62051 12.2252 8.76832 11.7805 8.16187C11.6986 8.05008 11.6002 7.95164 11.4884 7.86973V7.86832Z" fill="white"/>
</svg>
