<svg width="14" height="12" viewBox="0 0 14 12" fill="none" xmlns="http://www.w3.org/2000/svg">
<path d="M9.40265 7.56144L2.57284 7.56144L5.94347 10.9308L4.87265 12L0.221571 7.35274C0.0796994 7.21094 4.35483e-07 7.01865 4.53012e-07 6.81815C4.7054e-07 6.61764 0.0796995 6.42535 0.221571 6.28355L4.87265 1.63629L5.94348 2.70548L2.5963 6.04915L9.40265 6.04915C10.2127 6.0558 10.9924 5.74108 11.5705 5.17405C12.1487 4.60702 12.4781 3.83399 12.4865 3.02457L12.4865 1.37927e-07L14 2.70244e-07L14 3.02457C13.991 4.23488 13.5019 5.39222 12.6401 6.24272C11.7782 7.09323 10.614 7.56748 9.40265 7.56144Z" fill="#888888"/>
</svg>
