<svg width="15" height="15" viewBox="0 0 15 15" fill="none" xmlns="http://www.w3.org/2000/svg">
<g clip-path="url(#clip0_1234_19386)">
<path d="M15 6.18219V6.56594C15 7.08406 14.58 7.50344 14.0625 7.50344C13.545 7.50344 13.125 7.08406 13.125 6.56594V6.18219C13.125 5.66156 12.8675 5.17781 12.4363 4.88719L8.37375 2.14531C7.8425 1.78719 7.15688 1.78719 6.62562 2.14531L2.56375 4.88656C2.13313 5.17781 1.875 5.66156 1.875 6.18219V11.5659C1.875 12.4272 2.57562 13.1284 3.4375 13.1284H5.3125C5.83 13.1284 6.25 13.5478 6.25 14.0659C6.25 14.5841 5.83 15.0034 5.3125 15.0034H3.4375C1.5425 15.0034 0 13.4616 0 11.5659V6.18219C0 5.03781 0.56625 3.97219 1.515 3.33219L5.5775 0.591562C6.74563 -0.197188 8.25438 -0.197188 9.4225 0.591562L13.485 3.33281C14.4338 3.97219 15 5.03781 15 6.18219ZM14.425 10.5028L14.0106 10.7422C14.0413 10.9084 14.0625 11.0784 14.0625 11.2534C14.0625 11.4284 14.0419 11.5984 14.0106 11.7647L14.425 12.0041C14.8737 12.2628 15.0269 12.8366 14.7681 13.2847C14.595 13.5853 14.2794 13.7534 13.9556 13.7534C13.7963 13.7534 13.635 13.7128 13.4875 13.6272L13.065 13.3834C12.8069 13.6034 12.5125 13.7766 12.1875 13.8928V14.3778C12.1875 14.8959 11.7675 15.3153 11.25 15.3153C10.7325 15.3153 10.3125 14.8959 10.3125 14.3778V13.8928C9.98687 13.7766 9.6925 13.6034 9.435 13.3834L9.0125 13.6272C8.865 13.7128 8.70375 13.7534 8.54437 13.7534C8.22062 13.7534 7.90563 13.5853 7.73188 13.2847C7.47312 12.8366 7.62625 12.2628 8.075 12.0041L8.48938 11.7647C8.45875 11.5984 8.4375 11.4284 8.4375 11.2534C8.4375 11.0784 8.45813 10.9084 8.48938 10.7422L8.075 10.5028C7.62625 10.2441 7.47312 9.67031 7.73188 9.22219C7.99063 8.77281 8.56437 8.62031 9.0125 8.87906L9.435 9.12281C9.69312 8.90281 9.9875 8.72969 10.3125 8.61344V8.12844C10.3125 7.61031 10.7325 7.19094 11.25 7.19094C11.7675 7.19094 12.1875 7.61031 12.1875 8.12844V8.61344C12.5131 8.72969 12.8075 8.90281 13.065 9.12281L13.4875 8.87906C13.935 8.62031 14.5094 8.77281 14.7681 9.22219C15.0269 9.67031 14.8737 10.2441 14.425 10.5028ZM12.1875 11.2534C12.1875 10.7366 11.7669 10.3159 11.25 10.3159C10.7331 10.3159 10.3125 10.7366 10.3125 11.2534C10.3125 11.7703 10.7331 12.1909 11.25 12.1909C11.7669 12.1909 12.1875 11.7703 12.1875 11.2534Z" fill="#888888"/>
</g>
<defs>
<clipPath id="clip0_1234_19386">
<rect width="15" height="15" fill="white"/>
</clipPath>
</defs>
</svg>
