<svg width="20" height="20" viewBox="0 0 20 20" fill="none" xmlns="http://www.w3.org/2000/svg">
<g clip-path="url(#clip0_1283_2101)">
<path d="M10.0005 8.33125C10.9172 8.33125 11.6672 9.08125 11.6672 9.99792C11.6672 10.9146 10.9172 11.6646 10.0005 11.6646C9.08385 11.6646 8.33385 10.9146 8.33385 9.99792C8.33385 9.08125 9.08385 8.33125 10.0005 8.33125ZM17.0755 17.0729C20.9755 13.1729 20.9755 6.83125 17.0755 2.93125C16.7505 2.60625 16.2255 2.60625 15.9005 2.93125C15.5755 3.25625 15.5755 3.78125 15.9005 4.10625C19.1505 7.35625 19.1505 12.6396 15.9005 15.8896C15.5755 16.2146 15.5755 16.7396 15.9005 17.0646C16.0672 17.2312 16.2755 17.3063 16.4922 17.3063C16.7089 17.3063 16.9172 17.2229 17.0839 17.0646L17.0755 17.0729ZM14.1255 14.1229C15.2255 13.0229 15.8339 11.5563 15.8339 9.99792C15.8339 8.43958 15.2255 6.97292 14.1255 5.87292C13.8005 5.54792 13.2755 5.54792 12.9505 5.87292C12.6255 6.19792 12.6255 6.72292 12.9505 7.04792C13.7339 7.83125 14.1672 8.88125 14.1672 9.99792C14.1672 11.1146 13.7339 12.1562 12.9505 12.9479C12.6255 13.2729 12.6255 13.7979 12.9505 14.1229C13.1172 14.2896 13.3255 14.3646 13.5422 14.3646C13.7589 14.3646 13.9672 14.2813 14.1339 14.1229H14.1255ZM4.10885 17.0729C4.43385 16.7479 4.43385 16.2229 4.10885 15.8979C0.858855 12.6479 0.858855 7.36458 4.10885 4.11458C4.43385 3.78958 4.43385 3.26458 4.10885 2.93958C3.78385 2.61458 3.25885 2.61458 2.93385 2.93958C-0.966145 6.82292 -0.966145 13.1729 2.92552 17.0729C3.09219 17.2396 3.30052 17.3146 3.51719 17.3146C3.73385 17.3146 3.94219 17.2312 4.10885 17.0729ZM7.05886 14.1229C7.38385 13.7979 7.38385 13.2729 7.05886 12.9479C5.43386 11.3229 5.43386 8.68125 7.05886 7.05625C7.38385 6.73125 7.38385 6.20625 7.05886 5.88125C6.73386 5.55625 6.20885 5.55625 5.88385 5.88125C3.60885 8.15625 3.60885 11.8562 5.88385 14.1312C6.05052 14.2979 6.25885 14.3729 6.47552 14.3729C6.69219 14.3729 6.90052 14.2896 7.06719 14.1312L7.05886 14.1229Z" fill="white"/>
</g>
<defs>
<clipPath id="clip0_1283_2101">
<rect width="20" height="20" fill="white"/>
</clipPath>
</defs>
</svg>
