<svg width="17" height="18" viewBox="0 0 17 18" fill="none" xmlns="http://www.w3.org/2000/svg">
<path d="M13.9136 11.7232C13.0017 11.7232 12.186 12.1269 11.6203 12.7663L6.07999 9.74636C6.13769 9.50601 6.17163 9.25645 6.17163 8.99885C6.17163 8.74125 6.13769 8.49054 6.07999 8.25134L11.6203 5.23141C12.1849 5.87081 13.0017 6.27447 13.9136 6.27447C15.6186 6.27447 17 4.8703 17 3.13723C17 1.40417 15.6186 0 13.9136 0C12.2086 0 10.8272 1.40417 10.8272 3.13723C10.8272 3.39024 10.86 3.63404 10.9155 3.86979L5.36836 6.89318C4.8038 6.26182 3.99147 5.86277 3.08637 5.86277C1.38139 5.86277 0 7.26693 0 9C0 10.7331 1.38139 12.1372 3.08637 12.1372C3.9926 12.1372 4.8038 11.7382 5.36836 11.1068L10.9155 14.1302C10.86 14.366 10.8272 14.6098 10.8272 14.8628C10.8272 16.5958 12.2086 18 13.9136 18C15.6186 18 17 16.5958 17 14.8628C17 13.1297 15.6186 11.7255 13.9136 11.7255V11.7232Z" fill="#7954C6"/>
</svg>
