<svg width="15" height="15" viewBox="0 0 15 15" fill="none" xmlns="http://www.w3.org/2000/svg">
<path d="M13.501 1C13.8981 1.00001 14.2818 1.17056 14.5625 1.47461C14.8431 1.77863 15 2.19401 15 2.62402V5.87598C14.6031 5.87606 14.2201 6.04674 13.9395 6.35059C13.6588 6.65461 13.501 7.06992 13.501 7.5C13.501 7.93013 13.6588 8.34536 13.9395 8.64941C14.2201 8.95336 14.603 9.12394 15 9.12402V12.376C15 12.806 14.843 13.2214 14.5625 13.5254C14.2818 13.8294 13.8981 14 13.501 14H1.49902C1.10206 13.9999 0.719098 13.8294 0.438477 13.5254C0.157777 13.2213 0 12.8061 0 12.376V9.12402C0.397087 9.12402 0.780824 8.95347 1.06152 8.64941C1.34205 8.34538 1.49902 7.92999 1.49902 7.5C1.49899 7.06998 1.34212 6.6546 1.06152 6.35059C0.780824 6.04653 0.397087 5.87598 0 5.87598V2.62402C2.13629e-05 2.19393 0.157796 1.77865 0.438477 1.47461C0.719086 1.17074 1.10212 1.00009 1.49902 1H13.501ZM1.49902 2.29785C1.42041 2.29794 1.34522 2.33158 1.28711 2.39453C1.22904 2.45383 1.19826 2.53515 1.19824 2.62402V4.87891C1.45472 5.016 1.69418 5.20104 1.90625 5.43066C2.41623 5.97937 2.69719 6.71753 2.69727 7.49609C2.69727 8.27478 2.4163 9.00903 1.90625 9.56152C1.69749 9.78764 1.45833 9.97338 1.19824 10.1143V12.3691C1.19835 12.4543 1.23243 12.5357 1.28711 12.5986C1.34181 12.6616 1.41699 12.6952 1.49902 12.6953H13.501C13.5796 12.6953 13.6547 12.6616 13.7129 12.5986C13.771 12.5394 13.8017 12.458 13.8018 12.3691V10.1143C13.5452 9.97708 13.3059 9.79132 13.0938 9.56152C12.5837 9.01274 12.3027 8.27475 12.3027 7.49609C12.3028 6.71753 12.5838 5.98308 13.0938 5.43066C13.3024 5.20474 13.5419 5.01972 13.8018 4.87891V2.62402C13.8017 2.53879 13.771 2.45754 13.7129 2.39453C13.6581 2.3315 13.5831 2.29786 13.501 2.29785H1.49902ZM9.58301 8.38281C10.1478 8.38281 10.6035 8.87221 10.6035 9.47656C10.6035 9.76579 10.4974 10.0443 10.3057 10.252C10.114 10.4557 9.85375 10.5742 9.58691 10.5742C9.02227 10.574 8.56644 10.0847 8.56641 9.48047C8.56641 9.19132 8.67266 8.91271 8.86426 8.70508C9.05576 8.50135 9.31629 8.38306 9.58301 8.38281ZM10.3037 5.55957L5.95605 10.2686L5.18945 9.4375L9.53613 4.72852L10.3037 5.55957ZM5.91211 4.40625C6.47657 4.40652 6.9314 4.89931 6.93164 5.51074C6.93164 5.80368 6.82549 6.0861 6.63379 6.29004C6.44212 6.49748 6.18191 6.6123 5.91504 6.6123C5.35048 6.61209 4.89468 6.11936 4.89453 5.50781C4.89453 5.21497 5.0008 4.93244 5.19238 4.72852C5.384 4.52095 5.64522 4.40635 5.91211 4.40625Z" fill="#888888"/>
</svg>
