<svg width="15" height="15" viewBox="0 0 15 15" fill="none" xmlns="http://www.w3.org/2000/svg">
<g clip-path="url(#clip0_1292_12195)">
<path d="M7.5 10C7.00555 10 6.5222 9.85338 6.11107 9.57868C5.69995 9.30397 5.37952 8.91353 5.1903 8.45671C5.00108 7.99989 4.95157 7.49723 5.04804 7.01228C5.1445 6.52732 5.3826 6.08187 5.73223 5.73223C6.08186 5.3826 6.52732 5.1445 7.01227 5.04804C7.49723 4.95157 7.99989 5.00108 8.45671 5.1903C8.91352 5.37952 9.30397 5.69995 9.57867 6.11108C9.85338 6.5222 10 7.00555 10 7.5C10 8.16304 9.73661 8.79893 9.26777 9.26777C8.79893 9.73661 8.16304 10 7.5 10ZM3.55188 10H0.625C0.45924 10 0.300269 9.93415 0.183058 9.81694C0.065848 9.69973 0 9.54076 0 9.375C0.0059224 8.47757 0.332328 7.61178 0.920347 6.9338C1.50837 6.25582 2.31929 5.81027 3.20688 5.6775C3.31001 5.66305 3.41513 5.6746 3.51267 5.71111C3.6102 5.74761 3.69707 5.80791 3.76538 5.88653C3.83369 5.96514 3.88127 6.05958 3.9038 6.16126C3.92632 6.26294 3.92308 6.36864 3.89437 6.46875C3.7986 6.80413 3.75001 7.15121 3.75 7.5C3.75018 8.0561 3.87535 8.60504 4.11625 9.10625C4.16156 9.20138 4.18208 9.30643 4.17591 9.41162C4.16974 9.51681 4.13707 9.61873 4.08094 9.70791C4.02481 9.79709 3.94705 9.87064 3.85488 9.9217C3.76271 9.97277 3.65912 9.9997 3.55375 10H3.55188ZM10.625 15H4.375C4.20924 15 4.05027 14.9342 3.93306 14.8169C3.81585 14.6997 3.75 14.5408 3.75 14.375C3.75 13.3804 4.14509 12.4266 4.84835 11.7234C5.55161 11.0201 6.50544 10.625 7.5 10.625C8.49456 10.625 9.44839 11.0201 10.1517 11.7234C10.8549 12.4266 11.25 13.3804 11.25 14.375C11.25 14.5408 11.1842 14.6997 11.0669 14.8169C10.9497 14.9342 10.7908 15 10.625 15ZM11.25 5C10.7555 5 10.2722 4.85338 9.86107 4.57868C9.44995 4.30397 9.12952 3.91352 8.9403 3.45671C8.75108 2.99989 8.70157 2.49723 8.79804 2.01228C8.8945 1.52732 9.1326 1.08187 9.48223 0.732234C9.83186 0.382603 10.2773 0.144501 10.7623 0.0480379C11.2472 -0.0484251 11.7499 0.0010832 12.2067 0.190302C12.6635 0.379521 13.054 0.699953 13.3287 1.11108C13.6034 1.5222 13.75 2.00555 13.75 2.5C13.75 3.16304 13.4866 3.79893 13.0178 4.26777C12.5489 4.73661 11.913 5 11.25 5ZM3.75 5C3.25555 5 2.7722 4.85338 2.36107 4.57868C1.94995 4.30397 1.62952 3.91352 1.4403 3.45671C1.25108 2.99989 1.20157 2.49723 1.29804 2.01228C1.3945 1.52732 1.6326 1.08187 1.98223 0.732234C2.33186 0.382603 2.77732 0.144501 3.26227 0.0480379C3.74723 -0.0484251 4.24989 0.0010832 4.70671 0.190302C5.16352 0.379521 5.55397 0.699953 5.82867 1.11108C6.10338 1.5222 6.25 2.00555 6.25 2.5C6.25 3.16304 5.98661 3.79893 5.51777 4.26777C5.04893 4.73661 4.41304 5 3.75 5ZM14.375 10H11.4481C11.3428 9.9997 11.2392 9.97277 11.147 9.9217C11.0548 9.87064 10.9771 9.79709 10.9209 9.70791C10.8648 9.61873 10.8321 9.51681 10.826 9.41162C10.8198 9.30643 10.8403 9.20138 10.8856 9.10625C11.1259 8.60489 11.2504 8.05595 11.25 7.5C11.249 7.15107 11.1993 6.80398 11.1025 6.46875C11.0736 6.36836 11.0704 6.26232 11.093 6.16035C11.1157 6.05837 11.1636 5.96371 11.2323 5.885C11.301 5.8063 11.3883 5.74607 11.4863 5.70982C11.5842 5.67357 11.6897 5.66246 11.7931 5.6775C12.6807 5.81027 13.4916 6.25582 14.0797 6.9338C14.6677 7.61178 14.9941 8.47757 15 9.375C15 9.54076 14.9342 9.69973 14.8169 9.81694C14.6997 9.93415 14.5408 10 14.375 10Z" fill="#888888"/>
</g>
<defs>
<clipPath id="clip0_1292_12195">
<rect width="15" height="15" fill="white"/>
</clipPath>
</defs>
</svg>
