<svg width="15" height="15" viewBox="0 0 15 15" fill="none" xmlns="http://www.w3.org/2000/svg">
<g clip-path="url(#clip0_1292_13710)">
<path d="M7.55876 14.9991H7.44033C5.15761 14.9991 3.45256 14.5055 2.22758 13.4902C0.749453 12.2652 0 10.2691 0 7.55876V7.44033C0 2.4337 2.4337 0 7.44033 0H7.55876C9.85505 0 11.5592 0.48186 12.7688 1.4736C14.2695 2.70402 14.9991 4.65586 14.9991 7.44124V7.55967C14.9991 12.5663 12.5654 15 7.55876 15V14.9991ZM7.44124 1.40038C3.20757 1.40038 1.40037 3.20667 1.40037 7.44124V7.55967C1.40037 9.8659 1.96359 11.4534 3.12168 12.4135C4.0854 13.2118 5.49843 13.6005 7.44124 13.6005H7.55967C11.7933 13.6005 13.6005 11.7942 13.6005 7.55967V7.44124C13.6005 5.10246 13.0382 3.5041 11.8828 2.55665C10.9336 1.77917 9.51964 1.40038 7.56057 1.40038H7.44214H7.44124Z" fill="#888888"/>
<path d="M8.95915 7.83461C9.1485 7.03232 8.65163 6.22843 7.84934 6.03908C7.04705 5.84972 6.24316 6.3466 6.0538 7.14889C5.86444 7.95118 6.36132 8.75507 7.16361 8.94442C7.9659 9.13378 8.76979 8.6369 8.95915 7.83461Z" fill="white"/>
<path d="M7.50482 9.68933C6.29611 9.68933 5.3125 8.70572 5.3125 7.49701C5.3125 6.28829 6.29611 5.30469 7.50482 5.30469C8.71354 5.30469 9.69714 6.28829 9.69714 7.49701C9.69714 8.70572 8.71354 9.68933 7.50482 9.68933ZM7.50482 6.70416C7.06817 6.70416 6.71197 7.05945 6.71197 7.49701C6.71197 7.93457 7.06726 8.28986 7.50482 8.28986C7.94238 8.28986 8.29768 7.93457 8.29768 7.49701C8.29768 7.05945 7.94238 6.70416 7.50482 6.70416Z" fill="#888888"/>
<path d="M7.60599 6.71147C7.21906 6.71147 6.90625 6.39777 6.90625 6.01174V3.05911C6.90625 2.67218 7.21996 2.35938 7.60599 2.35938C7.99202 2.35938 8.30572 2.67308 8.30572 3.05911V6.01174C8.30572 6.39867 7.99202 6.71147 7.60599 6.71147Z" fill="#888888"/>
<path d="M10.2029 10.926C10.0239 10.926 9.84487 10.8573 9.70745 10.7208L8.04852 9.06189C7.77549 8.78887 7.77549 8.34498 8.04852 8.07195C8.32154 7.79893 8.76543 7.79893 9.03845 8.07195L10.6974 9.73089C10.9704 10.0039 10.9704 10.4478 10.6974 10.7208C10.5609 10.8573 10.3819 10.926 10.202 10.926H10.2029Z" fill="#888888"/>
</g>
<defs>
<clipPath id="clip0_1292_13710">
<rect width="14.9991" height="15" fill="white"/>
</clipPath>
</defs>
</svg>
