<svg width="22" height="25" viewBox="0 0 22 25" fill="none" xmlns="http://www.w3.org/2000/svg">
<path d="M20.6166 19.4826C20.2386 20.356 19.791 21.16 19.2725 21.8992C18.5658 22.9069 17.9871 23.6044 17.5411 23.9917C16.8498 24.6275 16.1091 24.9531 15.3159 24.9716C14.7464 24.9716 14.0597 24.8096 13.2604 24.4809C12.4584 24.1537 11.7214 23.9917 11.0475 23.9917C10.3407 23.9917 9.58272 24.1537 8.77194 24.4809C7.95993 24.8096 7.30579 24.9809 6.80565 24.9979C6.04502 25.0303 5.28687 24.6954 4.5301 23.9917C4.04709 23.5704 3.44295 22.8482 2.7192 21.8251C1.94268 20.7326 1.30428 19.4656 0.804141 18.0212C0.26851 16.4611 0 14.9503 0 13.4877C0 11.8123 0.362026 10.3673 1.08716 9.15636C1.65705 8.18371 2.4152 7.41645 3.36409 6.85319C4.31298 6.28994 5.33826 6.00291 6.44239 5.98455C7.04653 5.98455 7.83879 6.17142 8.82333 6.5387C9.80509 6.9072 10.4355 7.09408 10.7118 7.09408C10.9185 7.09408 11.6188 6.87557 12.8059 6.43993C13.9286 6.03593 14.8761 5.86865 15.6523 5.93455C17.7556 6.10429 19.3358 6.93344 20.3867 8.42722C18.5056 9.567 17.5751 11.1634 17.5936 13.2113C17.6105 14.8065 18.1892 16.1339 19.3265 17.1879C19.842 17.6771 20.4176 18.0552 21.058 18.3237C20.9191 18.7264 20.7725 19.1122 20.6166 19.4826V19.4826ZM15.7927 0.500142C15.7927 1.75043 15.3359 2.91782 14.4255 3.99834C13.3267 5.28287 11.9978 6.02513 10.5566 5.908C10.5382 5.75801 10.5276 5.60014 10.5276 5.43425C10.5276 4.23398 11.0501 2.94945 11.978 1.89917C12.4413 1.3674 13.0304 0.925238 13.7449 0.572516C14.4579 0.225057 15.1322 0.0329052 15.7665 0C15.785 0.167144 15.7927 0.334298 15.7927 0.500126V0.500142Z" fill="white"/>
</svg>
