<svg width="20" height="20" viewBox="0 0 20 20" fill="none" xmlns="http://www.w3.org/2000/svg">
<path d="M19.8008 6.00391C19.8008 6.00391 19.6055 4.625 19.0039 4.01953C18.2422 3.22266 17.3906 3.21875 17 3.17187C14.2031 2.96875 10.0039 2.96875 10.0039 2.96875H9.99609C9.99609 2.96875 5.79688 2.96875 3 3.17187C2.60938 3.21875 1.75781 3.22266 0.996094 4.01953C0.394531 4.625 0.203125 6.00391 0.203125 6.00391C0.203125 6.00391 0 7.625 0 9.24219V10.7578C0 12.375 0.199219 13.9961 0.199219 13.9961C0.199219 13.9961 0.394531 15.375 0.992187 15.9805C1.75391 16.7773 2.75391 16.75 3.19922 16.8359C4.80078 16.9883 10 17.0352 10 17.0352C10 17.0352 14.2031 17.0273 17 16.8281C17.3906 16.7813 18.2422 16.7773 19.0039 15.9805C19.6055 15.375 19.8008 13.9961 19.8008 13.9961C19.8008 13.9961 20 12.3789 20 10.7578V9.24219C20 7.625 19.8008 6.00391 19.8008 6.00391ZM7.93359 12.5977V6.97656L13.3359 9.79688L7.93359 12.5977Z" fill="white"/>
</svg>
