<svg width="15" height="15" viewBox="0 0 15 15" fill="none" xmlns="http://www.w3.org/2000/svg">
<g clip-path="url(#clip0_1234_19479)">
<path d="M14.5131 3.58938L12.6312 1.04688C12.3998 0.723334 12.0946 0.459606 11.7409 0.277548C11.3872 0.0954902 10.9952 0.000346075 10.5974 1.10149e-06H4.40369C4.00783 -0.000370459 3.61755 0.0932655 3.26496 0.273203C2.91236 0.453141 2.60753 0.714236 2.37556 1.035L0.459939 3.59563C0.148041 4.03543 -0.0130331 4.56442 0.000824868 5.10342C0.0146829 5.64242 0.202728 6.16243 0.536814 6.58563L6.03181 14.2906C6.20693 14.5124 6.43013 14.6914 6.68456 14.8143C6.93899 14.9372 7.21801 15.0007 7.50056 15C7.78797 14.9994 8.0714 14.9329 8.32907 14.8056C8.58673 14.6783 8.81175 14.4936 8.98681 14.2656L14.4381 6.64625C14.7871 6.21687 14.9838 5.68381 14.9974 5.13062C15.011 4.57742 14.8406 4.03536 14.5131 3.58938ZM11.6206 1.78188L13.5068 4.33063C13.5168 4.34438 13.5193 4.36063 13.5293 4.375H10.4718L9.57931 1.25H10.5974C10.798 1.25062 10.9956 1.29923 11.1736 1.39175C11.3515 1.48428 11.5048 1.61804 11.6206 1.78188ZM7.50056 11.9488L5.81306 5.625H9.18806L7.50056 11.9488ZM5.82931 4.375L6.72181 1.25H8.27931L9.17181 4.375H5.82931ZM3.38619 1.77313C3.50216 1.61149 3.65491 1.47976 3.83182 1.3888C4.00874 1.29784 4.20476 1.25027 4.40369 1.25H5.42181L4.52931 4.375H1.44931C1.45806 4.36125 1.46056 4.34438 1.47056 4.33125L3.38619 1.77313ZM1.53056 5.82813C1.48544 5.76438 1.44671 5.69635 1.41494 5.625H4.52056L6.39181 12.6438L1.53056 5.82813ZM8.60744 12.65L10.4824 5.625H13.5987C13.5584 5.71829 13.5075 5.80659 13.4468 5.88813L8.60744 12.65Z" fill="#CFA16D"/>
</g>
<defs>
<clipPath id="clip0_1234_19479">
<rect width="15" height="15" fill="white"/>
</clipPath>
</defs>
</svg>
