<svg width="170" height="55" viewBox="0 0 170 55" fill="none" xmlns="http://www.w3.org/2000/svg">
<path d="M41.378 38.3617C41.3037 38.7681 41.1148 39.1449 40.8335 39.448L32.122 48.1382C32.0862 48.2095 32.0367 48.2731 31.9763 48.3253C31.9159 48.3776 31.8458 48.4175 31.77 48.4427C31.6942 48.4679 31.6141 48.478 31.5343 48.4723C31.4546 48.4667 31.3768 48.4454 31.3053 48.4097C31.2338 48.3741 31.17 48.3247 31.1176 48.2645C31.0652 48.2042 31.0253 48.1343 31 48.0586C30.9747 47.983 30.9646 47.9031 30.9703 47.8236C30.9759 47.744 30.9973 47.6664 31.033 47.595V28.5852L41.378 18.2656V38.3617Z" fill="#999999"/>
<path d="M34.2993 11.2072C34.2993 11.0632 34.2419 10.925 34.1398 10.8231C34.0377 10.7213 33.8992 10.6641 33.7548 10.6641C33.6104 10.6641 33.4719 10.7213 33.3698 10.8231C33.2677 10.925 33.2103 11.0632 33.2103 11.2072L20.6875 24.2425V38.9072L31.0325 28.5876L41.3774 18.268L34.2993 11.2072Z" fill="#CCCCCC"/>
<path d="M0 38.3617C0.0742809 38.7681 0.263152 39.1449 0.544472 39.448L9.25602 48.1382C9.32822 48.2822 9.45483 48.3918 9.60799 48.4427C9.76115 48.4936 9.92832 48.4818 10.0727 48.4097C10.2171 48.3377 10.3269 48.2114 10.378 48.0586C10.429 47.9058 10.4172 47.7391 10.345 47.595V28.5852L0 18.2656V38.3617Z" fill="#555555"/>
<path d="M8.16707 11.2072C8.16707 11.0632 8.10971 10.925 8.0076 10.8231C7.90549 10.7213 7.767 10.6641 7.6226 10.6641C7.4782 10.6641 7.33971 10.7213 7.2376 10.8231C7.13549 10.925 7.07813 11.0632 7.07813 11.2072L0 18.268L10.345 28.5876L20.6899 38.9072V24.2425L8.16707 11.2072Z" fill="#AAAAAA"/>
<path d="M54.4453 38.3591V19.3493H59.3456V21.5219C59.8788 20.5798 60.6819 19.8179 61.6519 19.3341C62.622 18.8502 63.7148 18.6664 64.7903 18.8062C65.8193 18.8823 66.8111 19.2223 67.6697 19.7933C68.5282 20.3642 69.2243 21.1468 69.6905 22.065C71.8684 19.8925 73.5018 18.8062 75.6797 18.8062C80.0355 18.8062 82.7578 20.9788 82.7578 25.867V38.3591H77.3131V28.0395C77.3131 25.3238 76.7686 24.2376 74.5908 24.2376C72.4129 24.2376 71.3239 25.3238 71.3239 28.0395V38.3591H65.3347V28.0395C65.3347 25.3238 64.7903 24.2376 63.1569 24.2376C61.5234 24.2376 59.89 25.3238 59.89 28.0395V38.3591H54.4453ZM89.2915 21.5219C90.7339 20.1684 92.5353 19.2563 94.482 18.8939C96.4287 18.5315 98.4387 18.7341 100.273 19.4776C102.108 20.2211 103.69 21.4742 104.832 23.0882C105.974 24.7022 106.627 26.6092 106.715 28.5827C106.754 29.881 106.533 31.1741 106.066 32.3864C105.598 33.5987 104.893 34.7059 103.992 35.6435C103.038 36.7095 101.861 37.5537 100.544 38.1168C99.2265 38.6798 97.8018 38.948 96.3696 38.9023C95.0232 38.9053 93.6924 38.6153 92.4699 38.0525C91.2474 37.4896 90.1627 36.6675 89.2915 35.6435C88.3903 34.7059 87.6854 33.5987 87.2179 32.3864C86.7505 31.1741 86.53 29.881 86.5691 28.5827C86.53 27.2844 86.7505 25.9913 87.2179 24.779C87.6854 23.5666 88.3903 22.4594 89.2915 21.5219ZM96.3696 33.4709C97.6693 33.4709 98.9157 32.9559 99.8346 32.0392C100.754 31.1225 101.27 29.8791 101.27 28.5827C101.27 27.3583 100.782 26.184 99.9144 25.3182C99.0464 24.4524 97.8693 23.966 96.6419 23.966C95.4144 23.966 94.2373 24.4524 93.3694 25.3182C92.5014 26.184 92.0139 27.3583 92.0139 28.5827C92.0064 29.7903 92.4472 30.9579 93.2515 31.8605C94.0558 32.7631 95.1665 33.3367 96.3696 33.4709ZM110.526 38.3591V19.3493H115.971V21.5219C117.06 19.8925 118.693 18.8062 121.415 18.8062C125.227 18.8062 127.949 21.5219 127.949 25.867V38.3591H122.504V28.0395C122.504 25.3238 121.96 24.2376 119.782 24.2376C117.604 24.2376 115.971 25.3238 115.971 28.0395V38.3591H110.526ZM151.906 21.5219C153.348 20.1684 155.15 19.2563 157.096 18.8939C159.043 18.5315 161.053 18.7341 162.888 19.4776C164.722 20.2211 166.304 21.4742 167.446 23.0882C168.588 24.7022 169.241 26.6092 169.329 28.5827C169.368 29.881 169.147 31.1741 168.68 32.3864C168.213 33.5987 167.508 34.7059 166.606 35.6435C165.713 36.6408 164.624 37.4446 163.406 38.0051C162.189 38.5657 160.869 38.871 159.528 38.9023C158.091 38.9878 156.654 38.7378 155.331 38.1721C154.007 37.6064 152.835 36.7406 151.906 35.6435C151.005 34.7059 150.3 33.5987 149.832 32.3864C149.365 31.1741 149.144 29.881 149.183 28.5827C149.144 27.2844 149.365 25.9913 149.832 24.779C150.3 23.5666 151.005 22.4594 151.906 21.5219ZM159.528 33.4709C160.731 33.3367 161.842 32.7631 162.646 31.8605C163.451 30.9579 163.892 29.7903 163.884 28.5827C163.884 27.3583 163.397 26.184 162.529 25.3182C161.661 24.4524 160.484 23.966 159.256 23.966C158.029 23.966 156.852 24.4524 155.984 25.3182C155.116 26.184 154.628 27.3583 154.628 28.5827C154.628 29.8791 155.144 31.1225 156.063 32.0392C156.982 32.9559 158.229 33.4709 159.528 33.4709ZM132.305 38.3591V34.5572L139.927 24.2376H132.305V19.3493H146.461V23.6944L139.383 33.4709H146.461V38.3591H132.305Z" fill="#BBBBBB"/>
</svg>
