<svg width="90" height="90" viewBox="0 0 90 90" fill="none" xmlns="http://www.w3.org/2000/svg">
<g clip-path="url(#clip0_1234_19147)">
<path d="M89.8997 84.5972L66.5409 61.2384C71.8359 54.7697 75.0234 46.5122 75.0234 37.5234C75.0234 16.8459 58.2009 0.0234375 37.5234 0.0234375C16.8459 0.0234375 0.0234375 16.8459 0.0234375 37.5234C0.0234375 58.2009 16.8459 75.0234 37.5234 75.0234C46.5159 75.0234 54.7734 71.8359 61.2384 66.5409L84.5972 89.8997L89.8997 84.5972ZM37.5234 67.5234C20.9822 67.5234 7.52344 54.0647 7.52344 37.5234C7.52344 20.9822 20.9822 7.52344 37.5234 7.52344C54.0647 7.52344 67.5234 20.9822 67.5234 37.5234C67.5234 54.0647 54.0647 67.5234 37.5234 67.5234Z" fill="#555555"/>
<path d="M28 29L46 47" stroke="#555555" stroke-width="6" stroke-linecap="round" stroke-linejoin="round"/>
<path d="M46 29L28 47" stroke="#555555" stroke-width="6" stroke-linecap="round" stroke-linejoin="round"/>
</g>
<defs>
<clipPath id="clip0_1234_19147">
<rect width="90" height="90" fill="white"/>
</clipPath>
</defs>
</svg>
