<svg width="54" height="32" viewBox="0 0 54 32" fill="none" xmlns="http://www.w3.org/2000/svg">
<g clip-path="url(#clip0_1234_19198)">
<path d="M2.65723 1.5H51.3408C51.5389 1.50005 51.7268 1.55121 51.8916 1.6416C51.6796 2.00469 51.5567 2.42618 51.5566 2.87598C51.5566 3.55178 51.8319 4.16667 52.2773 4.61133C51.888 5.00056 51.6296 5.52026 51.5713 6.09668L51.5586 6.3457L51.5713 6.59473C51.6294 7.1697 51.8867 7.68824 52.2744 8.07715C51.8865 8.46613 51.6294 8.98532 51.5713 9.56055L51.5586 9.80957L51.5713 10.0586C51.6307 10.6454 51.8987 11.1721 52.2998 11.5635C50.5132 12.2519 49.25 13.9915 49.25 16.0195C49.2501 17.9099 50.3475 19.5498 51.9434 20.3213C51.7003 20.7024 51.5586 21.1543 51.5586 21.6377C51.5586 22.3108 51.8311 22.9239 52.2734 23.3682C51.8308 23.8124 51.5586 24.4262 51.5586 25.0996C51.5586 25.7737 51.8319 26.3876 52.2754 26.832C51.887 27.2216 51.6293 27.7408 51.5713 28.3154L51.5586 28.5635L51.5713 28.8105C51.6226 29.3227 51.8334 29.7889 52.1523 30.1602C51.9421 30.369 51.6559 30.498 51.3428 30.498H2.65918C2.02749 30.4979 1.5 29.9799 1.5 29.3213V20.541C3.39202 19.9099 4.75191 18.1199 4.75195 16.0156C4.75195 13.912 3.39272 12.1189 1.5 11.4873V2.6748C1.5 2.01577 2.02746 1.49933 2.65723 1.5Z" fill="white" stroke="#888888" stroke-width="3"/>
<path fill-rule="evenodd" clip-rule="evenodd" d="M32.1445 18.3125C33.7279 18.3125 35.0049 19.583 35.0049 21.1514C35.0048 21.9017 34.7072 22.6234 34.1699 23.1621C33.6325 23.6913 32.9028 23.999 32.1543 23.999C30.571 23.999 29.2949 22.7284 29.2949 21.1602C29.295 20.4098 29.5926 19.6881 30.1299 19.1494C30.6672 18.6204 31.3962 18.3126 32.1445 18.3125ZM34.167 10.9893L21.9795 23.209L19.8291 21.0518L32.0156 8.83301L34.167 10.9893ZM21.8506 8C23.4339 8.00002 24.7099 9.27965 24.71 10.8672C24.71 11.6273 24.4124 12.3585 23.875 12.8877C23.3377 13.4264 22.6087 13.7246 21.8604 13.7246C20.277 13.7246 19 12.445 19 10.8574C19 10.0974 19.2977 9.36605 19.835 8.83691C20.3723 8.2981 21.1021 8 21.8506 8Z" fill="#888888"/>
</g>
<defs>
<clipPath id="clip0_1234_19198">
<rect width="54" height="32" fill="white"/>
</clipPath>
</defs>
</svg>
