<svg width="50" height="50" viewBox="0 0 50 50" fill="none" xmlns="http://www.w3.org/2000/svg">
<g clip-path="url(#clip0_1234_19179)">
<path d="M40.625 18.75H13.5417C8.37292 18.75 4.16667 22.9563 4.16667 28.125V36.4583C4.16667 41.6271 8.37292 45.8333 13.5417 45.8333H20.9979L25.0083 49.2125C25.6021 49.7396 26.3521 50.0021 27.0938 50.0021C27.8271 50.0021 28.5563 49.7458 29.1313 49.2354L33.2479 45.8333H40.6271C45.7958 45.8333 50.0021 41.6271 50.0021 36.4583V28.125C50.0021 22.9563 45.7938 18.75 40.625 18.75ZM47.9167 36.4583C47.9167 40.4792 44.6458 43.75 40.625 43.75H32.8708C32.6292 43.75 32.3938 43.8354 32.2083 43.9896L27.775 47.6542C27.3833 48.0042 26.7875 48.0063 26.3708 47.6375L22.05 43.9958C21.8625 43.8375 21.625 43.75 21.3792 43.75H13.5417C9.52083 43.75 6.25 40.4792 6.25 36.4583V28.125C6.25 24.1042 9.52083 20.8333 13.5417 20.8333H40.625C44.6458 20.8333 47.9167 24.1042 47.9167 28.125V36.4583ZM2.08333 9.375V19.7917C2.08333 20.3667 1.61667 20.8333 1.04167 20.8333C0.466667 20.8333 0 20.3667 0 19.7917V9.375C0 4.20625 4.20625 0 9.375 0H36.4583C41.6271 0 45.8333 4.20625 45.8333 9.375V13.5417C45.8333 14.1167 45.3667 14.5833 44.7917 14.5833C44.2167 14.5833 43.75 14.1167 43.75 13.5417V9.375C43.75 5.35417 40.4792 2.08333 36.4583 2.08333H9.375C5.35417 2.08333 2.08333 5.35417 2.08333 9.375ZM20.8333 13.5417C20.8333 12.9667 21.3 12.5 21.875 12.5H36.4583C37.0333 12.5 37.5 12.9667 37.5 13.5417C37.5 14.1167 37.0333 14.5833 36.4583 14.5833H21.875C21.3 14.5833 20.8333 14.1167 20.8333 13.5417ZM15.625 12.5C16.2 12.5 16.6667 12.9667 16.6667 13.5417C16.6667 14.1167 16.2 14.5833 15.625 14.5833H9.375C8.8 14.5833 8.33333 14.1167 8.33333 13.5417C8.33333 12.9667 8.8 12.5 9.375 12.5H15.625ZM23.9583 8.33333H9.375C8.8 8.33333 8.33333 7.86667 8.33333 7.29167C8.33333 6.71667 8.8 6.25 9.375 6.25H23.9583C24.5333 6.25 25 6.71667 25 7.29167C25 7.86667 24.5333 8.33333 23.9583 8.33333ZM37.5 7.29167C37.5 7.86667 37.0333 8.33333 36.4583 8.33333H30.2083C29.6333 8.33333 29.1667 7.86667 29.1667 7.29167C29.1667 6.71667 29.6333 6.25 30.2083 6.25H36.4583C37.0333 6.25 37.5 6.71667 37.5 7.29167ZM45.7708 30.8938C45.9208 31.3042 45.7979 31.7667 45.4625 32.0479L42.9979 34.0563L44.0167 37.1604C44.1563 37.5813 44.0167 38.0438 43.6646 38.3125C43.3125 38.5813 42.8313 38.6 42.4604 38.3604L39.5917 36.4917L36.7708 38.3792C36.5958 38.4958 36.3938 38.5542 36.1917 38.5542C35.9708 38.5542 35.7521 38.4854 35.5667 38.3458C35.2125 38.0813 35.0646 37.6208 35.1979 37.2L36.1771 34.0583L33.7 32.0438C33.3667 31.7604 33.2458 31.3 33.3958 30.8917C33.5458 30.4813 33.9375 30.2083 34.3729 30.2083H37.4979L38.6042 27.1042C38.7563 26.6958 39.1458 26.4271 39.5813 26.4271C40.0167 26.4271 40.4063 26.6979 40.5583 27.1042L41.6646 30.2083H44.7896C45.2271 30.2083 45.6208 30.4813 45.7708 30.8938ZM33.2708 30.8938C33.4208 31.3042 33.2979 31.7667 32.9625 32.0479L30.4979 34.0563L31.5167 37.1604C31.6563 37.5813 31.5167 38.0438 31.1646 38.3125C30.8125 38.5813 30.3313 38.6 29.9604 38.3604L27.0917 36.4917L24.2708 38.3792C24.0958 38.4958 23.8938 38.5542 23.6917 38.5542C23.4708 38.5542 23.2521 38.4854 23.0667 38.3458C22.7125 38.0813 22.5646 37.6208 22.6979 37.2L23.6771 34.0583L21.2 32.0438C20.8667 31.7604 20.7458 31.3 20.8958 30.8917C21.0458 30.4813 21.4375 30.2083 21.8729 30.2083H24.9979L26.1042 27.1042C26.2563 26.6958 26.6458 26.4271 27.0813 26.4271C27.5167 26.4271 27.9063 26.6979 28.0583 27.1042L29.1646 30.2083H32.2896C32.7271 30.2083 33.1188 30.4813 33.2688 30.8938H33.2708ZM20.7708 30.8938C20.9208 31.3042 20.7979 31.7667 20.4625 32.0479L17.9979 34.0563L19.0167 37.1604C19.1563 37.5813 19.0167 38.0438 18.6646 38.3125C18.3125 38.5813 17.8313 38.6 17.4604 38.3604L14.5917 36.4917L11.7708 38.3792C11.5958 38.4958 11.3938 38.5542 11.1917 38.5542C10.9708 38.5542 10.7521 38.4854 10.5667 38.3458C10.2125 38.0813 10.0646 37.6208 10.1979 37.2L11.1771 34.0583L8.7 32.0438C8.36667 31.7604 8.24583 31.3 8.39583 30.8917C8.54583 30.4813 8.9375 30.2083 9.37292 30.2083H12.4979L13.6042 27.1042C13.7563 26.6958 14.1458 26.4271 14.5813 26.4271C15.0167 26.4271 15.4063 26.6979 15.5583 27.1042L16.6646 30.2083H19.7896C20.2271 30.2083 20.6188 30.4813 20.7688 30.8938H20.7708Z" fill="#555555"/>
</g>
<defs>
<clipPath id="clip0_1234_19179">
<rect width="50" height="50" fill="white"/>
</clipPath>
</defs>
</svg>
