<svg width="80" height="80" viewBox="0 0 80 80" fill="none" xmlns="http://www.w3.org/2000/svg">
<path d="M36.6648 36.6681C36.6648 38.5081 35.1715 40.0015 33.3315 40.0015H19.9981C18.1581 40.0015 16.6648 38.5081 16.6648 36.6681C16.6648 34.8281 18.1581 33.3348 19.9981 33.3348H33.3315C35.1715 33.3348 36.6648 34.8281 36.6648 36.6681ZM19.9981 20.0015C18.1581 20.0015 16.6648 21.4948 16.6648 23.3348C16.6648 25.1748 18.1581 26.6681 19.9981 26.6681H46.6648C48.5048 26.6681 49.9981 25.1748 49.9981 23.3348C49.9981 21.4948 48.5048 20.0015 46.6648 20.0015H19.9981ZM30.1581 69.9215C22.7848 69.5648 15.7815 68.0781 12.4881 67.2881C11.6981 63.0315 9.99813 52.4081 9.99813 39.9981C9.99813 27.5881 11.6981 16.9681 12.4881 12.7081C16.2481 11.8048 24.8548 9.99813 33.3315 9.99813C41.8081 9.99813 50.4148 11.8081 54.1748 12.7081C54.6681 15.3615 55.5148 20.4881 56.0815 26.9515C56.2415 28.7848 57.8581 30.1548 59.6915 29.9815C61.5248 29.8215 62.8848 28.2048 62.7215 26.3715C61.8481 16.3581 60.3515 9.55813 60.2881 9.27146C60.0215 8.07479 59.1181 7.11813 57.9348 6.78479C57.4348 6.64479 45.5015 3.32812 33.3281 3.32812C21.1548 3.32812 9.22813 6.65146 8.72479 6.79146C7.54146 7.12479 6.63812 8.08146 6.37146 9.27813C6.24479 9.83479 3.32812 23.1615 3.32812 40.0015C3.32812 56.8415 6.24479 70.1648 6.37146 70.7248C6.63812 71.9215 7.54146 72.8781 8.72479 73.2115C9.13813 73.3281 18.9415 76.0548 29.8348 76.5815C31.6548 76.6748 33.2415 75.2548 33.3248 73.4115C33.4115 71.5715 31.9948 70.0081 30.1548 69.9215H30.1581ZM26.6648 53.3348C28.5048 53.3348 29.9981 51.8415 29.9981 50.0015C29.9981 48.1615 28.5048 46.6681 26.6648 46.6681H19.9981C18.1581 46.6681 16.6648 48.1615 16.6648 50.0015C16.6648 51.8415 18.1581 53.3348 19.9981 53.3348H26.6648ZM76.6648 56.6681C76.6648 70.4981 70.4948 76.6681 56.6648 76.6681C42.8348 76.6681 36.6648 70.4981 36.6648 56.6681C36.6648 42.8381 42.8348 36.6681 56.6648 36.6681C70.4948 36.6681 76.6648 42.8381 76.6648 56.6681ZM69.9981 56.6681C69.9981 46.5748 66.7581 43.3348 56.6648 43.3348C46.5715 43.3348 43.3315 46.5748 43.3315 56.6681C43.3315 66.7615 46.5715 70.0015 56.6648 70.0015C66.7581 70.0015 69.9981 66.7615 69.9981 56.6681Z" fill="#555555"/>
<path d="M52 52L62 62" stroke="#555555" stroke-width="4" stroke-linecap="round" stroke-linejoin="round"/>
<path d="M62 52L52 62" stroke="#555555" stroke-width="4" stroke-linecap="round" stroke-linejoin="round"/>
</svg>
