<svg width="100" height="97" viewBox="0 0 100 97" fill="none" xmlns="http://www.w3.org/2000/svg">
<path d="M98.2161 40.0742L89.327 25.2344L49.9697 38.379L10.6125 25.2344L1.8025 39.9365C-0.177027 43.2393 -0.543761 47.2061 0.789818 50.8179C2.08172 54.3212 4.80306 57.0311 8.29537 58.3046V83.0823L49.9697 96.9994L91.6441 83.0823V58.3088C95.1697 57.0729 97.9244 54.3588 99.2204 50.843C100.537 47.2687 100.175 43.3395 98.2161 40.0701V40.0742ZM8.94965 44.2373L14.3131 35.2765L43.7227 45.1016L37.334 55.7701C36.3214 57.4654 34.296 58.2044 32.4415 57.5865L11.2667 50.5173C10.029 50.0997 9.06217 49.1602 8.60792 47.9368C8.15367 46.7092 8.2787 45.3646 8.94965 44.2456V44.2373ZM16.6302 61.0981L29.8035 65.4991C31.1246 65.9417 32.479 66.1547 33.8042 66.1547C38.0925 66.1547 42.1599 63.9375 44.4812 60.0626L45.8023 57.8537V86.8152L16.6302 77.0695V61.0981ZM54.1371 86.8152V57.8537L55.4582 60.0626C57.7795 63.9375 61.8469 66.1547 66.1352 66.1547C67.4604 66.1547 68.8107 65.9417 70.1359 65.4991L83.3092 61.1023V77.0737L54.1371 86.8194V86.8152ZM91.4023 47.9535C90.9648 49.1435 90.0229 50.058 88.8227 50.463L67.4979 57.5823C65.6226 58.1961 63.6181 57.4654 62.6054 55.7659L56.2167 45.0974L85.6263 35.2724L91.0731 44.3709C91.7232 45.4565 91.8483 46.7593 91.4065 47.9493L91.4023 47.9535Z" fill="#555555"/>
<path d="M41 3L59 21" stroke="#555555" stroke-width="6" stroke-linecap="round" stroke-linejoin="round"/>
<path d="M59 3L41 21" stroke="#555555" stroke-width="6" stroke-linecap="round" stroke-linejoin="round"/>
</svg>
