<svg width="20" height="20" viewBox="0 0 20 20" fill="none" xmlns="http://www.w3.org/2000/svg">
<path d="M17.2746 5.82398H14.5151C13.2 5.82398 12.1328 4.74467 12.1328 3.41974V0.634706C12.1328 0.425152 12.3025 0.253906 12.5101 0.253906C12.7178 0.253906 12.8874 0.422898 12.8874 0.634706V3.41974C12.8874 4.32781 13.6197 5.06463 14.5173 5.06463H17.2768C17.4845 5.06463 17.6541 5.23362 17.6541 5.44543C17.6541 5.65724 17.4867 5.82623 17.2768 5.82623L17.2746 5.82398Z" fill="black"/>
<path d="M17.5235 9.36683C17.3159 9.36683 17.1462 9.19558 17.1462 8.98603V5.59937L12.3505 0.759353H4.47821C3.57845 0.759353 2.84838 1.49842 2.84838 2.40424V7.97431C2.84838 8.18387 2.68094 8.35512 2.47107 8.35512C2.2612 8.35512 2.09375 8.18387 2.09375 7.97431V2.40424C2.09375 1.07706 3.16318 0 4.47597 0H12.5046C12.605 0 12.701 0.0405601 12.7702 0.110411L17.787 5.1735C17.8584 5.24561 17.8964 5.34025 17.8964 5.44164V8.98603C17.8964 9.19558 17.7289 9.36683 17.5191 9.36683H17.5235Z" fill="black"/>
<path d="M16.0165 20.0013H3.97588C2.9377 20.0013 2.09375 19.1496 2.09375 18.1018V16.0761C2.09375 15.8666 2.26343 15.6953 2.47107 15.6953C2.6787 15.6953 2.84838 15.8643 2.84838 16.0761V18.1018C2.84838 18.7305 3.35519 19.242 3.9781 19.242H16.0187C16.6417 19.242 17.1485 18.7305 17.1485 18.1018V16.0761C17.1485 15.8666 17.3181 15.6953 17.5258 15.6953C17.7334 15.6953 17.9031 15.8643 17.9031 16.0761V18.1018C17.9031 19.1496 17.0591 20.0013 16.021 20.0013H16.0165Z" fill="black"/>
<path d="M19.6248 15.842C19.4373 15.7451 19.2252 15.6888 18.9997 15.6888H1.00014C0.77464 15.6888 0.562542 15.7429 0.375 15.842V10.4995C0.375 9.87087 0.879572 9.35938 1.50025 9.35938H18.4996C19.1203 9.35938 19.6248 9.87087 19.6248 10.4995V15.842Z" fill="#F97263"/>
<path d="M18.4997 9.73983C18.9127 9.73983 19.2498 10.0801 19.2498 10.4992V15.3279C19.1672 15.3167 19.0846 15.3099 18.9998 15.3099H1.00022C0.915378 15.3099 0.832772 15.3167 0.750164 15.3279V10.4992C0.750164 10.0801 1.08729 9.73983 1.50033 9.73983H18.4997ZM18.4997 8.98047H1.50033C0.672018 8.98047 0 9.66096 0 10.4992V17.081C0 16.5222 0.448756 16.0693 1.00022 16.0693H18.9998C19.5512 16.0693 20 16.5222 20 17.081V10.4992C20 9.66096 19.328 8.98047 18.4997 8.98047Z" fill="#F97263"/>
<path d="M1.00022 18.0937C0.448756 18.0937 0 17.6408 0 17.082C0 16.5232 0.446524 16.0703 1.00022 16.0703H2.00045V18.096H1.00022V18.0937Z" fill="#D84E44"/>
<path d="M19.0002 18.0937C19.5517 18.0937 20.0005 17.6408 20.0005 17.082C20.0005 16.5232 19.5517 16.0703 19.0002 16.0703H18V18.096H19.0002V18.0937Z" fill="#D84E44"/>
<path d="M5.85938 10.8828H8.52962V11.6039H6.67206V12.4376H8.32422V13.1496H6.67206V14.5556H5.85938V10.8828Z" fill="white"/>
<path d="M9.78925 10.8828V14.5556H8.97656V10.8828H9.78925Z" fill="white"/>
<path d="M13.0665 10.9513C13.321 11.0595 13.5331 11.2059 13.705 11.3929C13.8769 11.58 13.9975 11.7873 14.0689 12.0194H13.1759C13.0955 11.8774 12.9727 11.7625 12.8075 11.6746C12.6423 11.5867 12.4525 11.5417 12.2382 11.5417C12.0238 11.5417 11.8251 11.5912 11.6487 11.6926C11.4724 11.794 11.3362 11.9337 11.2357 12.1117C11.1352 12.2897 11.0861 12.4925 11.0861 12.7179C11.0861 12.9432 11.1352 13.146 11.2357 13.3285C11.3362 13.511 11.4724 13.653 11.6487 13.7544C11.8251 13.8558 12.0216 13.9076 12.2382 13.9076C12.419 13.9076 12.5842 13.8738 12.7338 13.8084C12.8834 13.7431 13.004 13.6552 13.0977 13.5448C13.1915 13.4344 13.254 13.3195 13.283 13.1956H12.1712V12.5015H14.1493V12.7179C14.1493 13.0851 14.0645 13.4141 13.897 13.707C13.7296 14 13.4974 14.2298 13.2049 14.3965C12.9124 14.5633 12.5842 14.6467 12.2203 14.6467C11.8564 14.6467 11.5193 14.5633 11.2223 14.3965C10.9254 14.2298 10.6932 14 10.5257 13.707C10.3583 13.4141 10.2734 13.0851 10.2734 12.7179C10.2734 12.3506 10.3583 12.0216 10.5257 11.7287C10.6932 11.4358 10.9254 11.2059 11.2223 11.0392C11.5193 10.8724 11.8519 10.7891 12.2203 10.7891C12.5306 10.7891 12.812 10.8431 13.0665 10.9513Z" fill="white"/>
</svg>
