<svg width="20" height="20" viewBox="0 0 20 20" fill="none" xmlns="http://www.w3.org/2000/svg">
<path d="M17.2496 5.82337H14.4993C13.1886 5.82337 12.125 4.74418 12.125 3.4194V0.634667C12.125 0.425136 12.2941 0.253906 12.5011 0.253906C12.708 0.253906 12.8771 0.422883 12.8771 0.634667V3.4194C12.8771 4.32737 13.607 5.06411 14.5015 5.06411H17.2518C17.4588 5.06411 17.6279 5.23308 17.6279 5.44487C17.6279 5.65665 17.461 5.82563 17.2518 5.82563L17.2496 5.82337Z" fill="black"/>
<path d="M17.5033 9.36581C17.2963 9.36581 17.1272 9.19458 17.1272 8.98505V5.59876L12.3475 0.759267H4.5015C3.60475 0.759267 2.87711 1.49826 2.87711 2.40397V7.97344C2.87711 8.18297 2.71022 8.3542 2.50105 8.3542C2.29189 8.3542 2.125 8.18297 2.125 7.97344V2.40397C2.125 1.07694 3.19087 0 4.49928 0H12.5011C12.6012 0 12.6969 0.0405539 12.7659 0.110398L17.7659 5.17293C17.8371 5.24503 17.8749 5.33966 17.8749 5.44104V8.98505C17.8749 9.19458 17.708 9.36581 17.4988 9.36581H17.5033Z" fill="black"/>
<path d="M16.0013 20.0008H4.00083C2.96612 20.0008 2.125 19.1492 2.125 18.1015V16.0761C2.125 15.8665 2.29411 15.6953 2.50106 15.6953C2.708 15.6953 2.87712 15.8643 2.87712 16.0761V18.1015C2.87712 18.7301 3.38223 19.2416 4.00306 19.2416H16.0035C16.6243 19.2416 17.1295 18.7301 17.1295 18.1015V16.0761C17.1295 15.8665 17.2986 15.6953 17.5055 15.6953C17.7125 15.6953 17.8816 15.8643 17.8816 16.0761V18.1015C17.8816 19.1492 17.0404 20.0008 16.0057 20.0008H16.0013Z" fill="black"/>
<path d="M19.6273 15.8413C19.4404 15.7444 19.2268 15.6881 19.0021 15.6881H1.00028C0.775534 15.6881 0.561916 15.7422 0.375 15.8413V10.4994C0.375 9.87081 0.880117 9.35938 1.50095 9.35938H18.5014C19.1222 9.35938 19.6273 9.87081 19.6273 10.4994V15.8413Z" fill="#FDA217"/>
<path d="M18.5002 9.73974C18.9141 9.73974 19.2501 10.0799 19.2501 10.499V15.3272C19.1678 15.316 19.0854 15.3092 19.0009 15.3092H0.999111C0.914554 15.3092 0.829998 15.316 0.749891 15.3272V10.499C0.749891 10.0799 1.08589 9.73974 1.49978 9.73974H18.5002ZM18.5002 8.98047H1.49978C0.672008 8.98047 0 9.66088 0 10.499V17.0801C0 16.5213 0.447264 16.0685 0.999111 16.0685H19.0009C19.5527 16.0685 20 16.5213 20 17.0801V10.499C20 9.66088 19.328 8.98047 18.5002 8.98047Z" fill="#FDA217"/>
<path d="M0.999111 18.0935C0.447264 18.0935 0 17.6407 0 17.0819C0 16.5232 0.447264 16.0703 0.999111 16.0703H2.00045V18.0958H0.999111V18.0935Z" fill="#DB7D00"/>
<path d="M18.9991 18.0935C19.551 18.0935 19.9982 17.6407 19.9982 17.0819C19.9982 16.5232 19.551 16.0703 18.9991 16.0703H18V18.0958H18.9991V18.0935Z" fill="#DB7D00"/>
<path d="M6.15625 13.7639L7.95865 11.3487H6.24526V10.6367H9.0579V11.1774L7.25549 13.5927H9.14691V14.3046H6.15625V13.7639Z" fill="white"/>
<path d="M10.3725 10.6328V14.3052H9.5625V10.6328H10.3725Z" fill="white"/>
<path d="M11.0156 10.6328H12.4086C12.7201 10.6328 12.9871 10.6891 13.2119 10.7995C13.4366 10.9099 13.608 11.0676 13.7259 11.2682C13.8438 11.4687 13.9039 11.7052 13.9039 11.9756C13.9039 12.246 13.8438 12.487 13.7259 12.6898C13.608 12.8926 13.4366 13.0503 13.2119 13.1607C12.9871 13.2711 12.7201 13.3274 12.4086 13.3274H11.8256V14.3052H11.0156V10.6328ZM12.373 12.602C12.6022 12.602 12.778 12.5479 12.9048 12.4397C13.0316 12.3316 13.094 12.1761 13.094 11.9756C13.094 11.7751 13.0316 11.6219 12.9048 11.516C12.778 11.4101 12.6022 11.3583 12.373 11.3583H11.8256V12.602H12.373Z" fill="white"/>
</svg>
