<svg width="20" height="20" viewBox="0 0 20 20" fill="none" xmlns="http://www.w3.org/2000/svg">
<path d="M17.2746 5.82399H14.515C13.2 5.82399 12.1328 4.74467 12.1328 3.41975V0.634709C12.1328 0.425155 12.3025 0.253906 12.5101 0.253906C12.7178 0.253906 12.8874 0.422902 12.8874 0.634709V3.41975C12.8874 4.32782 13.6197 5.06463 14.5173 5.06463H17.2768C17.4844 5.06463 17.6541 5.23363 17.6541 5.44544C17.6541 5.65725 17.4867 5.82624 17.2768 5.82624L17.2746 5.82399Z" fill="black"/>
<path d="M17.5235 9.36684C17.3159 9.36684 17.1462 9.19559 17.1462 8.98604V5.59937L12.3505 0.759353H4.47821C3.57845 0.759353 2.84838 1.49843 2.84838 2.40424V7.97432C2.84838 8.18387 2.68094 8.35512 2.47107 8.35512C2.2612 8.35512 2.09375 8.18387 2.09375 7.97432V2.40424C2.09375 1.07706 3.16318 0 4.47597 0H12.5046C12.605 0 12.701 0.0405584 12.7702 0.11041L17.787 5.17351C17.8584 5.24561 17.8964 5.34025 17.8964 5.44165V8.98604C17.8964 9.19559 17.7289 9.36684 17.5191 9.36684H17.5235Z" fill="black"/>
<path d="M16.0165 20.0013H3.97586C2.93769 20.0013 2.09375 19.1496 2.09375 18.1018V16.0761C2.09375 15.8666 2.26343 15.6953 2.47107 15.6953C2.6787 15.6953 2.84838 15.8643 2.84838 16.0761V18.1018C2.84838 18.7305 3.35519 19.242 3.9781 19.242H16.0187C16.6416 19.242 17.1484 18.7305 17.1484 18.1018V16.0761C17.1484 15.8666 17.3181 15.6953 17.5258 15.6953C17.7334 15.6953 17.9031 15.8643 17.9031 16.0761V18.1018C17.9031 19.1496 17.0591 20.0013 16.021 20.0013H16.0165Z" fill="black"/>
<path d="M19.6248 15.8459C19.4373 15.749 19.2252 15.6927 18.9997 15.6927H1.00014C0.77464 15.6927 0.562542 15.7468 0.375 15.8459V10.5034C0.375 9.87477 0.879572 9.36328 1.50025 9.36328H18.4996C19.1203 9.36328 19.6248 9.87477 19.6248 10.5034V15.8459Z" fill="#FA0E16"/>
<path d="M18.4997 9.73982C18.9127 9.73982 19.2498 10.0801 19.2498 10.4992V15.3279C19.1672 15.3167 19.0846 15.3099 18.9998 15.3099H1.00023C0.915392 15.3099 0.832785 15.3167 0.750178 15.3279V10.4992C0.750178 10.0801 1.0873 9.73982 1.50034 9.73982H18.4997ZM18.4997 8.98047H1.50034C0.672032 8.98047 0 9.66096 0 10.4992V17.081C0 16.5222 0.44877 16.0693 1.00023 16.0693H18.9998C19.5512 16.0693 20 16.5222 20 17.081V10.4992C20 9.66096 19.328 8.98047 18.4997 8.98047Z" fill="#FA0E16"/>
<path d="M1.00023 18.0937C0.44877 18.0937 0 17.6408 0 17.082C0 16.5232 0.446537 16.0703 1.00023 16.0703H2.00045V18.096H1.00023V18.0937Z" fill="#C40C1A"/>
<path d="M19.0002 18.0937C19.5517 18.0937 20.0004 17.6408 20.0004 17.082C20.0004 16.5232 19.5517 16.0703 19.0002 16.0703H18V18.096H19.0002V18.0937Z" fill="#C40C1A"/>
<path d="M5.28125 10.625H6.67889C6.99146 10.625 7.25937 10.6813 7.48487 10.7917C7.71036 10.9021 7.88227 11.0599 8.0006 11.2604C8.11893 11.461 8.17921 11.6976 8.17921 11.9679C8.17921 12.2383 8.11893 12.4794 8.0006 12.6822C7.88227 12.885 7.71036 13.0428 7.48487 13.1532C7.25937 13.2636 6.99146 13.3199 6.67889 13.3199H6.09393V14.2978H5.28125V10.625ZM6.64316 12.5944C6.87312 12.5944 7.0495 12.5403 7.17676 12.4321C7.30402 12.324 7.36654 12.1685 7.36654 11.9679C7.36654 11.7674 7.30402 11.6142 7.17676 11.5083C7.0495 11.4024 6.87312 11.3506 6.64316 11.3506H6.09393V12.5944H6.64316Z" fill="white"/>
<path d="M8.61719 10.625H10.0148C10.3274 10.625 10.5953 10.6813 10.8208 10.7917C11.0463 10.9021 11.2182 11.0599 11.3365 11.2604C11.4549 11.461 11.5152 11.6976 11.5152 11.9679C11.5152 12.2383 11.4549 12.4794 11.3365 12.6822C11.2182 12.885 11.0463 13.0428 10.8208 13.1532C10.5953 13.2636 10.3274 13.3199 10.0148 13.3199H9.42987V14.2978H8.61719V10.625ZM9.97909 12.5944C10.2091 12.5944 10.3854 12.5403 10.5127 12.4321C10.64 12.324 10.7025 12.1685 10.7025 11.9679C10.7025 11.7674 10.64 11.6142 10.5127 11.5083C10.3854 11.4024 10.2091 11.3506 9.97909 11.3506H9.42987V12.5944H9.97909Z" fill="white"/>
<path d="M14.9293 11.3506H13.746V14.2978H12.9333V11.3506H11.75V10.625H14.9293V11.3506Z" fill="white"/>
</svg>
