<svg width="20" height="20" viewBox="0 0 20 20" fill="none" xmlns="http://www.w3.org/2000/svg">
<path d="M17.2496 5.8233H14.4993C13.1886 5.8233 12.125 4.74412 12.125 3.41936V0.634662C12.125 0.425134 12.2941 0.253906 12.5011 0.253906C12.708 0.253906 12.8771 0.422881 12.8771 0.634662V3.41936C12.8771 4.32731 13.607 5.06404 14.5015 5.06404H17.2518C17.4588 5.06404 17.6279 5.23302 17.6279 5.4448C17.6279 5.65658 17.461 5.82556 17.2518 5.82556L17.2496 5.8233Z" fill="black"/>
<path d="M17.4955 9.36568C17.2885 9.36568 17.1194 9.19446 17.1194 8.98493V5.59868L12.3397 0.759257H4.49369C3.59694 0.759257 2.8693 1.49824 2.8693 2.40394V7.97333C2.8693 8.18286 2.70241 8.35409 2.49325 8.35409C2.28408 8.35409 2.11719 8.18286 2.11719 7.97333V2.40394C2.11719 1.07693 3.18305 0 4.49146 0H12.4932C12.5934 0 12.6891 0.0405534 12.758 0.110396L17.758 5.17287C17.8292 5.24496 17.8671 5.33959 17.8671 5.44097V8.98493C17.8671 9.19446 17.7002 9.36568 17.491 9.36568H17.4955Z" fill="black"/>
<path d="M15.9935 20.0008H3.99302C2.95831 20.0008 2.11719 19.1491 2.11719 18.1015V16.0761C2.11719 15.8665 2.2863 15.6953 2.49324 15.6953C2.70019 15.6953 2.8693 15.8643 2.8693 16.0761V18.1015C2.8693 18.7301 3.37442 19.2415 3.99525 19.2415H15.9957C16.6165 19.2415 17.1216 18.7301 17.1216 18.1015V16.0761C17.1216 15.8665 17.2907 15.6953 17.4977 15.6953C17.7046 15.6953 17.8737 15.8643 17.8737 16.0761V18.1015C17.8737 19.1491 17.0326 20.0008 15.9979 20.0008H15.9935Z" fill="black"/>
<path d="M19.6273 15.8412C19.4404 15.7444 19.2268 15.688 19.002 15.688H1.00028C0.775533 15.688 0.561916 15.7421 0.375 15.8412V10.4994C0.375 9.87081 0.880117 9.35938 1.50095 9.35938H18.5014C19.1222 9.35938 19.6273 9.87081 19.6273 10.4994V15.8412Z" fill="#00B0FF"/>
<path d="M18.5002 9.73973C18.9141 9.73973 19.2501 10.0799 19.2501 10.499V15.3271C19.1678 15.3159 19.0854 15.3091 19.0009 15.3091H0.999121C0.914564 15.3091 0.829994 15.3159 0.749888 15.3271V10.499C0.749888 10.0799 1.0859 9.73973 1.49979 9.73973H18.5002ZM18.5002 8.98047H1.49979C0.672019 8.98047 0 9.66087 0 10.499V17.08C0 16.5212 0.447274 16.0684 0.999121 16.0684H19.0009C19.5527 16.0684 20 16.5212 20 17.08V10.499C20 9.66087 19.328 8.98047 18.5002 8.98047Z" fill="#00B0FF"/>
<path d="M0.999121 18.0935C0.447274 18.0935 0 17.6406 0 17.0819C0 16.5232 0.447274 16.0703 0.999121 16.0703H2.00046V18.0957H0.999121V18.0935Z" fill="#1063FF"/>
<path d="M18.9991 18.0935C19.551 18.0935 19.9982 17.6406 19.9982 17.0819C19.9982 16.5232 19.551 16.0703 18.9991 16.0703H18V18.0957H18.9991V18.0935Z" fill="#1063FF"/>
<path d="M5.5131 13.0255C5.5131 13.1178 5.53758 13.2102 5.58653 13.2981C5.63549 13.386 5.7067 13.458 5.79793 13.5144C5.88916 13.5707 6.00042 13.5977 6.12725 13.5977C6.32529 13.5977 6.48328 13.5324 6.59676 13.404C6.71025 13.2756 6.76811 13.1043 6.76811 12.8903V10.5742H7.57808V12.8903C7.57808 13.1787 7.518 13.4333 7.39784 13.6518C7.27768 13.8703 7.10856 14.0393 6.88826 14.1587C6.66797 14.2781 6.4143 14.3367 6.12725 14.3367C5.8402 14.3367 5.59321 14.2781 5.37959 14.1632C5.16597 14.0483 5.0013 13.8906 4.88336 13.6901C4.76543 13.4896 4.70535 13.2688 4.70312 13.0255H5.5131Z" fill="white"/>
<path d="M8.16406 10.5742H9.55703C9.86856 10.5742 10.1356 10.6305 10.3603 10.7409C10.5851 10.8513 10.7564 11.009 10.8743 11.2096C10.9923 11.4101 11.0524 11.6466 11.0524 11.917C11.0524 12.1874 10.9923 12.4284 10.8743 12.6312C10.7564 12.834 10.5851 12.9917 10.3603 13.1021C10.1356 13.2125 9.86856 13.2688 9.55703 13.2688H8.97403V14.2466H8.16406V10.5742ZM9.52144 12.5433C9.75063 12.5433 9.92642 12.4893 10.0533 12.3811C10.1801 12.273 10.2424 12.1175 10.2424 11.917C10.2424 11.7165 10.1801 11.5633 10.0533 11.4574C9.92642 11.3515 9.75063 11.2997 9.52144 11.2997H8.97403V12.5433H9.52144Z" fill="white"/>
<path d="M14.1118 10.6427C14.3655 10.7508 14.5769 10.8973 14.7482 11.0843C14.9196 11.2713 15.0397 11.4785 15.1109 11.7106H14.2209C14.1408 11.5687 14.0184 11.4538 13.8537 11.3659C13.689 11.278 13.4999 11.233 13.2863 11.233C13.0727 11.233 12.8746 11.2825 12.6988 11.3839C12.523 11.4853 12.3873 11.625 12.2872 11.803C12.187 11.981 12.1381 12.1837 12.1381 12.409C12.1381 12.6343 12.187 12.8371 12.2872 13.0196C12.3873 13.2021 12.523 13.344 12.6988 13.4454C12.8746 13.5468 13.0704 13.5986 13.2863 13.5986C13.4665 13.5986 13.6312 13.5648 13.7803 13.4995C13.9294 13.4341 14.0495 13.3463 14.143 13.2359C14.2364 13.1255 14.2987 13.0106 14.3277 12.8867H13.2195V12.1927H15.191V12.409C15.191 12.7763 15.1065 13.1052 14.9396 13.3981C14.7727 13.691 14.5413 13.9208 14.2498 14.0875C13.9583 14.2542 13.6312 14.3376 13.2685 14.3376C12.9058 14.3376 12.5698 14.2542 12.2738 14.0875C11.9779 13.9208 11.7465 13.691 11.5796 13.3981C11.4127 13.1052 11.3281 12.7763 11.3281 12.409C11.3281 12.0418 11.4127 11.7129 11.5796 11.42C11.7465 11.1271 11.9779 10.8973 12.2738 10.7306C12.5698 10.5638 12.9013 10.4805 13.2685 10.4805C13.5778 10.4805 13.8582 10.5345 14.1118 10.6427Z" fill="white"/>
</svg>
