<svg width="20" height="20" viewBox="0 0 20 20" fill="none" xmlns="http://www.w3.org/2000/svg">
<path d="M17.2746 5.82399H14.5151C13.2 5.82399 12.1328 4.74467 12.1328 3.41975V0.634706C12.1328 0.425152 12.3025 0.253906 12.5101 0.253906C12.7178 0.253906 12.8874 0.422899 12.8874 0.634706V3.41975C12.8874 4.32782 13.6198 5.06464 14.5173 5.06464H17.2768C17.4845 5.06464 17.6541 5.23363 17.6541 5.44544C17.6541 5.65724 17.4867 5.82624 17.2768 5.82624L17.2746 5.82399Z" fill="black"/>
<path d="M17.5236 9.36684C17.3159 9.36684 17.1462 9.19559 17.1462 8.98604V5.59937L12.3505 0.759354H4.47822C3.57847 0.759354 2.84838 1.49842 2.84838 2.40424V7.97432C2.84838 8.18388 2.68094 8.35513 2.47107 8.35513C2.2612 8.35513 2.09375 8.18388 2.09375 7.97432V2.40424C2.09375 1.07706 3.1632 0 4.47599 0H12.5046C12.605 0 12.701 0.0405601 12.7702 0.110411L17.787 5.17351C17.8584 5.24561 17.8964 5.34025 17.8964 5.44165V8.98604C17.8964 9.19559 17.729 9.36684 17.5191 9.36684H17.5236Z" fill="black"/>
<path d="M16.0165 20.0013H3.97587C2.93769 20.0013 2.09375 19.1496 2.09375 18.1018V16.0761C2.09375 15.8666 2.26343 15.6953 2.47107 15.6953C2.6787 15.6953 2.84838 15.8643 2.84838 16.0761V18.1018C2.84838 18.7305 3.35519 19.242 3.9781 19.242H16.0187C16.6416 19.242 17.1485 18.7305 17.1485 18.1018V16.0761C17.1485 15.8666 17.3181 15.6953 17.5258 15.6953C17.7334 15.6953 17.9031 15.8643 17.9031 16.0761V18.1018C17.9031 19.1496 17.0592 20.0013 16.021 20.0013H16.0165Z" fill="black"/>
<path d="M19.6248 15.842C19.4373 15.7451 19.2252 15.6888 18.9997 15.6888H1.00014C0.77464 15.6888 0.562542 15.7429 0.375 15.842V10.4995C0.375 9.87087 0.879572 9.35938 1.50025 9.35938H18.4996C19.1203 9.35938 19.6248 9.87087 19.6248 10.4995V15.842Z" fill="#63BDD4"/>
<path d="M18.4997 9.73983C18.9127 9.73983 19.2498 10.0801 19.2498 10.4992V15.3279C19.1672 15.3167 19.0846 15.3099 18.9998 15.3099H1.00022C0.915379 15.3099 0.832772 15.3167 0.750165 15.3279V10.4992C0.750165 10.0801 1.08729 9.73983 1.50033 9.73983H18.4997ZM18.4997 8.98047H1.50033C0.672019 8.98047 0 9.66096 0 10.4992V17.081C0 16.5222 0.448757 16.0693 1.00022 16.0693H18.9998C19.5512 16.0693 20 16.5222 20 17.081V10.4992C20 9.66096 19.328 8.98047 18.4997 8.98047Z" fill="#63BDD4"/>
<path d="M1.00022 18.0938C0.448757 18.0938 0 17.6408 0 17.082C0 16.5232 0.446524 16.0703 1.00022 16.0703H2.00044V18.096H1.00022V18.0938Z" fill="#35A1BA"/>
<path d="M19.0002 18.0938C19.5517 18.0938 20.0004 17.6408 20.0004 17.082C20.0004 16.5232 19.5517 16.0703 19.0002 16.0703H18V18.096H19.0002V18.0938Z" fill="#35A1BA"/>
<path d="M4.89062 10.8828H5.5381L6.79284 12.9378L8.04758 10.8828H8.69504V14.5556H7.88237V12.5412L7.03843 13.9518H6.54724L5.70331 12.5412V14.5556H4.89062V10.8828Z" fill="white"/>
<path d="M9.33594 10.8828H10.7336C11.0461 10.8828 11.3141 10.9391 11.5396 11.0496C11.7651 11.16 11.937 11.3177 12.0553 11.5182C12.1736 11.7188 12.2339 11.9554 12.2339 12.2258C12.2339 12.4962 12.1736 12.7373 12.0553 12.94C11.937 13.1428 11.7651 13.3006 11.5396 13.411C11.3141 13.5214 11.0461 13.5777 10.7336 13.5777H10.1486V14.5556H9.33594V10.8828ZM10.6979 12.8522C10.9278 12.8522 11.1042 12.7981 11.2314 12.6899C11.3587 12.5818 11.4212 12.4263 11.4212 12.2258C11.4212 12.0252 11.3587 11.872 11.2314 11.7661C11.1042 11.6602 10.9278 11.6084 10.6979 11.6084H10.1486V12.8522H10.6979Z" fill="white"/>
<path d="M14.0952 13.8166H12.4609V13.1406L13.8675 10.8828H14.8632V13.1406H15.341V13.8166H14.8632V14.5556H14.0952V13.8166ZM14.0952 13.1406V11.7255L13.2379 13.1406H14.0952Z" fill="white"/>
</svg>
