<svg width="20" height="20" viewBox="0 0 20 20" fill="none" xmlns="http://www.w3.org/2000/svg">
<path d="M17.2496 5.82336H14.4993C13.1886 5.82336 12.125 4.74416 12.125 3.41939V0.634666C12.125 0.425136 12.2941 0.253906 12.5011 0.253906C12.708 0.253906 12.8771 0.422883 12.8771 0.634666V3.41939C12.8771 4.32735 13.607 5.06409 14.5015 5.06409H17.2518C17.4588 5.06409 17.6279 5.23307 17.6279 5.44485C17.6279 5.65663 17.461 5.82561 17.2518 5.82561L17.2496 5.82336Z" fill="black"/>
<path d="M17.5033 9.36577C17.2963 9.36577 17.1272 9.19455 17.1272 8.98502V5.59874L12.3475 0.759264H4.5015C3.60475 0.759264 2.87711 1.49825 2.87711 2.40396V7.97341C2.87711 8.18294 2.71022 8.35417 2.50105 8.35417C2.29188 8.35417 2.125 8.18294 2.125 7.97341V2.40396C2.125 1.07694 3.19086 0 4.49927 0H12.5011C12.6012 0 12.6969 0.0405538 12.7658 0.110397L17.7659 5.17292C17.8371 5.24501 17.8749 5.33964 17.8749 5.44103V8.98502C17.8749 9.19455 17.708 9.36577 17.4988 9.36577H17.5033Z" fill="black"/>
<path d="M16.0013 20.0008H4.00083C2.96612 20.0008 2.125 19.1492 2.125 18.1015V16.0761C2.125 15.8665 2.29411 15.6953 2.50106 15.6953C2.708 15.6953 2.87711 15.8643 2.87711 16.0761V18.1015C2.87711 18.7301 3.38223 19.2416 4.00306 19.2416H16.0035C16.6243 19.2416 17.1294 18.7301 17.1294 18.1015V16.0761C17.1294 15.8665 17.2986 15.6953 17.5055 15.6953C17.7124 15.6953 17.8816 15.8643 17.8816 16.0761V18.1015C17.8816 19.1492 17.0404 20.0008 16.0057 20.0008H16.0013Z" fill="black"/>
<path d="M19.6273 15.8413C19.4404 15.7444 19.2268 15.6881 19.0021 15.6881H1.00028C0.775533 15.6881 0.561916 15.7422 0.375 15.8413V10.4994C0.375 9.87081 0.880117 9.35938 1.50095 9.35938H18.5014C19.1222 9.35938 19.6273 9.87081 19.6273 10.4994V15.8413Z" fill="#DC8000"/>
<path d="M18.5002 9.73973C18.9141 9.73973 19.2501 10.0799 19.2501 10.499V15.3272C19.1678 15.3159 19.0854 15.3092 19.0009 15.3092H0.999108C0.914551 15.3092 0.829994 15.3159 0.749888 15.3272V10.499C0.749888 10.0799 1.08589 9.73973 1.49978 9.73973H18.5002ZM18.5002 8.98047H1.49978C0.672005 8.98047 0 9.66088 0 10.499V17.0801C0 16.5213 0.447261 16.0684 0.999108 16.0684H19.0009C19.5527 16.0684 20 16.5213 20 17.0801V10.499C20 9.66088 19.328 8.98047 18.5002 8.98047Z" fill="#DC8000"/>
<path d="M0.999108 18.0935C0.447261 18.0935 0 17.6407 0 17.0819C0 16.5232 0.447261 16.0703 0.999108 16.0703H2.00044V18.0958H0.999108V18.0935Z" fill="#AA5D00"/>
<path d="M18.9991 18.0935C19.551 18.0935 19.9982 17.6407 19.9982 17.0819C19.9982 16.5232 19.551 16.0703 18.9991 16.0703H18V18.0958H18.9991V18.0935Z" fill="#AA5D00"/>
<path d="M9.94197 13.4722H8.53565L8.28198 14.1841H7.44531L8.85163 10.5117H9.69275L11.0991 14.1841H10.1956L9.94197 13.4722ZM9.69275 12.7602L9.23881 11.4805L8.78487 12.7602H9.69275Z" fill="white"/>
<path d="M12.2709 10.5117V14.1841H11.4609V10.5117H12.2709Z" fill="white"/>
</svg>
