<svg width="16" height="16" viewBox="0 0 16 16" fill="none" xmlns="http://www.w3.org/2000/svg">
<path d="M14.9375 6.10044C13.205 3.68044 10.67 2.28711 8 2.28711C6.665 2.28711 5.3675 2.63378 4.1825 3.28044C2.9975 3.93378 1.9325 4.88711 1.0625 6.10044C0.3125 7.14711 0.3125 8.84711 1.0625 9.89378C2.795 12.3204 5.33 13.7071 8 13.7071C9.335 13.7071 10.6325 13.3604 11.8175 12.7138C13.0025 12.0604 14.0675 11.1071 14.9375 9.89378C15.6875 8.85378 15.6875 7.14711 14.9375 6.10044ZM8 10.6938C6.32 10.6938 4.97 9.48711 4.97 8.00044C4.97 6.51378 6.32 5.30711 8 5.30711C9.68 5.30711 11.03 6.51378 11.03 8.00044C11.03 9.48711 9.68 10.6938 8 10.6938Z" fill="#CACFD8"/>
<path d="M7.9998 6.09375C6.8223 6.09375 5.8623 6.94708 5.8623 8.00042C5.8623 9.04708 6.8223 9.90042 7.9998 9.90042C9.1773 9.90042 10.1448 9.04708 10.1448 8.00042C10.1448 6.95375 9.1773 6.09375 7.9998 6.09375Z" fill="#CACFD8"/>
</svg>
