<svg width="16" height="16" viewBox="0 0 16 16" fill="none" xmlns="http://www.w3.org/2000/svg">
<path d="M12.6663 5.616V4.66666C12.6663 2.08934 10.577 0 7.99966 0C5.42232 0 3.33301 2.08934 3.33301 4.66666V5.616C2.1197 6.14553 1.33476 7.34284 1.33301 8.66666V12.6667C1.3352 14.5067 2.82629 15.9978 4.66632 16H11.333C13.173 15.9978 14.6641 14.5067 14.6663 12.6667V8.66666C14.6646 7.34284 13.8796 6.14553 12.6663 5.616ZM8.66632 11.3333C8.66632 11.7015 8.36785 12 7.99966 12C7.63148 12 7.33301 11.7015 7.33301 11.3333V10C7.33301 9.63181 7.63148 9.33334 7.99966 9.33334C8.36785 9.33334 8.66632 9.63181 8.66632 10V11.3333ZM11.333 5.33334H4.66632V4.66669C4.66632 2.82575 6.1587 1.33334 7.99966 1.33334C9.84063 1.33334 11.333 2.82572 11.333 4.66669V5.33334Z" fill="#CACFD8"/>
</svg>
