<svg width="16" height="16" viewBox="0 0 16 16" fill="none" xmlns="http://www.w3.org/2000/svg">
<path d="M11.5 2H4.5C2.4 2 1 3.05882 1 5.52941V10.4706C1 12.9412 2.4 14 4.5 14H11.5C13.6 14 15 12.9412 15 10.4706V5.52941C15 3.05882 13.6 2 11.5 2ZM11.829 6.29882L9.638 8.06353C9.176 8.43765 8.588 8.62118 8 8.62118C7.412 8.62118 6.817 8.43765 6.362 8.06353L4.171 6.29882C3.947 6.11529 3.912 5.77647 4.087 5.55059C4.269 5.32471 4.598 5.28235 4.822 5.46588L7.013 7.23059C7.545 7.66118 8.448 7.66118 8.98 7.23059L11.171 5.46588C11.395 5.28235 11.731 5.31765 11.906 5.55059C12.088 5.77647 12.053 6.11529 11.829 6.29882Z" fill="#CACFD8"/>
</svg>
