<svg width="16" height="16" viewBox="0 0 16 16" fill="none" xmlns="http://www.w3.org/2000/svg">
<path d="M6.66634 11.3008H4.13967C1.89301 11.3008 1.33301 10.7408 1.33301 8.49417V4.49417C1.33301 2.2475 1.89301 1.6875 4.13967 1.6875H11.1597C13.4063 1.6875 13.9663 2.2475 13.9663 4.49417" stroke="#BFBFBF" stroke-width="1.3" stroke-linecap="round" stroke-linejoin="round"/>
<path d="M6.66699 14.3141V11.3008" stroke="#BFBFBF" stroke-width="1.3" stroke-linecap="round" stroke-linejoin="round"/>
<path d="M1.33301 8.63281H6.66634" stroke="#BFBFBF" stroke-width="1.3" stroke-linecap="round" stroke-linejoin="round"/>
<path d="M4.49316 14.3125H6.6665" stroke="#BFBFBF" stroke-width="1.3" stroke-linecap="round" stroke-linejoin="round"/>
<path d="M14.6668 8.53193V12.3386C14.6668 13.9186 14.2735 14.3119 12.6935 14.3119H10.3268C8.74685 14.3119 8.35352 13.9186 8.35352 12.3386V8.53193C8.35352 6.95193 8.74685 6.55859 10.3268 6.55859H12.6935C14.2735 6.55859 14.6668 6.95193 14.6668 8.53193Z" stroke="#BFBFBF" stroke-width="1.3" stroke-linecap="round" stroke-linejoin="round"/>
<path d="M11.4967 12.1654H11.5027" stroke="#BFBFBF" stroke-width="1.3" stroke-linecap="round" stroke-linejoin="round"/>
</svg>
