<svg width="13" height="13" viewBox="0 0 13 13" fill="none" xmlns="http://www.w3.org/2000/svg">
<path d="M5.62825 0.437963C6.02546 -0.14161 6.88079 -0.14161 7.278 0.437962L8.89713 2.80047C9.02716 2.9902 9.21862 3.12931 9.43925 3.19435L12.1865 4.00418C12.8604 4.20285 13.1247 5.01631 12.6963 5.57318L10.9497 7.84312C10.8095 8.02542 10.7363 8.25049 10.7427 8.48042L10.8214 11.3434C10.8407 12.0458 10.1487 12.5485 9.48673 12.3131L6.78817 11.3535C6.57146 11.2765 6.3348 11.2765 6.11808 11.3535L3.41952 12.3131C2.75751 12.5485 2.06553 12.0458 2.08485 11.3434L2.16359 8.48042C2.16992 8.25049 2.09679 8.02542 1.95652 7.84312L0.209981 5.57318C-0.218481 5.01631 0.0458295 4.20285 0.719779 4.00418L3.467 3.19435C3.68763 3.12931 3.87909 2.9902 4.00912 2.80047L5.62825 0.437963Z" fill="#FFCC00"/>
</svg>
