<svg width="24" height="24" viewBox="0 0 24 24" fill="none" xmlns="http://www.w3.org/2000/svg">
<path d="M3 6.40021V16.6002C3 17.7903 3 18.3851 3.23161 18.8396C3.43534 19.2395 3.76019 19.5649 4.16003 19.7686C4.61415 20 5.20893 20 6.39672 20H16.6033C17.7911 20 18.385 20 18.8391 19.7686C19.239 19.5649 19.5649 19.2395 19.7686 18.8396C20 18.3855 20 17.7916 20 16.6038V6.39672C20 5.20893 20 4.61415 19.7686 4.16003C19.5649 3.76019 19.239 3.43534 18.8391 3.23161C18.3845 3 17.7903 3 16.6002 3H6.40021C5.2101 3 4.6146 3 4.16003 3.23161C3.76019 3.43534 3.43534 3.76019 3.23161 4.16003C3 4.6146 3 5.2101 3 6.40021Z" fill="#4FC0FC" stroke="#4FC0FC" stroke-width="0.2" stroke-linecap="round" stroke-linejoin="round"/>
<path d="M8 11.1875L11.1875 14.375L16.5 8" stroke="white" stroke-width="2" stroke-linecap="round" stroke-linejoin="round"/>
</svg>
