<svg width="20" height="20" viewBox="0 0 20 20" fill="none" xmlns="http://www.w3.org/2000/svg">
<path d="M14.647 6.246C14.415 3.923 12.817 2 10 2C7.183 2 5.587 3.908 5.353 6.246H5.283C3.468 6.246 2 7.758 2 9.623C2 11.488 3.47 13 5.282 13H7.772C7.8718 11.8557 8.31204 10.7675 9.03598 9.87566C9.75992 8.98384 10.7344 8.32928 11.8337 7.99636C12.9331 7.66345 14.107 7.66743 15.204 8.00779C16.3011 8.34815 17.2711 9.00929 17.989 9.906C17.9957 9.81267 17.9993 9.71833 18 9.623C18 7.758 16.53 6.246 14.718 6.246H14.647ZM18 13.5C18 14.6935 17.5259 15.8381 16.682 16.682C15.8381 17.5259 14.6935 18 13.5 18C12.3065 18 11.1619 17.5259 10.318 16.682C9.47411 15.8381 9 14.6935 9 13.5C9 12.3065 9.47411 11.1619 10.318 10.318C11.1619 9.47411 12.3065 9 13.5 9C14.6935 9 15.8381 9.47411 16.682 10.318C17.5259 11.1619 18 12.3065 18 13.5ZM13.5 11C13.3674 11 13.2402 11.0527 13.1464 11.1464C13.0527 11.2402 13 11.3674 13 11.5V13.5C13 13.6326 13.0527 13.7598 13.1464 13.8536C13.2402 13.9473 13.3674 14 13.5 14C13.6326 14 13.7598 13.9473 13.8536 13.8536C13.9473 13.7598 14 13.6326 14 13.5V11.5C14 11.3674 13.9473 11.2402 13.8536 11.1464C13.7598 11.0527 13.6326 11 13.5 11ZM13.5 16.125C13.6658 16.125 13.8247 16.0592 13.9419 15.9419C14.0592 15.8247 14.125 15.6658 14.125 15.5C14.125 15.3342 14.0592 15.1753 13.9419 15.0581C13.8247 14.9408 13.6658 14.875 13.5 14.875C13.3342 14.875 13.1753 14.9408 13.0581 15.0581C12.9408 15.1753 12.875 15.3342 12.875 15.5C12.875 15.6658 12.9408 15.8247 13.0581 15.9419C13.1753 16.0592 13.3342 16.125 13.5 16.125Z" fill="#FF0000" fill-opacity="0.2"/>
<path d="M18 13.5C18 14.6935 17.5259 15.8381 16.682 16.682C15.8381 17.5259 14.6935 18 13.5 18C12.3065 18 11.1619 17.5259 10.318 16.682C9.47411 15.8381 9 14.6935 9 13.5C9 12.3065 9.47411 11.1619 10.318 10.318C11.1619 9.47411 12.3065 9 13.5 9C14.6935 9 15.8381 9.47411 16.682 10.318C17.5259 11.1619 18 12.3065 18 13.5ZM13.5 11C13.3674 11 13.2402 11.0527 13.1464 11.1464C13.0527 11.2402 13 11.3674 13 11.5V13.5C13 13.6326 13.0527 13.7598 13.1464 13.8536C13.2402 13.9473 13.3674 14 13.5 14C13.6326 14 13.7598 13.9473 13.8536 13.8536C13.9473 13.7598 14 13.6326 14 13.5V11.5C14 11.3674 13.9473 11.2402 13.8536 11.1464C13.7598 11.0527 13.6326 11 13.5 11ZM13.5 16.125C13.6658 16.125 13.8247 16.0592 13.9419 15.9419C14.0592 15.8247 14.125 15.6658 14.125 15.5C14.125 15.3342 14.0592 15.1753 13.9419 15.0581C13.8247 14.9408 13.6658 14.875 13.5 14.875C13.3342 14.875 13.1753 14.9408 13.0581 15.0581C12.9408 15.1753 12.875 15.3342 12.875 15.5C12.875 15.6658 12.9408 15.8247 13.0581 15.9419C13.1753 16.0592 13.3342 16.125 13.5 16.125Z" fill="#FF0000"/>
</svg>
