<svg width="64" height="64" viewBox="0 0 64 64" fill="none" xmlns="http://www.w3.org/2000/svg">
<path opacity="0.1" d="M31.9993 60.333C47.6474 60.333 60.3327 47.6477 60.3327 31.9997C60.3327 16.3516 47.6474 3.66632 31.9993 3.66632C16.3513 3.66632 3.66602 16.3516 3.66602 31.9997C3.66602 47.6477 16.3513 60.333 31.9993 60.333Z" fill="#027CFA"/>
<path d="M27.9761 42.1436C27.4094 42.1436 26.8711 41.9169 26.4744 41.5203L18.4561 33.5019C17.6344 32.6803 17.6344 31.3203 18.4561 30.4986C19.2778 29.6769 20.6378 29.6769 21.4594 30.4986L27.9761 37.0153L42.5394 22.4519C43.3611 21.6303 44.7211 21.6303 45.5428 22.4519C46.3644 23.2736 46.3644 24.6336 45.5428 25.4553L29.4778 41.5203C29.0811 41.9169 28.5428 42.1436 27.9761 42.1436Z" fill="#027CFA"/>
</svg>
