<svg width="16" height="16" viewBox="0 0 16 16" fill="none" xmlns="http://www.w3.org/2000/svg">
<path d="M7.41406 2.16602H6.2474C3.33073 2.16602 2.16406 3.33268 2.16406 6.24935V9.74935C2.16406 12.666 3.33073 13.8327 6.2474 13.8327H9.7474C12.6641 13.8327 13.8307 12.666 13.8307 9.74935V8.58268" stroke="#BFBFBF" stroke-width="1.5" stroke-linecap="round" stroke-linejoin="round"/>
<path d="M10.3581 2.76011L5.76139 7.35677C5.58639 7.53177 5.41139 7.87594 5.37639 8.12677L5.12556 9.8826C5.03223 10.5184 5.48139 10.9618 6.11723 10.8743L7.87306 10.6234C8.11806 10.5884 8.46223 10.4134 8.64306 10.2384L13.2397 5.64177C14.0331 4.84844 14.4064 3.92677 13.2397 2.76011C12.0731 1.59344 11.1514 1.96677 10.3581 2.76011Z" stroke="#BFBFBF" stroke-width="1.5" stroke-miterlimit="10" stroke-linecap="round" stroke-linejoin="round"/>
<path d="M9.69922 3.41992C10.0901 4.81409 11.1809 5.90492 12.5809 6.30159" stroke="#BFBFBF" stroke-width="1.5" stroke-miterlimit="10" stroke-linecap="round" stroke-linejoin="round"/>
</svg>
