<svg width="16" height="16" viewBox="0 0 16 16" fill="none" xmlns="http://www.w3.org/2000/svg">
<path d="M3.625 6.75H4.875C6.125 6.75 6.75 6.125 6.75 4.875V3.625C6.75 2.375 6.125 1.75 4.875 1.75H3.625C2.375 1.75 1.75 2.375 1.75 3.625V4.875C1.75 6.125 2.375 6.75 3.625 6.75Z" stroke="#BFBFBF" stroke-width="1.3" stroke-miterlimit="10" stroke-linecap="round" stroke-linejoin="round"/>
<path d="M11.125 6.75H12.375C13.625 6.75 14.25 6.125 14.25 4.875V3.625C14.25 2.375 13.625 1.75 12.375 1.75H11.125C9.875 1.75 9.25 2.375 9.25 3.625V4.875C9.25 6.125 9.875 6.75 11.125 6.75Z" stroke="#BFBFBF" stroke-width="1.3" stroke-miterlimit="10" stroke-linecap="round" stroke-linejoin="round"/>
<path d="M11.125 14.25H12.375C13.625 14.25 14.25 13.625 14.25 12.375V11.125C14.25 9.875 13.625 9.25 12.375 9.25H11.125C9.875 9.25 9.25 9.875 9.25 11.125V12.375C9.25 13.625 9.875 14.25 11.125 14.25Z" stroke="#BFBFBF" stroke-width="1.3" stroke-miterlimit="10" stroke-linecap="round" stroke-linejoin="round"/>
<path d="M3.625 14.25H4.875C6.125 14.25 6.75 13.625 6.75 12.375V11.125C6.75 9.875 6.125 9.25 4.875 9.25H3.625C2.375 9.25 1.75 9.875 1.75 11.125V12.375C1.75 13.625 2.375 14.25 3.625 14.25Z" stroke="#BFBFBF" stroke-width="1.3" stroke-miterlimit="10" stroke-linecap="round" stroke-linejoin="round"/>
</svg>
