<svg width="36" height="33" viewBox="0 0 36 33" fill="none" xmlns="http://www.w3.org/2000/svg">
<path d="M10.1332 8.01838C12.7694 3.45239 14.0875 1.1694 15.8271 0.438134C17.2168 -0.146045 18.7832 -0.146045 20.1729 0.438134C21.9125 1.1694 23.2306 3.45239 25.8668 8.01838L32.2552 19.0834C34.8913 23.6494 36.2094 25.9324 35.9729 27.8045C35.784 29.3001 35.0008 30.6567 33.8 31.5681C32.2969 32.709 29.6607 32.709 24.3884 32.709H11.6116C6.33926 32.709 3.70309 32.709 2.19999 31.5681C0.999227 30.6567 0.216031 29.3001 0.0270913 27.8045C-0.209419 25.9324 1.10867 23.6494 3.74485 19.0834L10.1332 8.01838Z" fill="#FF0000"/>
<rect x="16.2002" y="8.78223" width="3.59854" height="13.2632" rx="1.74654" fill="#FFEBEB"/>
<rect x="16.2002" y="24.6172" width="3.59854" height="3.59854" rx="1.74654" fill="#FFEBEB"/>
</svg>
