<svg width="44" height="44" viewBox="0 0 44 44" fill="none" xmlns="http://www.w3.org/2000/svg">
<path d="M12.832 40.333H31.1654" stroke="black" stroke-opacity="0.2" stroke-width="3" stroke-linecap="round" stroke-linejoin="round"/>
<path d="M3.66602 31.1665V7.33317C3.66602 6.36071 4.05232 5.42808 4.73996 4.74045C5.42759 4.05281 6.36022 3.6665 7.33268 3.6665H36.666C37.6385 3.6665 38.5711 4.05281 39.2587 4.74045C39.9464 5.42808 40.3327 6.36071 40.3327 7.33317V31.1665C40.3327 32.139 39.9464 33.0716 39.2587 33.7592C38.5711 34.4469 37.6385 34.8332 36.666 34.8332H7.33268C6.36022 34.8332 5.42759 34.4469 4.73996 33.7592C4.05232 33.0716 3.66602 32.139 3.66602 31.1665Z" stroke="black" stroke-opacity="0.2" stroke-width="3"/>
<path d="M16.5 19.2497L20.1667 22.9163L27.5 15.583" stroke="black" stroke-opacity="0.2" stroke-width="3" stroke-linecap="round" stroke-linejoin="round"/>
</svg>
