<svg width="17" height="17" viewBox="0 0 17 17" fill="none" xmlns="http://www.w3.org/2000/svg">
<path d="M0.457275 7.71057C0.457275 7.17321 0.663995 6.65405 1.0391 6.24959L3.02729 4.10611C3.56349 3.52795 4.57287 3.88574 4.57287 4.65397V11.3186C4.57287 12.0868 3.56349 12.4446 3.02729 11.8664L1.0391 9.72299C0.663995 9.31853 0.457275 8.79937 0.457275 8.26201V7.71057Z" fill="white"/>
<path d="M0 5.34591C0 2.39344 2.53705 0 5.66667 0H11.3333C14.463 0 17 2.39344 17 5.34591V10.6918C17 13.6443 14.463 16.0377 11.3333 16.0377H5.66667C2.53705 16.0377 0 13.6443 0 10.6918V5.34591Z" fill="#3984FD"/>
<path d="M3.54205 6.01199C3.54205 5.64293 3.85919 5.34375 4.25039 5.34375H8.50039C9.67402 5.34375 10.6254 6.2413 10.6254 7.34847V10.0214C10.6254 10.3905 10.3083 10.6897 9.91705 10.6897H5.66705C4.49345 10.6897 3.54205 9.79215 3.54205 8.68494V6.01199Z" fill="white"/>
<path d="M10.9801 7.85124C10.9801 7.52754 11.1046 7.21481 11.3306 6.97117L12.5282 5.67997C12.8512 5.3317 13.4593 5.54722 13.4593 6.00999V10.0247C13.4593 10.4874 12.8512 10.7029 12.5282 10.3547L11.3306 9.06349C11.1046 8.81985 10.9801 8.50712 10.9801 8.18342V7.85124Z" fill="white"/>
</svg>
