<svg width="16" height="16" viewBox="0 0 16 16" fill="none" xmlns="http://www.w3.org/2000/svg">
<g clip-path="url(#clip0_124_18858)">
<path d="M11.099 10.8889C10.2233 10.8889 9.51341 11.5853 9.51341 12.4444C9.51341 13.3036 10.2233 14 11.099 14C11.9747 14 12.6845 13.3036 12.6845 12.4444C12.6845 11.5853 11.9747 10.8889 11.099 10.8889ZM11.099 10.8889H4.98974C4.62422 10.8889 4.44112 10.8889 4.29063 10.8251C4.15788 10.7688 4.04271 10.6782 3.9588 10.5626C3.86474 10.4331 3.82692 10.2599 3.75204 9.91708L1.8008 0.983615C1.72418 0.632826 1.68535 0.457627 1.59021 0.326606C1.5063 0.211049 1.39115 0.120099 1.2584 0.0638155C1.10788 0 0.925804 0 0.560129 0H0M2.37835 2.33333H12.584C13.1562 2.33333 13.4421 2.33333 13.6341 2.45028C13.8023 2.55272 13.9255 2.71337 13.9792 2.90034C14.0405 3.11378 13.9617 3.3833 13.8031 3.92269L12.7054 7.65602C12.6106 7.97852 12.5632 8.13947 12.467 8.25913C12.3821 8.36476 12.2701 8.44744 12.1431 8.49821C11.9997 8.55556 11.8292 8.55556 11.4891 8.55556H3.75024M3.96392 14C3.08823 14 2.37835 13.3036 2.37835 12.4444C2.37835 11.5853 3.08823 10.8889 3.96392 10.8889C4.8396 10.8889 5.54949 11.5853 5.54949 12.4444C5.54949 13.3036 4.8396 14 3.96392 14Z" stroke="#BFBFBF" stroke-width="1.3" stroke-linecap="round" stroke-linejoin="round"/>
</g>
<defs>
<clipPath id="clip0_124_18858">
<rect width="16" height="16" fill="white"/>
</clipPath>
</defs>
</svg>
