<svg width="16" height="16" viewBox="0 0 16 16" fill="none" xmlns="http://www.w3.org/2000/svg">
<path d="M12.3806 3.4138L8.91562 1.41297C8.34979 1.0863 7.64979 1.0863 7.07812 1.41297L3.61896 3.4138C3.05312 3.74047 2.70312 4.34714 2.70312 5.0063V8.9963C2.70312 9.64964 3.05312 10.2563 3.61896 10.5888L7.08396 12.5896C7.64979 12.9163 8.34979 12.9163 8.92146 12.5896L12.3865 10.5888C12.9523 10.2621 13.3023 9.65547 13.3023 8.9963V5.0063C13.2965 4.34714 12.9465 3.7463 12.3806 3.4138ZM9.31229 7.81797L8.70562 8.16797L8.09896 8.51797C7.32312 8.96714 6.68729 8.59964 6.68729 7.7013V7.0013V6.3013C6.68729 5.40297 7.32312 5.03547 8.09896 5.48463L8.70562 5.83464L9.31229 6.18464C10.0881 6.6338 10.0881 7.3688 9.31229 7.81797Z" fill="#4FC0FC"/>
</svg>
