<svg width="17" height="15" viewBox="0 0 17 15" fill="none" xmlns="http://www.w3.org/2000/svg">
<g clip-path="url(#clip0_1112_5909)">
<path d="M9.61713 7.50104L11.2744 9.53229L13.5028 11.0594L13.8914 7.51354L13.5028 4.04688L11.2316 5.38854L9.61713 7.50104Z" fill="#00832D"/>
<path d="M0 10.7305V13.7513C0 14.4419 0.521657 15.0013 1.16571 15.0013H3.98286L4.56571 12.718L3.98286 10.7305L2.04971 10.1055L0 10.7305Z" fill="#0066DA"/>
<path d="M3.98286 0L0 4.27083L2.04971 4.89583L3.98286 4.27083L4.556 2.31042L3.98286 0Z" fill="#E94235"/>
<path d="M3.98286 4.26953H0V10.7279H3.98286V4.26953Z" fill="#2684FC"/>
<path d="M16.048 1.80698L13.5028 4.04448V11.057L16.0596 13.3049C16.4424 13.6257 17.0019 13.333 17.0019 12.8111V2.29031C17.0019 1.76219 16.4298 1.4726 16.048 1.80698ZM9.61713 7.49865V10.7278H3.98285V14.9986H12.3371C12.9812 14.9986 13.5028 14.4393 13.5028 13.7486V11.057L9.61713 7.49865Z" fill="#00AC47"/>
<path d="M12.3371 0H3.98285V4.27083H9.61713V7.5L13.5028 4.04792V1.25C13.5028 0.559375 12.9812 0 12.3371 0Z" fill="#FFBA00"/>
</g>
<defs>
<clipPath id="clip0_1112_5909">
<rect width="17" height="15" fill="white"/>
</clipPath>
</defs>
</svg>
