<svg width="16" height="16" viewBox="0 0 16 16" fill="none" xmlns="http://www.w3.org/2000/svg">
<path d="M11.9863 7.19334V9.86001C11.9863 10.0333 11.9797 10.2 11.9597 10.36C11.8063 12.16 10.7463 13.0533 8.79301 13.0533H8.52635C8.35968 13.0533 8.19967 13.1333 8.09967 13.2667L7.29968 14.3333C6.94635 14.8067 6.37301 14.8067 6.01967 14.3333L5.21967 13.2667C5.133 13.1533 4.93968 13.0533 4.79301 13.0533H4.52635C2.39968 13.0533 1.33301 12.5267 1.33301 9.86001V7.19334C1.33301 5.24001 2.23301 4.18001 4.02635 4.02667C4.18635 4.00667 4.35301 4 4.52635 4H8.79301C10.9197 4 11.9863 5.06667 11.9863 7.19334Z" stroke="#BFBFBF" stroke-width="1.3" stroke-miterlimit="10" stroke-linecap="round" stroke-linejoin="round"/>
<path d="M14.653 4.52537V7.19204C14.653 9.15204 13.753 10.2054 11.9597 10.3587C11.9797 10.1987 11.9864 10.032 11.9864 9.8587V7.19204C11.9864 5.06537 10.9197 3.9987 8.79303 3.9987H4.52637C4.35303 3.9987 4.18637 4.00537 4.02637 4.02537C4.1797 2.23204 5.2397 1.33203 7.19303 1.33203H11.4597C13.5864 1.33203 14.653 2.3987 14.653 4.52537Z" stroke="#BFBFBF" stroke-width="1.3" stroke-miterlimit="10" stroke-linecap="round" stroke-linejoin="round"/>
<path d="M8.99733 8.83333H9.00333" stroke="#BFBFBF" stroke-width="1.3" stroke-linecap="round" stroke-linejoin="round"/>
<path d="M6.66334 8.83333H6.66934" stroke="#BFBFBF" stroke-width="1.3" stroke-linecap="round" stroke-linejoin="round"/>
<path d="M4.33033 8.83333H4.33633" stroke="#BFBFBF" stroke-width="1.3" stroke-linecap="round" stroke-linejoin="round"/>
</svg>
