<svg width="16" height="16" viewBox="0 0 16 16" fill="none" xmlns="http://www.w3.org/2000/svg">
<path d="M13.8307 10.7637V3.72285C13.8307 3.02285 13.2591 2.50369 12.5649 2.56202H12.5299C11.3049 2.66702 9.44406 3.29119 8.40573 3.94452L8.30656 4.00869C8.1374 4.11369 7.8574 4.11369 7.68823 4.00869L7.5424 3.92119C6.50406 3.27369 4.64906 2.65535 3.42406 2.55619C2.7299 2.49785 2.16406 3.02285 2.16406 3.71702V10.7637C2.16406 11.3237 2.61906 11.8487 3.17906 11.9187L3.34823 11.942C4.61406 12.1112 6.56823 12.7529 7.68823 13.3654L7.71156 13.377C7.86906 13.4645 8.1199 13.4645 8.27156 13.377C9.39156 12.7587 11.3516 12.1112 12.6232 11.942L12.8157 11.9187C13.3757 11.8487 13.8307 11.3237 13.8307 10.7637Z" stroke="#BFBFBF" stroke-width="1.5" stroke-linecap="round" stroke-linejoin="round"/>
<path d="M8 4.20312V12.9531" stroke="#BFBFBF" stroke-width="1.5" stroke-linecap="round" stroke-linejoin="round"/>
<path d="M5.52344 5.95312H4.21094" stroke="#BFBFBF" stroke-width="1.5" stroke-linecap="round" stroke-linejoin="round"/>
<path d="M5.96094 7.70312H4.21094" stroke="#BFBFBF" stroke-width="1.5" stroke-linecap="round" stroke-linejoin="round"/>
</svg>
