<svg width="16" height="16" viewBox="0 0 16 16" fill="none" xmlns="http://www.w3.org/2000/svg">
<path d="M7.66634 6.16797H1.33301C1.05967 6.16797 0.833008 5.9413 0.833008 5.66797C0.833008 5.39464 1.05967 5.16797 1.33301 5.16797H7.66634C7.93967 5.16797 8.16634 5.39464 8.16634 5.66797C8.16634 5.9413 7.93967 6.16797 7.66634 6.16797Z" fill="#BFBFBF"/>
<path d="M5.33333 11.5H4C3.72667 11.5 3.5 11.2733 3.5 11C3.5 10.7267 3.72667 10.5 4 10.5H5.33333C5.60667 10.5 5.83333 10.7267 5.83333 11C5.83333 11.2733 5.60667 11.5 5.33333 11.5Z" fill="#BFBFBF"/>
<path d="M9.66667 11.5H7C6.72667 11.5 6.5 11.2733 6.5 11C6.5 10.7267 6.72667 10.5 7 10.5H9.66667C9.94 10.5 10.1667 10.7267 10.1667 11C10.1667 11.2733 9.94 11.5 9.66667 11.5Z" fill="#BFBFBF"/>
<path d="M11.7063 14.1654H4.29301C1.63967 14.1654 0.833008 13.3654 0.833008 10.7387V5.2587C0.833008 2.63203 1.63967 1.83203 4.29301 1.83203H9.66634C9.93967 1.83203 10.1663 2.0587 10.1663 2.33203C10.1663 2.60536 9.93967 2.83203 9.66634 2.83203H4.29301C2.19967 2.83203 1.83301 3.19203 1.83301 5.2587V10.732C1.83301 12.7987 2.19967 13.1587 4.29301 13.1587H11.6997C13.793 13.1587 14.1597 12.7987 14.1597 10.732V8.01203C14.1597 7.7387 14.3863 7.51203 14.6597 7.51203C14.933 7.51203 15.1597 7.7387 15.1597 8.01203V10.732C15.1663 13.3654 14.3597 14.1654 11.7063 14.1654Z" fill="#BFBFBF"/>
<path d="M10.3463 7.6267C10.0863 7.6267 9.83963 7.53337 9.66629 7.35337C9.45296 7.14003 9.35963 6.83337 9.40629 6.51337L9.53963 5.5667C9.57296 5.3267 9.71963 5.04003 9.88629 4.87337L12.3596 2.40003C13.3396 1.42003 14.193 1.98003 14.6196 2.40003C15.0396 2.82003 15.5996 3.67337 14.6196 4.66003L12.1463 7.13337C11.973 7.3067 11.6863 7.4467 11.453 7.48003L10.5063 7.61337C10.453 7.62003 10.3996 7.6267 10.3463 7.6267ZM13.4863 2.85337C13.353 2.85337 13.233 2.9467 13.0663 3.1067L10.5996 5.58003C10.5796 5.6067 10.5396 5.68003 10.533 5.71337L10.3996 6.61337L11.3063 6.4867C11.3396 6.48003 11.413 6.44003 11.4396 6.42003L13.913 3.9467C14.2263 3.63337 14.273 3.46003 13.913 3.1067C13.7396 2.93337 13.613 2.85337 13.4863 2.85337Z" fill="#BFBFBF"/>
<path d="M13.9131 5.16101C13.8665 5.16101 13.8198 5.15435 13.7798 5.14101C12.8665 4.88101 12.1398 4.16101 11.8865 3.24768C11.8131 2.98101 11.9665 2.70768 12.2331 2.62768C12.4998 2.55435 12.7731 2.70768 12.8531 2.97435C13.0198 3.55435 13.4798 4.01435 14.0598 4.18101C14.3265 4.25435 14.4798 4.53435 14.4065 4.79435C14.3331 5.01435 14.1331 5.16101 13.9131 5.16101Z" fill="#BFBFBF"/>
</svg>
