<svg width="16" height="16" viewBox="0 0 16 16" fill="none" xmlns="http://www.w3.org/2000/svg">
<path d="M13.6648 6.24214C12.8599 4.84456 11.0532 2.5 8 2.5C4.94744 2.5 3.14074 4.84456 2.33516 6.24214C1.88828 7.01781 1.88828 7.98219 2.33516 8.75786C3.14074 10.1554 4.94744 12.5 8 12.5C11.0532 12.5 12.8599 10.1554 13.6648 8.75786C14.1117 7.98219 14.1117 7.01844 13.6648 6.24214ZM12.6361 8.11474C11.9613 9.28606 10.4623 11.2505 8 11.2505C5.53828 11.2505 4.03869 9.28543 3.36387 8.11474C3.14553 7.73596 3.14553 7.26466 3.36387 6.88526C4.03869 5.71457 5.53828 3.74947 8 3.74947C10.4623 3.74947 11.9613 5.71394 12.6361 6.88526C12.8545 7.26466 12.8545 7.73596 12.6361 8.11474ZM8 4.68763C6.51181 4.68763 5.30074 5.94959 5.30074 7.50031C5.30074 9.05102 6.51181 10.313 8 10.313C9.48819 10.313 10.6993 9.05102 10.6993 7.50031C10.6993 5.94959 9.48819 4.68763 8 4.68763ZM8 9.0629C7.17343 9.0629 6.50041 8.36223 6.50041 7.50031C6.50041 6.63838 7.17343 5.93771 8 5.93771C8.82657 5.93771 9.49959 6.63838 9.49959 7.50031C9.49959 8.36223 8.82657 9.0629 8 9.0629Z" fill="#BFBFBF"/>
</svg>
