<svg width="35" height="20" viewBox="0 0 35 20" fill="none" xmlns="http://www.w3.org/2000/svg">
<path d="M7.6362 3.77146C8.11684 2.3649 10.0603 2.3223 10.6302 3.64367L10.6784 3.77227L11.327 5.66912C11.4757 6.10413 11.7159 6.50221 12.0314 6.8365C12.347 7.17079 12.7306 7.43352 13.1564 7.60696L13.3308 7.67206L15.2276 8.31988C16.6342 8.80052 16.6768 10.744 15.3562 11.3138L15.2276 11.3621L13.3308 12.0107C12.8956 12.1592 12.4974 12.3994 12.1629 12.715C11.8285 13.0306 11.5656 13.4142 11.3921 13.84L11.327 14.0136L10.6792 15.9113C10.1986 17.3179 8.25508 17.3605 7.68603 16.0399L7.6362 15.9113L6.98837 14.0144C6.83983 13.5793 6.59966 13.181 6.28408 12.8466C5.96851 12.5122 5.58486 12.2493 5.15904 12.0758L4.98543 12.0107L3.08858 11.3629C1.68122 10.8822 1.63862 8.93877 2.95998 8.36971L3.08858 8.31988L4.98543 7.67206C5.42045 7.52341 5.81853 7.2832 6.15282 6.96763C6.48711 6.65206 6.74983 6.26846 6.92327 5.84272L6.98837 5.66912L7.6362 3.77146Z" fill="#F933F2"/>
<path d="M15.5881 1C15.7385 1 15.8858 1.04218 16.0134 1.12175C16.141 1.20131 16.2437 1.31507 16.3099 1.4501L16.3484 1.54414L16.6297 2.36879L17.4552 2.6501C17.6059 2.70129 17.738 2.79607 17.8348 2.92242C17.9315 3.04877 17.9886 3.201 17.9988 3.35983C18.0089 3.51865 17.9717 3.67691 17.8918 3.81456C17.8119 3.95221 17.693 4.06304 17.55 4.13302L17.4552 4.1716L16.6306 4.45291L16.3492 5.27836C16.298 5.42901 16.2031 5.56104 16.0767 5.65772C15.9503 5.75441 15.7981 5.8114 15.6392 5.82147C15.4804 5.83154 15.3222 5.79424 15.1846 5.7143C15.047 5.63435 14.9362 5.51536 14.8663 5.3724L14.8277 5.27836L14.5464 4.45371L13.721 4.1724C13.5703 4.12121 13.4382 4.02643 13.3414 3.90008C13.2447 3.77373 13.1876 3.6215 13.1774 3.46267C13.1673 3.30385 13.2045 3.14559 13.2844 3.00794C13.3642 2.87029 13.4832 2.75946 13.6261 2.68948L13.721 2.6509L14.5456 2.36959L14.8269 1.54414C14.8811 1.38534 14.9837 1.24748 15.1202 1.1499C15.2567 1.05232 15.4203 0.999899 15.5881 1Z" fill="#F933F2" fill-opacity="0.4"/>
<path d="M26.583 6.83838L24.0693 14.5H22.0444L25.4785 5.25781H26.7671L26.583 6.83838ZM28.6714 14.5L26.1514 6.83838L25.9482 5.25781H27.2495L30.7026 14.5H28.6714ZM28.5571 11.0596V12.5513H23.6758V11.0596H28.5571ZM33.3245 5.25781V14.5H31.4265V5.25781H33.3245Z" fill="#F933F2"/>
</svg>
