<svg width="24" height="24" viewBox="0 0 24 24" fill="none" xmlns="http://www.w3.org/2000/svg">
<g clip-path="url(#clip0_665_65496)">
<path opacity="0.1" d="M12 22.625C17.868 22.625 22.625 17.868 22.625 12C22.625 6.13197 17.868 1.375 12 1.375C6.13197 1.375 1.375 6.13197 1.375 12C1.375 17.868 6.13197 22.625 12 22.625Z" fill="#027CFA"/>
<path d="M10.4925 15.8039C10.28 15.8039 10.0781 15.7189 9.92938 15.5702L6.9225 12.5633C6.61438 12.2552 6.61438 11.7452 6.9225 11.4371C7.23062 11.1289 7.74062 11.1289 8.04875 11.4371L10.4925 13.8808L15.9538 8.41957C16.2619 8.11145 16.7719 8.11145 17.08 8.41957C17.3881 8.7277 17.3881 9.23769 17.08 9.54582L11.0556 15.5702C10.9069 15.7189 10.705 15.8039 10.4925 15.8039Z" fill="#027CFA"/>
</g>
<defs>
<clipPath id="clip0_665_65496">
<rect width="24" height="24" fill="white"/>
</clipPath>
</defs>
</svg>
