<svg width="64" height="64" viewBox="0 0 64 64" fill="none" xmlns="http://www.w3.org/2000/svg">
<g clip-path="url(#clip0_2615_79211)">
<path opacity="0.12" d="M59.1113 43.2924L41.3334 11.6021C38.9445 7.33826 35.6389 5 32 5C28.3611 5 25.0555 7.33826 22.6666 11.6021L4.88868 43.2924C2.63866 47.3362 2.38866 51.215 4.19423 54.2685C5.9998 57.322 9.55538 59 14.2221 59H49.7779C54.4446 59 58.0002 57.322 59.8058 54.2685C61.6113 51.215 61.3613 47.3087 59.1113 43.2924Z" fill="#FF0000"/>
<path d="M32 39.7917C30.8383 39.7917 29.875 38.8283 29.875 37.6667V23.5C29.875 22.3383 30.8383 21.375 32 21.375C33.1617 21.375 34.125 22.3383 34.125 23.5V37.6667C34.125 38.8283 33.1617 39.7917 32 39.7917Z" fill="#FF0000"/>
<path d="M31.9993 49.0002C31.8293 49.0002 31.631 48.9718 31.4327 48.9435C31.2627 48.9152 31.0927 48.8585 30.9227 48.7735C30.7527 48.7168 30.5827 48.6318 30.4127 48.5185C30.271 48.4052 30.1293 48.2918 29.9877 48.1785C29.4777 47.6402 29.166 46.9035 29.166 46.1668C29.166 45.4302 29.4777 44.6935 29.9877 44.1552C30.1293 44.0418 30.271 43.9285 30.4127 43.8152C30.5827 43.7018 30.7527 43.6168 30.9227 43.5602C31.0927 43.4752 31.2627 43.4185 31.4327 43.3902C31.801 43.3052 32.1977 43.3052 32.5377 43.3902C32.736 43.4185 32.906 43.4752 33.076 43.5602C33.246 43.6168 33.416 43.7018 33.586 43.8152C33.7277 43.9285 33.8693 44.0418 34.011 44.1552C34.521 44.6935 34.8327 45.4302 34.8327 46.1668C34.8327 46.9035 34.521 47.6402 34.011 48.1785C33.8693 48.2918 33.7277 48.4052 33.586 48.5185C33.416 48.6318 33.246 48.7168 33.076 48.7735C32.906 48.8585 32.736 48.9152 32.5377 48.9435C32.3677 48.9718 32.1693 49.0002 31.9993 49.0002Z" fill="#FF0000"/>
</g>
<defs>
<clipPath id="clip0_2615_79211">
<rect width="64" height="64" fill="white"/>
</clipPath>
</defs>
</svg>
