<svg width="44" height="45" viewBox="0 0 44 45" fill="none" xmlns="http://www.w3.org/2000/svg">
<path d="M16.2202 9.16078C17.9602 8.64078 19.8802 8.30078 22.0002 8.30078C31.5802 8.30078 39.3402 16.0608 39.3402 25.6408C39.3402 35.2208 31.5802 42.9808 22.0002 42.9808C12.4202 42.9808 4.66016 35.2208 4.66016 25.6408C4.66016 22.0808 5.74016 18.7608 7.58016 16.0008" stroke="#666666" stroke-width="2.4" stroke-linecap="round" stroke-linejoin="round"/>
<path d="M13.7402 9.64L19.5202 3" stroke="#666666" stroke-width="2.4" stroke-linecap="round" stroke-linejoin="round"/>
<path d="M13.7402 9.64062L20.4802 14.5606" stroke="#666666" stroke-width="2.4" stroke-linecap="round" stroke-linejoin="round"/>
<path d="M25.0542 31.2056C24.2602 31.2025 23.5769 31.0071 23.0045 30.6193C22.4351 30.2315 21.9966 29.6699 21.6888 28.9343C21.3841 28.1987 21.2333 27.3139 21.2364 26.2798C21.2364 25.2488 21.3887 24.3701 21.6934 23.6438C22.0012 22.9175 22.4397 22.3651 23.0091 21.9865C23.5815 21.6049 24.2632 21.4141 25.0542 21.4141C25.8452 21.4141 26.5253 21.6049 27.0947 21.9865C27.6671 22.3681 28.1072 22.9221 28.415 23.6484C28.7228 24.3717 28.8751 25.2488 28.872 26.2798C28.872 27.317 28.7181 28.2034 28.4104 28.9389C28.1057 29.6745 27.6687 30.2362 27.0993 30.6239C26.5299 31.0117 25.8482 31.2056 25.0542 31.2056ZM25.0542 29.5483C25.5959 29.5483 26.0283 29.2759 26.3514 28.7312C26.6746 28.1864 26.8346 27.3693 26.8315 26.2798C26.8315 25.5627 26.7577 24.9657 26.61 24.4886C26.4653 24.0116 26.2591 23.6531 25.9913 23.413C25.7267 23.1729 25.4143 23.0529 25.0542 23.0529C24.5156 23.0529 24.0847 23.3222 23.7616 23.8608C23.4384 24.3994 23.2753 25.2057 23.2722 26.2798C23.2722 27.0062 23.3446 27.6125 23.4892 28.0987C23.6369 28.5819 23.8447 28.9451 24.1124 29.1882C24.3802 29.4283 24.6941 29.5483 25.0542 29.5483Z" fill="#666666"/>
<path d="M19.8796 21.543V30.9975H17.8807V23.4403H17.8253L15.6602 24.7976V23.0249L18.0007 21.543H19.8796Z" fill="#666666"/>
</svg>
