<svg width="24" height="24" viewBox="0 0 24 24" fill="none" xmlns="http://www.w3.org/2000/svg">
<path d="M8.63467 18.6593C8.63467 19.6314 9.00442 20.2392 9.6626 20.9265C10.3208 21.6139 11.2135 22 12.1443 22C13.0751 22 13.9677 21.6139 14.6259 20.9265C15.2841 20.2392 15.6538 19.6314 15.6538 18.6593M9.80453 3.52621C9.80453 3.52621 10.0493 3.17389 10.4881 2.71566C10.9269 2.25743 11.522 2 12.1426 2C12.7631 2 13.3582 2.25743 13.797 2.71566C14.2358 3.17389 14.484 3.52621 14.484 3.52621C16.2567 4.74884 16.8537 4.8586 17.8001 6.12326C18.7465 7.38791 18.5056 11.0523 18.9995 12.5372C19.545 14.1774 20.0071 15.4279 20.3774 16.305C20.6858 17.0353 20.4884 17.9356 19.8394 18.3908C19.5903 18.5656 19.2934 18.6593 18.9891 18.6593H4.65606C4.10291 18.6593 3.59816 18.3439 3.35565 17.8468C3.13473 17.3939 3.17345 16.8638 3.42819 16.4291C3.65323 16.045 3.93639 15.5173 4.33228 14.6762C4.99155 13.2755 5.29398 11.7432 5.42411 10.2006C5.55464 8.65318 5.80347 6.93619 6.32243 6.12326C7.14678 4.83195 8.46105 4.18963 9.80453 3.52621Z" stroke="#222222" stroke-width="1.5" stroke-linecap="round" stroke-linejoin="round"/>
</svg>
