<svg width="16" height="16" viewBox="0 0 16 16" fill="none" xmlns="http://www.w3.org/2000/svg">
<path d="M5.99967 14.6654H9.99967C13.333 14.6654 14.6663 13.332 14.6663 9.9987V5.9987C14.6663 2.66536 13.333 1.33203 9.99967 1.33203H5.99967C2.66634 1.33203 1.33301 2.66536 1.33301 5.9987V9.9987C1.33301 13.332 2.66634 14.6654 5.99967 14.6654Z" stroke="#BFBFBF" stroke-width="1.3" stroke-linecap="round" stroke-linejoin="round"/>
<path d="M10.3333 12.3346C11.0667 12.3346 11.6667 11.7346 11.6667 11.0013V5.0013C11.6667 4.26797 11.0667 3.66797 10.3333 3.66797C9.6 3.66797 9 4.26797 9 5.0013V11.0013C9 11.7346 9.59333 12.3346 10.3333 12.3346Z" stroke="#BFBFBF" stroke-width="1.3" stroke-linecap="round" stroke-linejoin="round"/>
<path d="M5.66634 12.332C6.39967 12.332 6.99967 11.732 6.99967 10.9987V8.66536C6.99967 7.93203 6.39967 7.33203 5.66634 7.33203C4.93301 7.33203 4.33301 7.93203 4.33301 8.66536V10.9987C4.33301 11.732 4.92634 12.332 5.66634 12.332Z" stroke="#BFBFBF" stroke-width="1.3" stroke-linecap="round" stroke-linejoin="round"/>
</svg>
