<svg width="16" height="16" viewBox="0 0 16 16" fill="none" xmlns="http://www.w3.org/2000/svg">
<path d="M14.6663 9.9987V5.9987C14.6663 2.66536 13.333 1.33203 9.99967 1.33203H5.99967C2.66634 1.33203 1.33301 2.66536 1.33301 5.9987V9.9987C1.33301 13.332 2.66634 14.6654 5.99967 14.6654H9.99967C13.333 14.6654 14.6663 13.332 14.6663 9.9987Z" stroke="#BFBFBF" stroke-width="1.3" stroke-linecap="round" stroke-linejoin="round"/>
<path d="M1.67969 4.73828H14.3197" stroke="#BFBFBF" stroke-width="1.3" stroke-linecap="round" stroke-linejoin="round"/>
<path d="M5.67969 1.40625V4.64625" stroke="#BFBFBF" stroke-width="1.3" stroke-linecap="round" stroke-linejoin="round"/>
<path d="M10.3203 1.40625V4.34625" stroke="#BFBFBF" stroke-width="1.3" stroke-linecap="round" stroke-linejoin="round"/>
<path d="M6.5 9.63211V8.83211C6.5 7.80544 7.22667 7.38544 8.11333 7.89877L8.80667 8.29877L9.5 8.69877C10.3867 9.21211 10.3867 10.0521 9.5 10.5654L8.80667 10.9654L8.11333 11.3654C7.22667 11.8788 6.5 11.4588 6.5 10.4321V9.63211V9.63211Z" stroke="#BFBFBF" stroke-width="1.3" stroke-miterlimit="10" stroke-linecap="round" stroke-linejoin="round"/>
</svg>
