<svg width="20" height="20" viewBox="0 0 20 20" fill="none" xmlns="http://www.w3.org/2000/svg">
<path d="M6.66992 4.1639C6.66992 4.38491 6.75772 4.59687 6.914 4.75316C7.07028 4.90944 7.28224 4.99723 7.50326 4.99723C7.72427 4.99723 7.93623 4.90944 8.09251 4.75316C8.24879 4.59687 8.33659 4.38491 8.33659 4.1639C8.33659 3.94289 8.24879 3.73092 8.09251 3.57464C7.93623 3.41836 7.72427 3.33057 7.50326 3.33057C7.28224 3.33057 7.07028 3.41836 6.914 3.57464C6.75772 3.73092 6.66992 3.94289 6.66992 4.1639Z" fill="#666666" stroke="#666666" stroke-width="1.5" stroke-linecap="round" stroke-linejoin="round"/>
<path d="M6.66992 10.0028C6.66992 10.2238 6.75772 10.4357 6.914 10.592C7.07028 10.7483 7.28224 10.8361 7.50326 10.8361C7.72427 10.8361 7.93623 10.7483 8.09251 10.592C8.24879 10.4357 8.33659 10.2238 8.33659 10.0028C8.33659 9.78175 8.24879 9.56979 8.09251 9.41351C7.93623 9.25723 7.72427 9.16943 7.50326 9.16943C7.28224 9.16943 7.07028 9.25723 6.914 9.41351C6.75772 9.56979 6.66992 9.78175 6.66992 10.0028Z" fill="#666666" stroke="#666666" stroke-width="1.5" stroke-linecap="round" stroke-linejoin="round"/>
<path d="M6.66992 15.8333C6.66992 16.0543 6.75772 16.2663 6.914 16.4226C7.07028 16.5789 7.28224 16.6667 7.50326 16.6667C7.72427 16.6667 7.93623 16.5789 8.09251 16.4226C8.24879 16.2663 8.33659 16.0543 8.33659 15.8333C8.33659 15.6123 8.24879 15.4004 8.09251 15.2441C7.93623 15.0878 7.72427 15 7.50326 15C7.28224 15 7.07028 15.0878 6.914 15.2441C6.75772 15.4004 6.66992 15.6123 6.66992 15.8333Z" fill="#666666" stroke="#666666" stroke-width="1.5" stroke-linecap="round" stroke-linejoin="round"/>
<path d="M11.6699 4.1639C11.6699 4.38491 11.7577 4.59687 11.914 4.75316C12.0703 4.90944 12.2822 4.99723 12.5033 4.99723C12.7243 4.99723 12.9362 4.90944 13.0925 4.75316C13.2488 4.59687 13.3366 4.38491 13.3366 4.1639C13.3366 3.94289 13.2488 3.73092 13.0925 3.57464C12.9362 3.41836 12.7243 3.33057 12.5033 3.33057C12.2822 3.33057 12.0703 3.41836 11.914 3.57464C11.7577 3.73092 11.6699 3.94289 11.6699 4.1639Z" fill="#666666" stroke="#666666" stroke-width="1.5" stroke-linecap="round" stroke-linejoin="round"/>
<path d="M11.6699 10.0028C11.6699 10.2238 11.7577 10.4357 11.914 10.592C12.0703 10.7483 12.2822 10.8361 12.5033 10.8361C12.7243 10.8361 12.9362 10.7483 13.0925 10.592C13.2488 10.4357 13.3366 10.2238 13.3366 10.0028C13.3366 9.78175 13.2488 9.56979 13.0925 9.41351C12.9362 9.25723 12.7243 9.16943 12.5033 9.16943C12.2822 9.16943 12.0703 9.25723 11.914 9.41351C11.7577 9.56979 11.6699 9.78175 11.6699 10.0028Z" fill="#666666" stroke="#666666" stroke-width="1.5" stroke-linecap="round" stroke-linejoin="round"/>
<path d="M11.6699 15.8333C11.6699 16.0543 11.7577 16.2663 11.914 16.4226C12.0703 16.5789 12.2822 16.6667 12.5033 16.6667C12.7243 16.6667 12.9362 16.5789 13.0925 16.4226C13.2488 16.2663 13.3366 16.0543 13.3366 15.8333C13.3366 15.6123 13.2488 15.4004 13.0925 15.2441C12.9362 15.0878 12.7243 15 12.5033 15C12.2822 15 12.0703 15.0878 11.914 15.2441C11.7577 15.4004 11.6699 15.6123 11.6699 15.8333Z" fill="#666666" stroke="#666666" stroke-width="1.5" stroke-linecap="round" stroke-linejoin="round"/>
</svg>
