<svg width="20" height="20" viewBox="0 0 20 20" fill="none" xmlns="http://www.w3.org/2000/svg">
<path d="M12 4C14.8283 4 16.2424 4.00025 17.1211 4.87891C17.9996 5.7576 18 7.17171 18 10V11C18 13.8283 17.9996 15.2424 17.1211 16.1211C16.2424 16.9997 14.8283 17 12 17H8C5.17157 17 3.75759 16.9998 2.87891 16.1211C2.00025 15.2424 2 13.8284 2 11V10C2 7.17157 2.00023 5.75759 2.87891 4.87891C3.75759 4.00023 5.17157 4 8 4H12ZM14.2324 7.47656C13.9435 7.07225 13.381 6.97871 12.9766 7.26758L10.0586 9.35254C10.0238 9.37737 9.97618 9.37737 9.94141 9.35254L7.02344 7.26758C6.61903 6.97871 6.05653 7.07225 5.76758 7.47656C5.47871 7.88097 5.57225 8.44347 5.97656 8.73242L8.89551 10.8174C9.55613 11.2893 10.4439 11.2893 11.1045 10.8174L14.0234 8.73242C14.4278 8.44347 14.5213 7.88097 14.2324 7.47656Z" fill="#BFBFBF"/>
</svg>
