<svg width="16" height="17" viewBox="0 0 16 17" fill="none" xmlns="http://www.w3.org/2000/svg">
<path d="M14.666 4.4987V6.11203C14.666 7.16536 13.9993 7.83203 12.946 7.83203H10.666V3.17203C10.666 2.43203 11.2727 1.83203 12.0127 1.83203C12.7394 1.8387 13.406 2.13203 13.886 2.61203C14.366 3.0987 14.666 3.76536 14.666 4.4987Z" stroke="#BFBFBF" stroke-width="1.3" stroke-miterlimit="10" stroke-linecap="round" stroke-linejoin="round"/>
<path d="M1.33398 5.16536V14.4987C1.33398 15.052 1.96063 15.3654 2.40063 15.032L3.54065 14.1787C3.80732 13.9787 4.18065 14.0054 4.42065 14.2454L5.5273 15.3587C5.7873 15.6187 6.214 15.6187 6.474 15.3587L7.59399 14.2387C7.82733 14.0054 8.20065 13.9787 8.46065 14.1787L9.60067 15.032C10.0407 15.3587 10.6673 15.0454 10.6673 14.4987V3.16536C10.6673 2.43203 11.2673 1.83203 12.0007 1.83203H4.66732H4.00065C2.00065 1.83203 1.33398 3.02536 1.33398 4.4987V5.16536Z" stroke="#BFBFBF" stroke-width="1.3" stroke-miterlimit="10" stroke-linecap="round" stroke-linejoin="round"/>
<path d="M4 6.5H8" stroke="#BFBFBF" stroke-width="1.3" stroke-linecap="round" stroke-linejoin="round"/>
<path d="M4.5 9.16797H7.5" stroke="#BFBFBF" stroke-width="1.3" stroke-linecap="round" stroke-linejoin="round"/>
</svg>
