<svg width="20" height="20" viewBox="0 0 20 20" fill="none" xmlns="http://www.w3.org/2000/svg">
<path d="M9.5 3C11.8295 3 12.9943 3.00034 13.9131 3.38086C15.1382 3.88833 16.1117 4.86177 16.6191 6.08691C16.9997 7.00574 17 8.17045 17 10.5C17 12.8295 16.9997 13.9943 16.6191 14.9131C16.1117 16.1382 15.1382 17.1117 13.9131 17.6191C12.9943 17.9997 11.8295 18 9.5 18H7C4.64298 18 3.46465 17.9998 2.73242 17.2676C2.00019 16.5353 2 15.357 2 13V10.5C2 8.17045 2.00034 7.00574 2.38086 6.08691C2.88833 4.86177 3.86177 3.88833 5.08691 3.38086C6.00574 3.00034 7.17045 3 9.5 3ZM7 11.166C6.44799 11.1663 6.00004 11.6139 6 12.166C6.00015 12.718 6.44806 13.1657 7 13.166H9.5C10.0522 13.166 10.4998 12.7182 10.5 12.166C10.5 11.6138 10.0523 11.166 9.5 11.166H7ZM7 7.83301C6.44806 7.83331 6.00015 8.28104 6 8.83301C6 9.38511 6.44797 9.83271 7 9.83301H12C12.5523 9.83301 13 9.38529 13 8.83301C12.9998 8.28085 12.5522 7.83301 12 7.83301H7Z" fill="#BFBFBF"/>
</svg>
