<svg width="20" height="20" viewBox="0 0 20 20" fill="none" xmlns="http://www.w3.org/2000/svg">
<g clip-path="url(#clip0_666_73965)">
<path d="M4.86369 4.50036C7.78509 2.35235 11.9603 2.52792 14.6614 4.91675C17.4097 7.34599 17.7852 11.3165 15.5248 14.159C13.3948 16.8369 9.55532 17.7194 6.35812 16.3381L6.18424 16.2597L2.90535 16.9829L2.84914 16.993L2.7667 17L2.68201 16.9969L2.64903 16.993L2.56659 16.9775L2.4879 16.9511L2.41295 16.9169L2.35599 16.8842L2.27505 16.8244L2.21435 16.7669L2.15964 16.7025L2.11991 16.6442L2.0712 16.5549L2.03972 16.4725L2.01649 16.3847L2.00675 16.3265L2 16.241L2.003 16.1532L2.00675 16.119L2.02173 16.0336L2.03822 15.9777L2.9001 13.2967L2.88361 13.2688C1.22731 10.3579 1.97752 6.74936 4.69057 4.63165L4.86294 4.50113L4.86369 4.50036Z" fill="#BFBFBF"/>
</g>
<defs>
<clipPath id="clip0_666_73965">
<rect width="20" height="20" fill="white"/>
</clipPath>
</defs>
</svg>
