<svg width="44" height="44" viewBox="0 0 44 44" fill="none" xmlns="http://www.w3.org/2000/svg">
<path d="M29.805 17.6259L19.551 10.0467C18.7501 9.45557 17.8025 9.09951 16.8131 9.01801C15.8238 8.9365 14.8314 9.13275 13.9459 9.58498C13.0604 10.0372 12.3164 10.7278 11.7965 11.5801C11.2765 12.4325 11.0008 13.4133 11 14.4139V29.5798C10.9985 30.5813 11.2727 31.5637 11.7922 32.4175C12.3116 33.2713 13.056 33.963 13.9423 34.4157C14.8287 34.8684 15.8223 35.0643 16.8125 34.9815C17.8027 34.8987 18.7508 34.5406 19.551 33.9469L29.805 26.3678C30.4853 25.8645 31.0386 25.2068 31.4199 24.4479C31.8013 23.689 32 22.8502 32 21.9995C32 21.1488 31.8013 20.3101 31.4199 19.5512C31.0386 18.7923 30.4853 18.1346 29.805 17.6313V17.6259Z" fill="#666666"/>
</svg>
