<svg width="16" height="16" viewBox="0 0 16 16" fill="none" xmlns="http://www.w3.org/2000/svg">
<path d="M10.6663 1.33594H5.33301C2.66634 1.33594 1.33301 2.66927 1.33301 5.33594V14.0026C1.33301 14.3693 1.63301 14.6693 1.99967 14.6693H10.6663C13.333 14.6693 14.6663 13.3359 14.6663 10.6693V5.33594C14.6663 2.66927 13.333 1.33594 10.6663 1.33594Z" stroke="#BFBFBF" stroke-width="1.3" stroke-linecap="round" stroke-linejoin="round"/>
<path d="M8.60685 5.22677L5.14685 8.68677C5.01352 8.8201 4.88686 9.0801 4.86019 9.26677L4.67353 10.5868C4.60686 11.0668 4.94019 11.4001 5.42019 11.3334L6.74018 11.1468C6.92684 11.1201 7.18686 10.9934 7.32019 10.8601L10.7802 7.4001C11.3735 6.80677 11.6602 6.11343 10.7802 5.23343C9.90019 4.34677 9.20685 4.62677 8.60685 5.22677Z" stroke="#BFBFBF" stroke-width="1.3" stroke-miterlimit="10" stroke-linecap="round" stroke-linejoin="round"/>
<path d="M8.11328 5.71875C8.40661 6.76542 9.22661 7.59208 10.2799 7.88542" stroke="#BFBFBF" stroke-width="1.3" stroke-miterlimit="10" stroke-linecap="round" stroke-linejoin="round"/>
</svg>
