<svg width="45" height="45" viewBox="0 0 45 45" fill="none" xmlns="http://www.w3.org/2000/svg">
<g opacity="0.4">
<path d="M20.0677 31.4707V35.2601C20.0677 38.4708 17.081 41.0654 13.4036 41.0654C9.72631 41.0654 6.72095 38.4708 6.72095 35.2601V31.4707C6.72095 34.6814 9.70765 36.9587 13.4036 36.9587C17.081 36.9587 20.0677 34.6627 20.0677 31.4707Z" stroke="#6756ED" stroke-width="3" stroke-linecap="round" stroke-linejoin="round"/>
<path d="M20.0655 26.3374C20.0655 27.2707 19.8041 28.1294 19.3561 28.876C18.2548 30.6867 15.9961 31.8254 13.3828 31.8254C10.7694 31.8254 8.51076 30.668 7.40942 28.876C6.96142 28.1294 6.7002 27.2707 6.7002 26.3374C6.7002 24.7321 7.44682 23.2947 8.64149 22.2494C9.85482 21.1854 11.5161 20.5508 13.3641 20.5508C15.2121 20.5508 16.8735 21.2041 18.0868 22.2494C19.3188 23.2761 20.0655 24.7321 20.0655 26.3374Z" stroke="#6756ED" stroke-width="3" stroke-linecap="round" stroke-linejoin="round"/>
<path d="M20.0674 26.3366V31.4699C20.0674 34.6806 17.0807 36.9579 13.4034 36.9579C9.72607 36.9579 6.7207 34.6619 6.7207 31.4699V26.3366C6.7207 23.1259 9.7074 20.5312 13.4034 20.5312C15.2514 20.5312 16.9128 21.1845 18.1261 22.2299C19.3208 23.2752 20.0674 24.7312 20.0674 26.3366Z" stroke="#6756ED" stroke-width="3" stroke-linecap="round" stroke-linejoin="round"/>
</g>
<path d="M41.067 20.4762V24.3216C41.067 25.3483 40.2457 26.1882 39.2004 26.2256H35.5417C33.5257 26.2256 31.6777 24.7509 31.5097 22.7349C31.3977 21.5589 31.8457 20.4576 32.6297 19.6922C33.3203 18.9829 34.2723 18.5723 35.3177 18.5723H39.2004C40.2457 18.6096 41.067 19.4495 41.067 20.4762Z" stroke="#6756ED" stroke-width="4" stroke-linecap="round" stroke-linejoin="round"/>
<path d="M3.73413 19.5979V15.8646C3.73413 10.7873 6.79547 7.24058 11.5555 6.64325C12.0408 6.56858 12.5448 6.53125 13.0675 6.53125H29.8675C30.3528 6.53125 30.8195 6.54989 31.2675 6.62456C36.0835 7.18456 39.2008 10.7499 39.2008 15.8646V18.5713H35.3181C34.2728 18.5713 33.3208 18.9819 32.6301 19.6912C31.8461 20.4566 31.3981 21.5579 31.5101 22.7339C31.6781 24.7499 33.5261 26.2246 35.5421 26.2246H39.2008V28.9313C39.2008 34.5313 35.4675 38.2646 29.8675 38.2646H25.2008" stroke="#6756ED" stroke-width="4" stroke-linecap="round" stroke-linejoin="round"/>
</svg>
