<svg width="24" height="24" viewBox="0 0 24 24" fill="none" xmlns="http://www.w3.org/2000/svg">
<g clip-path="url(#clip0_665_65512)">
<path opacity="0.12" d="M22.0684 16.2347L15.4662 4.3508C14.5791 2.75185 13.3515 1.875 12.0001 1.875C10.6487 1.875 9.42116 2.75185 8.534 4.3508L1.93186 16.2347C1.09628 17.7511 1.00344 19.2056 1.67397 20.3507C2.3445 21.4957 3.66492 22.125 5.39799 22.125H18.6023C20.3353 22.125 21.6558 21.4957 22.3263 20.3507C22.9968 19.2056 22.904 17.7408 22.0684 16.2347Z" fill="#FF0000"/>
<path d="M12 14.9219C11.5644 14.9219 11.2031 14.5606 11.2031 14.125V8.8125C11.2031 8.37688 11.5644 8.01562 12 8.01562C12.4356 8.01562 12.7969 8.37688 12.7969 8.8125V14.125C12.7969 14.5606 12.4356 14.9219 12 14.9219Z" fill="#FF0000"/>
<path d="M12 18.3752C11.9363 18.3752 11.8619 18.3646 11.7875 18.354C11.7238 18.3433 11.66 18.3221 11.5962 18.2902C11.5325 18.269 11.4687 18.2371 11.405 18.1946C11.3519 18.1521 11.2987 18.1096 11.2456 18.0671C11.0544 17.8652 10.9375 17.589 10.9375 17.3127C10.9375 17.0365 11.0544 16.7602 11.2456 16.5583C11.2987 16.5158 11.3519 16.4733 11.405 16.4308C11.4687 16.3883 11.5325 16.3565 11.5962 16.3352C11.66 16.3033 11.7238 16.2821 11.7875 16.2715C11.9256 16.2396 12.0744 16.2396 12.2019 16.2715C12.2762 16.2821 12.34 16.3033 12.4038 16.3352C12.4675 16.3565 12.5313 16.3883 12.595 16.4308C12.6481 16.4733 12.7013 16.5158 12.7544 16.5583C12.9456 16.7602 13.0625 17.0365 13.0625 17.3127C13.0625 17.589 12.9456 17.8652 12.7544 18.0671C12.7013 18.1096 12.6481 18.1521 12.595 18.1946C12.5313 18.2371 12.4675 18.269 12.4038 18.2902C12.34 18.3221 12.2762 18.3433 12.2019 18.354C12.1381 18.3646 12.0638 18.3752 12 18.3752Z" fill="#FF0000"/>
</g>
<defs>
<clipPath id="clip0_665_65512">
<rect width="24" height="24" fill="white"/>
</clipPath>
</defs>
</svg>
