<svg width="36" height="36" viewBox="0 0 36 36" fill="none" xmlns="http://www.w3.org/2000/svg">
<path d="M18 0C27.9411 0 36 8.05887 36 18C36 27.9411 27.9411 36 18 36C8.05887 36 0 27.9411 0 18C0 8.05887 8.05887 0 18 0ZM27.0879 10.6953C26.3666 10.0943 25.2954 10.1918 24.6943 10.9131L16.0957 21.2305C16.0187 21.3229 15.9483 21.4041 15.8857 21.4785C15.8165 21.41 15.7386 21.3353 15.6533 21.25L11.2021 16.7988C10.5383 16.1349 9.46174 16.1349 8.79785 16.7988C8.13416 17.4627 8.13403 18.5393 8.79785 19.2031L13.249 23.6543C13.5755 23.9808 13.9437 24.3538 14.2959 24.6201C14.6627 24.8974 15.2027 25.2099 15.9111 25.2188L16.0547 25.2168L16.1992 25.2061C16.9035 25.133 17.4128 24.7731 17.7529 24.4639C18.0794 24.1669 18.4125 23.7618 18.708 23.4072L27.3057 13.0889C27.9066 12.3676 27.8091 11.2964 27.0879 10.6953Z" fill="#027CFA"/>
</svg>
