<svg width="16" height="16" viewBox="0 0 16 16" fill="none" xmlns="http://www.w3.org/2000/svg">
<path d="M5.6362 2.77122C6.11684 1.36466 8.06031 1.32206 8.63017 2.64342L8.67839 2.77202L9.32702 4.66887C9.47566 5.10389 9.71587 5.50197 10.0314 5.83626C10.347 6.17055 10.7306 6.43327 11.1564 6.60671L11.3308 6.67181L13.2276 7.31964C14.6342 7.80028 14.6768 9.74375 13.3562 10.3136L13.2276 10.3618L11.3308 11.0105C10.8956 11.159 10.4974 11.3992 10.1629 11.7147C9.8285 12.0303 9.56565 12.414 9.39212 12.8398L9.32702 13.0134L8.67919 14.9111C8.19855 16.3176 6.25508 16.3602 5.68603 15.0397L5.6362 14.9111L4.98837 13.0142C4.83983 12.579 4.59966 12.1808 4.28408 11.8464C3.96851 11.5119 3.58486 11.2491 3.15904 11.0756L2.98543 11.0105L1.08858 10.3626C-0.318785 9.88199 -0.361384 7.93852 0.959981 7.36947L1.08858 7.31964L2.98543 6.67181C3.42045 6.52317 3.81853 6.28296 4.15282 5.96738C4.48711 5.65181 4.74983 5.26822 4.92327 4.84248L4.98837 4.66887L5.6362 2.77122Z" fill="white"/>
<path d="M13.5881 1.45228e-07C13.7385 -1.89662e-07 13.8858 0.0421794 14.0134 0.121745C14.141 0.201311 14.2437 0.315072 14.3099 0.4501L14.3484 0.544139L14.6297 1.36879L15.4552 1.6501C15.6059 1.70129 15.738 1.79607 15.8348 1.92242C15.9315 2.04877 15.9886 2.201 15.9988 2.35983C16.0089 2.51865 15.9717 2.67691 15.8918 2.81456C15.8119 2.95221 15.693 3.06304 15.55 3.13302L15.4552 3.1716L14.6306 3.45291L14.3492 4.27836C14.298 4.42901 14.2031 4.56104 14.0767 4.65772C13.9503 4.75441 13.7981 4.8114 13.6392 4.82147C13.4804 4.83154 13.3222 4.79424 13.1846 4.7143C13.047 4.63435 12.9362 4.51536 12.8663 4.3724L12.8277 4.27836L12.5464 3.45371L11.721 3.1724C11.5703 3.12121 11.4382 3.02643 11.3414 2.90008C11.2447 2.77373 11.1876 2.6215 11.1774 2.46267C11.1673 2.30385 11.2045 2.14559 11.2844 2.00794C11.3642 1.87029 11.4832 1.75946 11.6261 1.68948L11.721 1.6509L12.5456 1.36959L12.8269 0.544139C12.8811 0.385338 12.9837 0.247481 13.1202 0.149898C13.2567 0.0523153 13.4203 -0.000100695 13.5881 1.45228e-07Z" fill="white" fill-opacity="0.4"/>
</svg>
