<svg width="16" height="16" viewBox="0 0 16 16" fill="none" xmlns="http://www.w3.org/2000/svg">
<path d="M7.99967 14.6654C11.6816 14.6654 14.6663 11.6806 14.6663 7.9987C14.6663 4.3168 11.6816 1.33203 7.99967 1.33203C4.31778 1.33203 1.33301 4.3168 1.33301 7.9987C1.33301 11.6806 4.31778 14.6654 7.99967 14.6654Z" stroke="#BFBFBF" stroke-width="1.3" stroke-linecap="round" stroke-linejoin="round"/>
<path d="M8.22039 11.6351C8.10039 11.6751 7.89372 11.6751 7.77372 11.6351C6.73372 11.2817 4.40039 9.79504 4.40039 7.27504C4.40039 6.16171 5.29372 5.26172 6.40039 5.26172C7.05372 5.26172 7.63372 5.57505 8.00039 6.06838C8.36039 5.58171 8.94705 5.26172 9.60038 5.26172C10.707 5.26172 11.6004 6.16171 11.6004 7.27504C11.6004 9.79504 9.26705 11.2817 8.22039 11.6351Z" stroke="#BFBFBF" stroke-width="1.3" stroke-linecap="round" stroke-linejoin="round"/>
</svg>
