<svg width="20" height="20" viewBox="0 0 20 20" fill="none" xmlns="http://www.w3.org/2000/svg">
<path d="M13.493 1.66699H6.50964C3.4763 1.66699 1.66797 3.47533 1.66797 6.50866V13.4837C1.66797 16.5253 3.4763 18.3337 6.50964 18.3337H13.4846C16.518 18.3337 18.3263 16.5253 18.3263 13.492V6.50866C18.3346 3.47533 16.5263 1.66699 13.493 1.66699ZM13.9596 11.4253C13.9596 12.692 12.9346 13.717 11.668 13.717C10.4013 13.717 9.3763 12.692 9.3763 11.4253V9.75866C9.3763 9.41699 9.65964 9.13366 10.0013 9.13366C10.343 9.13366 10.6263 9.41699 10.6263 9.75866V11.4253C10.6263 12.0003 11.093 12.467 11.668 12.467C12.243 12.467 12.7096 12.0003 12.7096 11.4253V8.80866C12.7096 7.31699 11.493 6.10033 10.0013 6.10033C8.50964 6.10033 7.29297 7.31699 7.29297 8.80866V11.667C7.29297 12.9003 8.29297 13.9003 9.5263 13.9003C9.86797 13.9003 10.1513 14.1837 10.1513 14.5253C10.1513 14.867 9.86797 15.1503 9.5263 15.1503C7.60964 15.1503 6.04297 13.5837 6.04297 11.667V8.80866C6.04297 6.62533 7.81797 4.85033 10.0013 4.85033C12.1846 4.85033 13.9596 6.62533 13.9596 8.80866V11.4253Z" fill="#222222"/>
</svg>
