<svg width="16" height="16" viewBox="0 0 16 16" fill="none" xmlns="http://www.w3.org/2000/svg">
<path d="M2.34482 3.01724L2.34483 10.1896C2.34483 10.561 2.64587 10.862 3.01724 10.862H5.25861C5.62997 10.862 5.93102 11.1631 5.93102 11.5345C5.93102 11.9058 5.62997 12.2069 5.25861 12.2069H3.01724C1.90315 12.2069 1 11.3037 1 10.1896V3.01724C1 1.90315 1.90315 1 3.01724 1H10.1896C11.3037 1 12.2069 1.90315 12.2069 3.01724V5.25861C12.2069 5.62997 11.9058 5.93102 11.5345 5.93102C11.1631 5.93102 10.862 5.62997 10.862 5.25861V3.01724C10.862 2.64587 10.561 2.34482 10.1896 2.34482L3.01724 2.34482C2.64587 2.34482 2.34482 2.64587 2.34482 3.01724Z" fill="#BFBFBF"/>
<path d="M6.83494 5.97214C6.58905 5.88198 6.31318 5.9428 6.12799 6.12799C5.9428 6.31318 5.88198 6.58905 5.97214 6.83494L8.43765 13.5591C8.52733 13.8036 8.75019 13.9744 9.00966 13.9974C9.26913 14.0203 9.51853 13.8914 9.64978 13.6664L11.1296 11.1296L13.6664 9.64978C13.8914 9.51853 14.0203 9.26913 13.9974 9.00966C13.9744 8.75019 13.8036 8.52733 13.5591 8.43765L6.83494 5.97214Z" fill="#BFBFBF"/>
</svg>
