<svg width="20" height="20" viewBox="0 0 20 20" fill="none" xmlns="http://www.w3.org/2000/svg">
<path d="M7.75 17.501H12.25C16 17.501 17.5 16.001 17.5 12.251V7.75098C17.5 4.00098 16 2.50098 12.25 2.50098H7.75C4 2.50098 2.5 4.00098 2.5 7.75098V12.251C2.5 16.001 4 17.501 7.75 17.501Z" stroke="#222222" stroke-width="1.7" stroke-linecap="round" stroke-linejoin="round"/>
<path d="M7.75 8.5C8.57843 8.5 9.25 7.82843 9.25 7C9.25 6.17157 8.57843 5.5 7.75 5.5C6.92157 5.5 6.25 6.17157 6.25 7C6.25 7.82843 6.92157 8.5 7.75 8.5Z" stroke="#222222" stroke-width="1.7" stroke-linecap="round" stroke-linejoin="round"/>
<path d="M3.00391 15.2105L6.70141 12.728C7.29391 12.3305 8.14891 12.3755 8.68141 12.833L8.92891 13.0505C9.51391 13.553 10.4589 13.553 11.0439 13.0505L14.1639 10.373C14.7489 9.87047 15.6939 9.87047 16.2789 10.373L17.5014 11.423" stroke="#222222" stroke-width="1.7" stroke-linecap="round" stroke-linejoin="round"/>
<path d="M17.3808 11.4269V13.1444C17.3808 15.8744 15.7533 17.5019 13.0233 17.5019H6.73828C4.82578 17.5019 3.44578 16.6994 2.80078 15.2744L2.88328 15.2144L6.57328 12.7394C7.17328 12.3344 8.02078 12.3794 8.55328 12.8444L8.80828 13.0544C9.39328 13.5569 10.3383 13.5569 10.9233 13.0544L14.0433 10.3769C14.6283 9.87437 15.5733 9.87437 16.1583 10.3769L17.3808 11.4269Z" fill="#222222"/>
</svg>
