<svg width="16" height="16" viewBox="0 0 16 16" fill="none" xmlns="http://www.w3.org/2000/svg">
<path d="M6.86385 1.47787L3.35219 3.77037C2.22635 4.50537 2.22635 6.15037 3.35219 6.88537L6.86385 9.17787C7.49385 9.59203 8.53219 9.59203 9.16219 9.17787L12.6564 6.88537C13.7764 6.15037 13.7764 4.5112 12.6564 3.7762L9.16219 1.4837C8.53219 1.0637 7.49385 1.0637 6.86385 1.47787Z" stroke="#BFBFBF" stroke-width="1.5" stroke-linecap="round" stroke-linejoin="round"/>
<path d="M4.28318 7.63281L4.27734 10.3686C4.27734 11.1095 4.84901 11.9028 5.54901 12.1361L7.40984 12.7545C7.73068 12.8595 8.26151 12.8595 8.58818 12.7545L10.449 12.1361C11.149 11.9028 11.7207 11.1095 11.7207 10.3686V7.66198" stroke="#BFBFBF" stroke-width="1.5" stroke-linecap="round" stroke-linejoin="round"/>
<path d="M13.4883 8.75V5.25" stroke="#BFBFBF" stroke-width="1.5" stroke-linecap="round" stroke-linejoin="round"/>
</svg>
