<svg width="20" height="20" viewBox="0 0 20 20" fill="none" xmlns="http://www.w3.org/2000/svg">
<path d="M16.5458 6.71182C16.9922 7.24102 16.523 7.93701 15.8307 7.93701H3.5C2.94771 7.93701 2.5 7.4893 2.5 6.93701V5.81451C2.5 3.98451 3.985 2.49951 5.815 2.49951H7.555C8.7775 2.49951 9.16 2.89701 9.6475 3.54951L10.6975 4.94451C10.93 5.25201 10.96 5.28951 11.395 5.28951H13.4875C14.7135 5.28951 15.8117 5.84157 16.5458 6.71182Z" fill="#222222"/>
<path d="M16.4884 9.063C17.0393 9.06299 17.4865 9.50865 17.4884 10.0596L17.5 13.4882C17.5 15.7007 15.7 17.5007 13.4875 17.5007H6.5125C4.3 17.5007 2.5 15.7007 2.5 13.4882V10.0632C2.5 9.5109 2.94771 9.06318 3.49999 9.06318L16.4884 9.063Z" fill="#222222"/>
</svg>
