<svg width="16" height="16" viewBox="0 0 16 16" fill="none" xmlns="http://www.w3.org/2000/svg">
<path d="M8.63737 12.6378L6.00004 10.0004L3.36271 7.36311C3.28572 7.28604 3.2288 7.19127 3.19692 7.0871C3.16503 6.98294 3.15916 6.87254 3.17982 6.76558C3.20047 6.65862 3.24703 6.55835 3.3154 6.47355C3.38378 6.38874 3.47189 6.32198 3.57204 6.27911L7.07937 4.77578C7.15991 4.74131 7.23287 4.6913 7.29407 4.62861C7.35527 4.56592 7.40351 4.49179 7.43604 4.41045L8.29137 2.27245C8.33235 2.17007 8.39808 2.07946 8.48268 2.00873C8.56727 1.938 8.66809 1.88936 8.7761 1.86716C8.88411 1.84497 8.99594 1.84991 9.10158 1.88155C9.20721 1.91318 9.30335 1.97053 9.38137 2.04845L13.952 6.61911C14.03 6.69714 14.0873 6.79328 14.1189 6.89891C14.1506 7.00454 14.1555 7.11637 14.1333 7.22438C14.1111 7.3324 14.0625 7.43321 13.9918 7.51781C13.921 7.60241 13.8304 7.66814 13.728 7.70911L11.59 8.56445C11.5087 8.59698 11.4346 8.64522 11.3719 8.70642C11.3092 8.76762 11.2592 8.84057 11.2247 8.92111L9.72137 12.4284C9.6785 12.5286 9.61175 12.6167 9.52694 12.6851C9.44213 12.7535 9.34186 12.8 9.2349 12.8207C9.12794 12.8413 9.01755 12.8355 8.91338 12.8036C8.80922 12.7717 8.71445 12.7148 8.63737 12.6378Z" fill="#027CFA"/>
<path d="M2.66675 13.3338L6.00008 10.0004M6.00008 10.0004L8.63742 12.6378C8.71449 12.7148 8.80926 12.7717 8.91342 12.8036C9.01759 12.8355 9.12798 12.8413 9.23495 12.8207C9.34191 12.8 9.44218 12.7535 9.52698 12.6851C9.61179 12.6167 9.67855 12.5286 9.72141 12.4284L11.2247 8.92111C11.2592 8.84057 11.3092 8.76762 11.3719 8.70642C11.4346 8.64522 11.5087 8.59698 11.5901 8.56445L13.7281 7.70911C13.8305 7.66814 13.9211 7.60241 13.9918 7.51781C14.0625 7.43322 14.1112 7.3324 14.1334 7.22438C14.1556 7.11637 14.1506 7.00454 14.119 6.89891C14.0873 6.79328 14.03 6.69714 13.9521 6.61911L9.38141 2.04845C9.30339 1.97053 9.20725 1.91318 9.10162 1.88155C8.99599 1.84991 8.88416 1.84497 8.77614 1.86716C8.66813 1.88936 8.56731 1.938 8.48272 2.00873C8.39812 2.07946 8.33239 2.17007 8.29142 2.27245L7.43608 4.41045C7.40355 4.49179 7.35531 4.56592 7.29411 4.62861C7.23291 4.6913 7.15995 4.74131 7.07942 4.77578L3.57208 6.27911C3.47193 6.32198 3.38382 6.38874 3.31544 6.47355C3.24707 6.55835 3.20051 6.65862 3.17986 6.76558C3.1592 6.87254 3.16507 6.98294 3.19696 7.0871C3.22884 7.19127 3.28576 7.28604 3.36275 7.36311L6.00008 10.0004Z" stroke="#027CFA" stroke-width="2" stroke-linecap="round" stroke-linejoin="round"/>
</svg>
