<svg width="20" height="20" viewBox="0 0 20 20" fill="none" xmlns="http://www.w3.org/2000/svg">
<path d="M6.04223 10.0003C6.04223 9.65866 6.32556 9.37533 6.66723 9.37533H9.16723V6.25033C9.16723 5.79199 8.79223 5.41699 8.3339 5.41699H6.47556C3.85056 5.41699 1.56723 7.56699 1.66723 10.1837C1.71723 11.3753 2.21723 12.4503 3.0089 13.242C3.84223 14.067 4.98389 14.5837 6.25056 14.5837H8.3339C8.79223 14.5837 9.16723 14.2087 9.16723 13.7503V10.6253H6.66723C6.32556 10.6253 6.04223 10.342 6.04223 10.0003Z" fill="#222222"/>
<path d="M16.9904 6.75866C16.157 5.93366 15.0154 5.41699 13.7487 5.41699H11.6654C11.207 5.41699 10.832 5.79199 10.832 6.25033V9.37533H13.332C13.6737 9.37533 13.957 9.65866 13.957 10.0003C13.957 10.342 13.6737 10.6253 13.332 10.6253H10.832V13.7503C10.832 14.2087 11.207 14.5837 11.6654 14.5837H13.5237C16.1487 14.5837 18.432 12.4337 18.3237 9.81699C18.282 8.62533 17.7737 7.55033 16.9904 6.75866Z" fill="#222222"/>
<path d="M10.8346 9.375H9.16797V10.625H10.8346V9.375Z" fill="#222222"/>
</svg>
