<svg width="36" height="36" viewBox="0 0 36 36" fill="none" xmlns="http://www.w3.org/2000/svg">
<path fill-rule="evenodd" clip-rule="evenodd" d="M18 33.75C26.6985 33.75 33.75 26.6985 33.75 18C33.75 9.30152 26.6985 2.25 18 2.25C9.30152 2.25 2.25 9.30152 2.25 18C2.25 26.6985 9.30152 33.75 18 33.75Z" fill="#1FB6FF"/>
<path fill-rule="evenodd" clip-rule="evenodd" d="M16.4303 14.5363C17.5836 14.5488 15.5532 20.5356 15.7711 23.1382C15.991 25.764 18.8964 25.008 18.712 23.4964C18.3982 20.9266 20.11 12.8743 21.8461 12.8743C23.0641 12.8743 20.497 18.4254 21.0021 21.9801C21.3363 24.332 24.3698 23.5161 24.0615 22.1216C23.0418 17.5067 26.2012 13.0714 25.8472 9.92899C25.6923 8.55405 24.8654 7.88164 24.0383 7.87506C21.1424 7.85278 18.9054 13.7916 18.9054 13.7916C18.9054 13.7916 19.1384 10.4162 16.8877 10.2922C13.4417 10.1023 10.0304 18.7265 10.127 26.427C10.1578 28.8837 13.2153 28.4653 13.0546 26.5066C12.7556 22.8641 14.7864 14.5187 16.4303 14.5363Z" fill="white"/>
</svg>
