<svg width="30" height="12" viewBox="0 0 30 12" fill="none" xmlns="http://www.w3.org/2000/svg">
<path d="M14.2433 3.22779C14.5145 3.1584 14.7632 3.02356 14.9048 2.79969C15.0278 2.60463 15.09 2.34804 15.1019 2.03515C15.1125 1.75237 15.1972 1.54946 15.3533 1.42771C15.5094 1.30465 15.6933 1.24704 15.9063 1.25228C16.1179 1.25883 16.2965 1.32559 16.4421 1.4552C16.5876 1.5848 16.6604 1.78641 16.6604 2.06264C16.6604 2.22236 16.6498 2.36375 16.6273 2.48681C17.0678 2.54179 17.4197 2.75126 17.683 3.11389C17.8616 3.0157 17.9939 2.88479 18.0812 2.72245C18.1672 2.56012 18.2161 2.33102 18.2281 2.03646C18.2333 1.75368 18.3193 1.55077 18.4834 1.42902C18.6474 1.30596 18.8366 1.24835 19.0483 1.25359C19.26 1.26014 19.4425 1.3269 19.5933 1.45651C19.7442 1.58611 19.8196 1.78772 19.8196 2.06395C19.8196 2.10715 19.8182 2.14643 19.8156 2.18309C19.8129 2.21974 19.8116 2.2564 19.8116 2.29305C20.747 2.49597 21.1028 3.1872 21.1875 3.53413C21.2827 3.92556 21.1333 4.29081 20.7642 4.39686C20.4718 4.48064 19.973 4.44922 19.85 3.96745C19.7719 3.66111 19.5695 3.52627 19.4253 3.49092C19.0827 4.13895 18.5813 4.29605 18.3273 4.4034V4.8184H20.821C21.1584 4.8184 21.4309 5.08809 21.4309 5.42192C21.4309 5.75575 21.1584 6.02544 20.821 6.02544H14.2036C13.8663 6.02544 13.5938 5.75575 13.5938 5.42192C13.5938 5.08809 13.8663 4.8184 14.2036 4.8184H16.7014V4.4034C16.6418 3.92033 16.2793 3.73704 16.1232 3.69384C15.7065 4.29605 15.0384 4.4898 14.5595 4.47671C14.2433 4.46755 13.7882 4.36936 13.7313 3.90985C13.6864 3.55245 13.898 3.3155 14.2433 3.22648V3.22779ZM13.8782 8.95007C13.8782 8.29157 14.4166 7.75875 15.0821 7.75875H19.3923C19.4796 7.75875 19.551 7.68806 19.551 7.60165C19.551 7.51525 19.4796 7.44455 19.3923 7.44455H14.5079C14.2116 7.44455 13.9708 7.20629 13.9708 6.91304C13.9708 6.61979 14.2116 6.38152 14.5079 6.38152H19.9982C20.6583 6.38152 21.1928 6.91042 21.1928 7.56369C21.1928 8.21695 20.6583 8.74585 19.9982 8.74585H15.684C15.5941 8.74585 15.5213 8.81785 15.5213 8.90687C15.5213 8.99589 15.5941 9.0679 15.684 9.0679H20.7549C21.0539 9.0679 21.296 9.30747 21.296 9.60334C21.296 9.89921 21.0539 10.1388 20.7549 10.1388H15.0821C14.4166 10.1388 13.8782 9.60596 13.8782 8.94746V8.95007Z" fill="#ED1B23"/>
<path d="M22.8117 3.22779C23.0829 3.1584 23.3316 3.02356 23.4732 2.79969C23.5962 2.60463 23.6584 2.34804 23.6703 2.03515C23.6809 1.75237 23.7655 1.54946 23.9216 1.42771C24.0777 1.30465 24.2616 1.24704 24.4746 1.25228C24.6863 1.25883 24.8649 1.32559 25.0104 1.4552C25.156 1.5848 25.2287 1.78641 25.2287 2.06264C25.2287 2.22236 25.2181 2.36375 25.1956 2.48681C25.6362 2.54179 25.9881 2.75126 26.2514 3.11389C26.43 3.0157 26.5622 2.88479 26.6496 2.72245C26.7369 2.56012 26.7845 2.33102 26.7964 2.03646C26.8017 1.75368 26.8877 1.55077 27.0517 1.42902C27.2158 1.30596 27.405 1.24835 27.6166 1.25359C27.8283 1.26014 28.0109 1.3269 28.1617 1.45651C28.3125 1.58611 28.3879 1.78772 28.3879 2.06395C28.3879 2.10715 28.3866 2.14643 28.384 2.18309C28.3813 2.21974 28.38 2.2564 28.38 2.29305C29.3153 2.49597 29.6712 3.1872 29.7559 3.53413C29.8511 3.92556 29.7016 4.29081 29.3325 4.39686C29.0401 4.48064 28.5414 4.44922 28.4184 3.96745C28.3403 3.66111 28.1379 3.52627 27.9937 3.49092C27.651 4.13895 27.1496 4.29605 26.8956 4.4034V4.8184H29.3894C29.7268 4.8184 29.9993 5.08809 29.9993 5.42192C29.9993 5.75575 29.7268 6.02544 29.3894 6.02544H22.772C22.4346 6.02544 22.1621 5.75575 22.1621 5.42192C22.1621 5.08809 22.4346 4.8184 22.772 4.8184H25.2697V4.4034C25.2102 3.92033 24.8477 3.73704 24.6916 3.69384C24.2749 4.29605 23.6068 4.4898 23.1279 4.47671C22.8117 4.46755 22.3566 4.36936 22.2997 3.90985C22.2547 3.55245 22.4664 3.3155 22.8117 3.22648V3.22779ZM22.4465 8.95007C22.4465 8.29157 22.985 7.75875 23.6504 7.75875H27.9606C28.0479 7.75875 28.1194 7.68806 28.1194 7.60165C28.1194 7.51525 28.0479 7.44455 27.9606 7.44455H23.0763C22.7799 7.44455 22.5392 7.20629 22.5392 6.91304C22.5392 6.61979 22.7799 6.38152 23.0763 6.38152H28.5665C29.2267 6.38152 29.7611 6.91042 29.7611 7.56369C29.7611 8.21695 29.2267 8.74585 28.5665 8.74585H24.2524C24.1624 8.74585 24.0897 8.81785 24.0897 8.90687C24.0897 8.99589 24.1624 9.0679 24.2524 9.0679H29.3233C29.6222 9.0679 29.8643 9.30747 29.8643 9.60334C29.8643 9.89921 29.6222 10.1388 29.3233 10.1388H23.6504C22.985 10.1388 22.4465 9.60596 22.4465 8.94746V8.95007Z" fill="#ED1B23"/>
<path d="M11.1416 5.63923C11.0966 5.61043 11.0517 5.58032 11.008 5.54759C10.7619 5.36431 10.5542 5.12081 10.6389 4.80792C10.7474 4.41125 10.971 4.01458 11.098 3.61529C11.1813 3.35215 11.2197 3.07592 11.2117 2.79969C11.2065 2.6007 11.1721 2.39385 11.053 2.23283C10.9551 2.10191 10.8082 2.0142 10.6548 1.95529C9.89144 1.66204 9.03813 2.04562 8.26156 2.10322C7.55378 2.15559 6.90818 1.43163 6.38429 1.04543C5.69239 0.534861 4.97402 -0.244082 4.00827 0.0740407C3.65901 0.189246 3.3878 0.470713 3.2092 0.788836C2.92874 1.29024 2.82158 1.86757 2.69061 2.41873C2.55434 2.99737 2.30034 3.57994 1.82143 3.93865C1.48275 4.19262 1.0131 4.36412 0.905944 4.77127C0.834505 5.04226 0.956217 5.3198 1.0475 5.58425C1.33458 6.41948 0.461432 6.94838 0.147893 7.65925C-0.0452585 8.09912 -0.0783323 8.65158 0.225947 9.02469C0.468047 9.32056 0.86361 9.44231 1.2433 9.51038C1.87964 9.62428 2.52788 9.62821 3.17084 9.69235C3.61138 9.73687 3.79395 9.90444 3.93021 10.343C4.04266 10.7056 4.34165 10.9308 4.72928 10.9478C5.11293 10.9648 5.36297 10.7266 5.72281 10.6467C6.53775 10.4634 7.17409 11.1809 7.91892 11.3524C8.34358 11.4505 8.82249 11.406 9.16514 11.139C9.66389 10.7515 9.74724 10.0406 9.80942 9.46064C9.84117 9.16739 9.83984 8.87152 9.86366 8.5822C9.89408 8.21825 10.1693 7.94988 10.459 7.74041C10.7461 7.53226 11.0675 7.37385 11.3546 7.16439C11.6086 6.97849 11.8521 6.70881 11.8216 6.39723C11.7886 6.04899 11.4406 5.83037 11.1443 5.63923H11.1416ZM8.6902 5.73349L6.30624 8.87283C5.95168 9.34019 5.21215 9.22499 5.02033 8.67122L3.57699 4.49111C3.38648 3.93734 3.89846 3.39797 4.46866 3.55245L8.29596 4.59191C8.79736 4.72806 9.00241 5.32111 8.6902 5.73218V5.73349Z" fill="#ED1B23"/>
</svg>
